<svg width="20" height="20" viewBox="0 0 20 20" fill="none" xmlns="http://www.w3.org/2000/svg">
<path d="M20 1.37942V16.5518H1.19964e-07V1.37942C-0.000152468 1.01352 0.145264 0.662568 0.4039 0.403932C0.662537 0.145296 1.01349 3.24419e-05 1.37939 3.24419e-05H18.6208C18.7503 -0.000883084 18.8794 0.01758 19.0034 0.0552691C19.2058 0.113863 19.3919 0.217622 19.5483 0.358766C19.8369 0.619386 20.0012 0.990479 20 1.37942Z" fill="#547580"/>
<path d="M20 1.37942V15.8621H0C0 2.44143 14.9655 0.368988 19.0034 0.0552673C19.2058 0.113861 19.3919 0.217621 19.5483 0.358764C19.8369 0.619384 20.0012 0.990477 20 1.37942Z" fill="#35495E"/>
<path d="M20 15.8621V18.6208C20.0001 18.9865 19.8549 19.3375 19.5961 19.5961C19.3375 19.8549 18.9865 20.0002 18.6208 20H1.37939C1.01349 20.0002 0.662537 19.8549 0.4039 19.5961C0.145264 19.3375 -0.000152468 18.9865 1.19964e-07 18.6208V15.8621H20Z" fill="#BDC3C7"/>
<path d="M5.17245 6.89669C4.02988 6.89669 3.10352 5.97033 3.10352 4.8276C3.10352 3.68503 4.02988 2.75867 5.17245 2.75867C6.31518 2.75867 7.24139 3.68503 7.24139 4.8276C7.24017 5.96972 6.31457 6.89532 5.17245 6.89669ZM5.17245 3.44836C4.41074 3.44836 3.79321 4.06589 3.79321 4.8276C3.79321 5.58947 4.41074 6.207 5.17245 6.207C5.93417 6.207 6.55185 5.58947 6.55185 4.8276C6.55093 4.06619 5.93387 3.44913 5.17245 3.44836Z" fill="#E64C3C"/>
<path d="M14.8276 13.7932C13.8755 13.7932 13.1035 13.0213 13.1035 12.069C13.1035 11.1168 13.8755 10.3449 14.8276 10.3449C15.7799 10.3449 16.5518 11.1168 16.5518 12.069C16.5506 13.0208 15.7794 13.792 14.8276 13.7932ZM14.8276 11.0346C14.2563 11.0346 13.7932 11.4977 13.7932 12.069C13.7932 12.6404 14.2563 13.1035 14.8276 13.1035C15.3989 13.1035 15.8622 12.6404 15.8622 12.069C15.8615 11.498 15.3987 11.0352 14.8276 11.0346Z" fill="#E64C3C"/>
<path d="M5.17233 14.4827C3.83917 14.4827 2.75854 13.4021 2.75854 12.069C2.75854 10.7359 3.83917 9.65517 5.17233 9.65517C6.50549 9.65517 7.58612 10.7359 7.58612 12.069C7.58459 13.4015 6.50488 14.4814 5.17233 14.4827ZM5.17233 10.3449C4.22018 10.3449 3.44824 11.1168 3.44824 12.069C3.44824 13.0212 4.22018 13.7932 5.17233 13.7932C6.12448 13.7932 6.89642 13.0212 6.89642 12.069C6.89535 11.1173 6.12402 10.3459 5.17233 10.3449Z" fill="#E64C3C"/>
<path d="M14.8275 8.62078C12.7326 8.62078 11.0344 6.92248 11.0344 4.8276C11.0344 2.73272 12.7326 1.03458 14.8275 1.03458C16.9223 1.03458 18.6206 2.73272 18.6206 4.8276C18.6182 6.92156 16.9214 8.61833 14.8275 8.62078ZM14.8275 1.72427C13.1134 1.72427 11.724 3.11374 11.724 4.8276C11.724 6.54162 13.1134 7.93108 14.8275 7.93108C16.5415 7.93108 17.9309 6.54162 17.9309 4.8276C17.9291 3.1145 16.5407 1.7261 14.8275 1.72427Z" fill="#E64C3C"/>
<path d="M14.8276 6.55184C13.8755 6.55184 13.1035 5.7799 13.1035 4.8276C13.1035 3.87546 13.8755 3.10352 14.8276 3.10352C15.7799 3.10352 16.5518 3.87546 16.5518 4.8276C16.5506 5.77945 15.7794 6.55062 14.8276 6.55184ZM14.8276 3.79321C14.2563 3.79321 13.7932 4.25632 13.7932 4.8276C13.7932 5.39904 14.2563 5.86215 14.8276 5.86215C15.3989 5.86215 15.8622 5.39904 15.8622 4.8276C15.8615 4.25662 15.3987 3.79382 14.8276 3.79321Z" fill="#FB7B76"/>
<path d="M3.79321 17.9311C3.79321 18.3119 3.48437 18.6208 3.10352 18.6208C2.72266 18.6208 2.41382 18.3119 2.41382 17.9311C2.41382 17.5502 2.72266 17.2414 3.10352 17.2414C3.48437 17.2414 3.79321 17.5502 3.79321 17.9311Z" fill="#95A5A5"/>
<path d="M6.55176 17.9311C6.55176 18.3119 6.24292 18.6208 5.86206 18.6208C5.4812 18.6208 5.17236 18.3119 5.17236 17.9311C5.17236 17.5502 5.4812 17.2414 5.86206 17.2414C6.24292 17.2414 6.55176 17.5502 6.55176 17.9311Z" fill="#95A5A5"/>
<path d="M9.31039 17.9311C9.31039 18.3119 9.00171 18.6208 8.62085 18.6208C8.23999 18.6208 7.93115 18.3119 7.93115 17.9311C7.93115 17.5502 8.23999 17.2414 8.62085 17.2414C9.00171 17.2414 9.31039 17.5502 9.31039 17.9311Z" fill="#95A5A5"/>
<path d="M12.0689 17.9311C12.0689 18.3119 11.7603 18.6208 11.3794 18.6208C10.9984 18.6208 10.6897 18.3119 10.6897 17.9311C10.6897 17.5502 10.9984 17.2414 11.3794 17.2414C11.7603 17.2414 12.0689 17.5502 12.0689 17.9311Z" fill="#95A5A5"/>
<path d="M1.72421 1.72427H1.37952C1.18893 1.72427 1.03467 1.56985 1.03467 1.37942C1.03467 1.189 1.18893 1.03458 1.37952 1.03458H1.72421C1.91479 1.03458 2.06906 1.189 2.06906 1.37942C2.06906 1.56985 1.91479 1.72427 1.72421 1.72427Z" fill="white"/>
<path d="M9.65506 1.72427H3.10339C2.91296 1.72427 2.75854 1.56985 2.75854 1.37942C2.75854 1.189 2.91296 1.03458 3.10339 1.03458H9.65506C9.84549 1.03458 9.99991 1.189 9.99991 1.37942C9.99991 1.56985 9.84549 1.72427 9.65506 1.72427Z" fill="white"/>
</svg>
