<svg width="20" height="20" viewBox="0 0 20 20" fill="none" xmlns="http://www.w3.org/2000/svg">
<g clip-path="url(#clip0)">
<path d="M9.71123 0H11.1459C11.5421 0 11.8632 0.321152 11.8632 0.717332V1.43466H8.9939V0.717332C8.9939 0.321152 9.31505 0 9.71123 0Z" fill="#B0D3F0"/>
<path d="M9.71123 0H11.1459C11.5421 0 11.8632 0.321152 11.8632 0.717332V1.43466H8.9939V0.717332C8.9939 0.321152 9.31505 0 9.71123 0Z" fill="#B0D3F0"/>
<path d="M13.2978 12.5532V13.6292H7.55914V12.5532L6.12451 3.22797V2.51064H14.7324V3.22797L13.2978 12.5532Z" fill="#B0D3F0"/>
<path d="M13.2979 13.9879H13.5705C13.7107 13.988 13.8478 14.0292 13.965 14.1063V14.1099C14.0713 14.1774 14.157 14.273 14.2125 14.386L16.9625 19.9257C17.0177 20.0369 17.0115 20.1687 16.9461 20.2742C16.8807 20.3796 16.7654 20.4439 16.6412 20.4439H4.21584C4.0917 20.4439 3.97642 20.3797 3.91102 20.2742C3.84561 20.1687 3.83938 20.0369 3.89461 19.9257L6.64466 14.386C6.76581 14.1423 7.01445 13.9881 7.28669 13.9879H13.2979Z" fill="#CC4B4C"/>
<path d="M13.298 12.5532V15.2074C12.3982 15.6161 11.4165 15.8125 10.4287 15.7812C9.44088 15.8125 8.4591 15.6162 7.55933 15.2074V12.5532H13.298Z" fill="#802F34"/>
<path d="M13.2978 12.5532H7.55914L6.12451 3.22797H14.7324L13.2978 12.5532Z" fill="#B0D3F0"/>
<path d="M6.8418 1.07597H14.0151C14.4113 1.07597 14.7324 1.39713 14.7324 1.79331V3.22797H6.12451V1.79331C6.12451 1.39717 6.44566 1.07597 6.8418 1.07597Z" fill="#802F34"/>
<path d="M13.298 12.5532V15.2074C12.3982 15.6161 11.4165 15.8125 10.4287 15.7812C9.44088 15.8125 8.4591 15.6162 7.55933 15.2074V12.5532H13.298Z" fill="#802F34"/>
<path d="M14.7324 20.4439L13.4871 17.6419C13.372 17.3828 13.1151 17.2159 12.8316 17.2159H8.02531C7.74181 17.2159 7.48495 17.3828 7.36979 17.6419L6.12451 20.4439H14.7324Z" fill="#BDC3C7"/>
<path d="M6.8418 1.07597H14.0151C14.4113 1.07597 14.7324 1.39713 14.7324 1.79331V3.22797H6.12451V1.79331C6.12451 1.39717 6.44566 1.07597 6.8418 1.07597Z" fill="#802F34"/>
<path d="M12.2219 3.22797L11.3611 4.37571C11.2256 4.55635 11.013 4.66264 10.7872 4.66264H10.0699C9.84412 4.66264 9.63153 4.55635 9.49605 4.37571L8.63525 3.22797H12.2219Z" fill="#8697CB"/>
<path d="M11.8632 9.68883H10.7872V9.68392C10.7872 9.48583 10.6267 9.32527 10.4286 9.32527C10.2305 9.32527 10.07 9.48587 10.07 9.68392V9.68883H8.9939C8.79581 9.68883 8.63525 9.84942 8.63525 10.0475C8.63525 10.2456 8.79585 10.4061 8.9939 10.4061H10.0699V11.4772C10.0699 11.6753 10.2305 11.8359 10.4285 11.8359C10.6266 11.8359 10.7872 11.6753 10.7872 11.4772V10.4061H11.8631C12.0612 10.4061 12.2218 10.2455 12.2218 10.0475C12.2219 9.84942 12.0613 9.68883 11.8632 9.68883Z" fill="#556080"/>
<path d="M11.8632 12.5532L11.3441 11.5151C11.2226 11.2721 10.9742 11.1186 10.7026 11.1186H10.1546C9.88284 11.1186 9.63448 11.2721 9.51298 11.5151L8.9939 12.5532H11.8632Z" fill="#8697CB"/>
<path d="M8.99389 19.0092C8.96982 19.0083 8.94586 19.006 8.9221 19.002C8.89962 18.998 8.87786 18.9907 8.85749 18.9805C8.83469 18.9726 8.81301 18.9617 8.79305 18.9481C8.7742 18.935 8.75623 18.9207 8.73926 18.9052C8.59863 18.7646 8.59863 18.5365 8.73926 18.3959C8.87989 18.2553 9.10793 18.2553 9.24856 18.3959C9.26402 18.4129 9.27835 18.4308 9.29149 18.4497C9.30506 18.4696 9.31596 18.4913 9.32387 18.5141C9.33417 18.5345 9.34144 18.5562 9.34539 18.5787C9.34934 18.6025 9.35174 18.6265 9.35254 18.6505C9.3511 18.7455 9.31397 18.8364 9.24852 18.9052C9.23147 18.9206 9.21354 18.9349 9.19478 18.9481C9.17477 18.9618 9.15305 18.9727 9.13017 18.9805C9.10981 18.9908 9.08805 18.9981 9.06557 19.002C9.04185 19.006 9.01793 19.0084 8.99389 19.0092Z" fill="#7F8C8D"/>
<path d="M10.4285 19.0092C10.4044 19.0083 10.3804 19.006 10.3567 19.002C10.3342 18.998 10.3124 18.9907 10.2921 18.9805C10.2693 18.9726 10.2476 18.9617 10.2276 18.9481C10.2088 18.935 10.1908 18.9207 10.1738 18.9052C10.1414 18.8709 10.1158 18.8307 10.0984 18.7868C10.08 18.7437 10.0703 18.6974 10.0698 18.6505C10.0711 18.5556 10.1083 18.4646 10.1738 18.3959C10.1917 18.3815 10.2096 18.3672 10.2276 18.3528C10.2475 18.3392 10.2692 18.3283 10.292 18.3204C10.3124 18.3101 10.3342 18.3029 10.3567 18.299C10.4911 18.2709 10.6298 18.3218 10.714 18.4303C10.7981 18.5389 10.813 18.6859 10.7523 18.8091C10.6915 18.9322 10.5658 19.0099 10.4285 19.0092Z" fill="#7F8C8D"/>
<path d="M11.8631 19.0092C11.8162 19.0086 11.7698 18.9989 11.7267 18.9805C11.6828 18.9631 11.6427 18.9376 11.6084 18.9052C11.4697 18.7637 11.4697 18.5373 11.6084 18.3959C11.6427 18.3634 11.6828 18.3378 11.7267 18.3204C11.8603 18.2646 12.0145 18.2943 12.1177 18.3959C12.1832 18.4647 12.2203 18.5556 12.2217 18.6506C12.2209 18.6746 12.2185 18.6985 12.2146 18.7222C12.2106 18.7447 12.2033 18.7665 12.193 18.7868C12.1852 18.8097 12.1743 18.8314 12.1607 18.8514C12.1474 18.8702 12.1331 18.8882 12.1178 18.9052C12.0489 18.9706 11.958 19.0077 11.8631 19.0092Z" fill="#7F8C8D"/>
</g>
<defs>
<clipPath id="clip0">
<rect width="20" height="20" fill="white"/>
</clipPath>
</defs>
</svg>
