<svg width="20" height="13" viewBox="0 0 20 13" fill="none" xmlns="http://www.w3.org/2000/svg">
<path d="M2.06896 12.4138H1.37927C1.18884 12.4138 1.03442 12.2594 1.03442 12.069V11.3793H2.41372V12.069C2.41376 12.2594 2.25938 12.4138 2.06896 12.4138Z" fill="#707487"/>
<path d="M18.6207 12.4138H17.931C17.7406 12.4138 17.5862 12.2594 17.5862 12.069V11.3793H18.9655V12.069C18.9655 12.2594 18.8111 12.4138 18.6207 12.4138Z" fill="#707487"/>
<path d="M18.9655 11.7241H1.03449C0.463164 11.7241 0 11.261 0 10.6897V1.03449C0 0.463164 0.463164 0 1.03449 0H18.9655C19.5368 0 20 0.463164 20 1.03449V10.6896C20 11.261 19.5368 11.7241 18.9655 11.7241Z" fill="#AFB9D2"/>
<path d="M15.5173 11.0345H1.37935C0.998447 11.0345 0.689697 10.7257 0.689697 10.3448V1.37933C0.689697 0.998432 0.998447 0.689682 1.37935 0.689682H15.5173C15.8982 0.689682 16.2069 0.998432 16.2069 1.37933V10.3448C16.207 10.7257 15.8982 11.0345 15.5173 11.0345Z" fill="#707487"/>
<path d="M14.8275 10C15.0179 10 15.1724 9.84558 15.1724 9.65515V2.06898C15.1724 1.87855 15.0179 1.72414 14.8275 1.72414C14.6371 1.72414 14.4827 1.87855 14.4827 2.06898V9.65519C14.4827 9.84562 14.6371 10 14.8275 10Z" fill="#AFB9D2"/>
<path d="M2.06896 10H13.1035C13.2939 10 13.4483 9.84558 13.4483 9.65515V2.06898C13.4483 1.87855 13.2939 1.72414 13.1035 1.72414H2.06896C1.87854 1.72414 1.72412 1.87855 1.72412 2.06898V9.65519C1.72412 9.84562 1.8785 10 2.06896 10Z" fill="#FFD764"/>
<path d="M18.1035 10.3448C18.5796 10.3448 18.9656 9.95888 18.9656 9.48277C18.9656 9.00666 18.5796 8.6207 18.1035 8.6207C17.6274 8.6207 17.2415 9.00666 17.2415 9.48277C17.2415 9.95888 17.6274 10.3448 18.1035 10.3448Z" fill="#E4EAF6"/>
<path d="M18.1035 7.93105C18.5796 7.93105 18.9656 7.54509 18.9656 7.06898C18.9656 6.59287 18.5796 6.20691 18.1035 6.20691C17.6274 6.20691 17.2415 6.59287 17.2415 7.06898C17.2415 7.54509 17.6274 7.93105 18.1035 7.93105Z" fill="#E4EAF6"/>
<path d="M18.6208 4.82761H17.5863C17.3959 4.82761 17.2415 4.6732 17.2415 4.48277C17.2415 4.29234 17.3959 4.13792 17.5863 4.13792H18.6208C18.8112 4.13792 18.9656 4.29234 18.9656 4.48277C18.9656 4.6732 18.8112 4.82761 18.6208 4.82761Z" fill="#959CB3"/>
<path d="M18.6208 3.44828H17.5863C17.3959 3.44828 17.2415 3.29386 17.2415 3.10343C17.2415 2.913 17.3959 2.75859 17.5863 2.75859H18.6208C18.8112 2.75859 18.9656 2.913 18.9656 3.10343C18.9656 3.2939 18.8112 3.44828 18.6208 3.44828Z" fill="#959CB3"/>
<path d="M18.6208 2.06899H17.5863C17.3959 2.06899 17.2415 1.91458 17.2415 1.72415C17.2415 1.53372 17.3959 1.3793 17.5863 1.3793H18.6208C18.8112 1.3793 18.9656 1.53372 18.9656 1.72415C18.9656 1.91458 18.8112 2.06899 18.6208 2.06899Z" fill="#959CB3"/>
<path d="M7.29804 6.94C7.20979 6.94 7.12155 6.90633 7.05425 6.83898L3.81562 3.59902C3.68093 3.46434 3.68093 3.24598 3.81562 3.11141C3.9503 2.97672 4.16855 2.97672 4.30323 3.11141L7.54187 6.35137C7.67655 6.48605 7.67655 6.70441 7.54187 6.83898C7.47452 6.90637 7.38628 6.94 7.29804 6.94Z" fill="#FFE678"/>
<path d="M11.7241 9.38259C11.6359 9.38259 11.5476 9.34892 11.4803 9.28157L8.99555 6.79626C8.86086 6.66157 8.86086 6.44321 8.99555 6.30864C9.13023 6.17395 9.34848 6.17395 9.48316 6.30864L11.9679 8.79395C12.1026 8.92864 12.1026 9.147 11.9679 9.28157C11.9005 9.34892 11.8123 9.38259 11.7241 9.38259Z" fill="#FFE678"/>
<path d="M8.20514 5.86277C8.11689 5.86277 8.0285 5.8291 7.96135 5.76176L7.18451 4.98457C7.04982 4.84988 7.04982 4.63152 7.18451 4.49695C7.3192 4.36226 7.53775 4.36226 7.67213 4.49695L8.44897 5.27414C8.58365 5.40883 8.58365 5.62718 8.44897 5.76176C8.38162 5.82906 8.29338 5.86277 8.20514 5.86277Z" fill="#FFF08C"/>
<path d="M13.1034 1.72414H2.06896C1.87854 1.72414 1.72412 1.87855 1.72412 2.06898V2.75863C1.72412 2.5682 1.87854 2.41378 2.06896 2.41378H13.1035C13.2939 2.41378 13.4483 2.5682 13.4483 2.75863V2.06898C13.4483 1.87855 13.2938 1.72414 13.1034 1.72414Z" fill="#FFBE5A"/>
</svg>
