<svg width="20" height="20" viewBox="0 0 20 20" fill="none" xmlns="http://www.w3.org/2000/svg">
<path d="M11.649 1.13078C11.9559 0.443867 12.6402 0 13.3925 0C14.4454 0 15.302 0.856562 15.302 1.90949V5.55031L14.6736 5.90188L14.0923 5.55031V1.90949C14.0923 1.52363 13.7784 1.20969 13.3925 1.20969C13.1168 1.20969 12.866 1.37234 12.7535 1.6241L6.09145 16.5389L5.26691 17.0385L4.7666 16.5389L11.649 1.13078Z" fill="#C6D0DA"/>
<path d="M4.44238 17.2647L5.095 17.6818L5.76722 17.2647L6.0914 16.5389H4.76656L4.44238 17.2647Z" fill="#A0AAB7"/>
<path d="M3.68001 17.8766L5.09505 18.2282L6.51008 17.8766V17.6679C6.51008 17.4452 6.32953 17.2646 6.10684 17.2646H4.08317C3.86048 17.2646 3.67993 17.4452 3.67993 17.6679V17.8766H3.68001Z" fill="#DC4955"/>
<path d="M3.67993 18.6024L5.09501 18.954L6.51006 18.6024V17.8766H3.67993V18.6024Z" fill="#D82F3C"/>
<path d="M14.0923 5.55031V6.27613L14.6971 6.62769L15.302 6.27613V5.55031H14.0923Z" fill="#A0AAB7"/>
<path d="M8.5883 19.2742C8.37588 18.8681 7.95225 18.6024 7.47873 18.6024H2.35131C1.7835 18.6024 1.26389 18.8589 0.91748 19.2742L4.67748 19.6257L8.5883 19.2742Z" fill="#808B95"/>
<path d="M8.58756 19.2742H0.917441C0.745098 19.4808 0.61541 19.7266 0.544434 20H8.81041L8.691 19.5401C8.66658 19.4461 8.63115 19.3575 8.58756 19.2742Z" fill="#5E6B75"/>
<path d="M15.6091 7.36743V6.47774C15.6091 6.36641 15.5188 6.27614 15.4075 6.27614H13.9399C13.8286 6.27614 13.7383 6.36641 13.7383 6.47774V7.54504L14.6972 7.80555L15.6091 7.36743Z" fill="#F6E080"/>
<path d="M15.3098 7.32925C14.7673 7.32925 14.2399 7.40437 13.738 7.54507V8.27089L14.697 8.5314L15.6089 8.09328V7.36746C15.5133 7.34257 15.4131 7.32925 15.3098 7.32925Z" fill="#ECCD61"/>
<path d="M16.1428 19.6484H11.6924C8.74725 19.6484 8.84955 16.777 8.84955 16.777C8.85674 16.7205 8.86565 16.6638 8.87631 16.607L9.49373 13.3126L13.7382 8.27055C14.24 8.12989 14.7676 8.05508 15.31 8.05508C15.9641 8.05508 16.4943 8.58532 16.4943 9.23942V19.2742L16.1428 19.6484Z" fill="#DC4955"/>
<path d="M8.84958 16.777C8.63349 18.4736 9.9563 20 11.6924 20H16.4943V19.2742H11.6924C10.209 19.2742 9.02735 18.1598 8.84958 16.777Z" fill="#D82F3C"/>
<path d="M13.7381 12.0315V11.7803V8.27086C11.7171 8.83738 10.1132 10.4714 9.63379 12.5868L10.1966 12.9611H12.9316C13.377 12.961 13.7381 12.4769 13.7381 12.0315Z" fill="#F6E080"/>
<path d="M12.9317 12.5868H9.63408C9.61783 12.6584 9.60271 12.7306 9.58908 12.8033L9.49365 13.3126H12.9317C13.3771 13.3126 13.7382 12.9516 13.7382 12.5062V11.7803C13.7382 12.2257 13.3771 12.5868 12.9317 12.5868Z" fill="#ECCD61"/>
<path d="M16.4942 19.6484C19.4338 19.6484 19.4482 16.7945 19.4337 16.6755C19.2547 15.2111 18.0069 14.077 16.4942 14.077C14.9815 14.077 13.7337 15.2111 13.5547 16.6755C13.5401 16.7945 13.5326 19.6484 16.4942 19.6484Z" fill="#808B95"/>
<path d="M16.4942 19.2742C14.9816 19.2742 13.7347 18.1398 13.5556 16.6756C13.5411 16.7946 13.5327 16.9155 13.5327 17.0385C13.5327 18.6741 14.8586 20 16.4942 20C18.1298 20 19.4557 18.6741 19.4557 17.0385C19.4557 16.9155 19.4474 16.7946 19.4328 16.6756C19.2538 18.1399 18.0069 19.2742 16.4942 19.2742Z" fill="#5E6B75"/>
<path d="M16.4942 17.7429C17.4887 17.7429 17.5275 16.7888 17.4861 16.6756C17.3381 16.2712 16.9498 15.9826 16.4942 15.9826C16.0385 15.9826 15.6502 16.2712 15.5022 16.6756C15.4608 16.7887 15.4996 17.7429 16.4942 17.7429Z" fill="#F6E080"/>
<path d="M16.4942 17.3686C16.0385 17.3686 15.6503 17.08 15.5023 16.6756C15.4608 16.7887 15.4382 16.911 15.4382 17.0385C15.4382 17.6216 15.911 18.0944 16.4942 18.0944C17.0773 18.0944 17.5501 17.6216 17.5501 17.0385C17.5501 16.911 17.5275 16.7887 17.4861 16.6756C17.3381 17.08 16.9498 17.3686 16.4942 17.3686Z" fill="#ECCD61"/>
</svg>
