<svg width="485" height="211" viewBox="0 0 485 211" fill="none" xmlns="http://www.w3.org/2000/svg">
<path d="M129.672 127.984H150.484V164.547H129.672V208H82.2812V164.547H3.10938L0.296875 135.578L82.2812 3.67188V3.25H129.672V127.984ZM45.4375 127.984H82.2812V64.9844L79.3281 69.7656L45.4375 127.984ZM313.469 124.328C313.469 151.984 307.234 173.312 294.766 188.312C282.391 203.312 264.906 210.812 242.312 210.812C219.531 210.812 201.906 203.266 189.438 188.172C176.969 173.078 170.734 151.797 170.734 124.328V86.9219C170.734 59.2656 176.922 37.9375 189.297 22.9375C201.766 7.9375 219.344 0.4375 242.031 0.4375C264.719 0.4375 282.297 7.98438 294.766 23.0781C307.234 38.1719 313.469 59.5 313.469 87.0625V124.328ZM266.078 80.875C266.078 66.1562 264.156 55.1875 260.312 47.9688C256.469 40.6562 250.375 37 242.031 37C233.875 37 227.922 40.375 224.172 47.125C220.516 53.875 218.547 64.0938 218.266 77.7812V130.094C218.266 145.375 220.188 156.578 224.031 163.703C227.875 170.734 233.969 174.25 242.312 174.25C250.375 174.25 256.328 170.828 260.172 163.984C264.016 157.047 265.984 146.219 266.078 131.5V80.875ZM463.234 127.984H484.047V164.547H463.234V208H415.844V164.547H336.672L333.859 135.578L415.844 3.67188V3.25H463.234V127.984ZM379 127.984H415.844V64.9844L412.891 69.7656L379 127.984Z" fill="#F2F2F2"/>
</svg>
