<svg width="20" height="20" viewBox="0 0 20 20" fill="none" xmlns="http://www.w3.org/2000/svg">
<path d="M2.05125 16.2851L2.05125 9.0513C3.01161 9.85269 4.54722 10.3627 6.30905 10.3627C8.07088 10.3627 9.60642 9.8527 10.5669 9.0513L10.5669 16.2851L10.5669 16.2851C10.5669 16.5754 10.8023 16.8108 11.0926 16.8108C11.3829 16.8108 11.6183 16.5755 11.6183 16.2851L11.6183 13.1032L12.5626 12.907C13.7048 13.6545 15.1221 13.8036 16.4013 13.2996C17.7556 12.7658 18.7237 11.5912 18.9911 10.1576C19.028 9.95969 18.9485 9.75787 18.7864 9.63816C17.6127 8.77249 16.1035 8.57433 14.7492 9.10811C13.507 9.59766 12.5901 10.6268 12.2404 11.9001L11.6182 12.0294L11.6182 7.04833C11.6182 5.18974 9.28621 3.73389 6.30912 3.73389C3.33203 3.73389 1 5.18974 1 7.04833L0.999999 16.2851C0.999999 16.5754 1.23534 16.8108 1.5257 16.8108C1.81605 16.8108 2.05125 16.5754 2.05125 16.2851ZM15.1347 10.0862C16.0436 9.72794 17.0457 9.8095 17.8773 10.2963C17.6014 11.2196 16.9245 11.963 16.0157 12.3214C15.1068 12.6795 14.1046 12.5979 13.2731 12.1112C13.549 11.1878 14.2259 10.4443 15.1347 10.0862ZM2.05132 7.04833C2.05132 5.82159 4.00114 4.78527 6.30912 4.78527C8.61703 4.78527 10.5669 5.82166 10.5669 7.04833C10.5669 8.27499 8.6171 9.31131 6.30912 9.31131C4.00114 9.31131 2.05132 8.27499 2.05132 7.04833Z" fill="#333333"/>
<path d="M8.24128 7.97587C8.73898 7.7281 8.90773 7.47246 8.95722 7.37406C9.01427 7.2605 9.01427 7.12677 8.95717 7.01321C8.90768 6.91481 8.73893 6.65927 8.24122 6.41156C7.70818 6.14615 7.01394 6 6.28648 6C5.55891 6 4.86472 6.1462 4.33168 6.41156C3.83387 6.65933 3.66512 6.91497 3.61568 7.01337C3.58716 7.07009 3.5729 7.13189 3.5729 7.19369C3.5729 7.25548 3.58716 7.31739 3.61568 7.37401C3.66512 7.47246 3.83387 7.72805 4.33152 7.97582C4.86456 8.24123 5.5588 8.38743 6.28637 8.38743C7.01394 8.38748 7.70818 8.24133 8.24128 7.97587ZM4.68963 7.25665C4.64611 7.23494 4.60734 7.21386 4.5729 7.19364C4.60734 7.17346 4.64611 7.15233 4.68968 7.13062C5.11371 6.91951 5.68076 6.80331 6.28637 6.80331C6.89198 6.80331 7.45904 6.91956 7.88301 7.13062C7.92653 7.15233 7.96535 7.17341 7.99979 7.19364C7.96535 7.21381 7.92664 7.23494 7.88306 7.25665C7.45909 7.46776 6.89204 7.58401 6.28637 7.58401C5.68071 7.58401 5.11365 7.46776 4.68963 7.25665Z" fill="black"/>
</svg>
