<svg width="28" height="28" viewBox="0 0 28 28" fill="none" xmlns="http://www.w3.org/2000/svg">
<g clip-path="url(#clip0)">
<path d="M24.9828 0H18.5038C17.0815 0 15.1794 0.787842 14.1739 1.79358L0.880981 15.0863C0.312744 15.6543 0 16.4118 0 17.2195C0 18.0272 0.312958 18.7847 0.880981 19.3528L8.64703 27.119C9.21506 27.687 9.97256 28 10.7803 28C11.5878 28 12.3455 27.687 12.9137 27.119L26.2064 13.8261C27.2122 12.8206 28 10.9185 28 9.49619V3.01678C27.9998 1.3533 26.6463 0 24.9828 0ZM26.3594 9.49619C26.3594 10.4855 25.7458 11.9667 25.0464 12.6661L11.7535 25.9588C11.4953 26.2171 11.1496 26.3594 10.7803 26.3594C10.4109 26.3594 10.0655 26.2171 9.80722 25.959L2.04117 18.1926C1.7829 17.9343 1.64062 17.5887 1.64062 17.2195C1.64062 16.8502 1.78268 16.5045 2.04095 16.2465L15.3339 2.95355C16.0333 2.25415 17.5145 1.64062 18.5038 1.64062H24.9828C25.7418 1.64062 26.3592 2.258 26.3594 3.01678V9.49619Z" fill="#007DFF"/>
<path d="M7.61859 18.1284C7.32037 17.8304 7.39493 17.3954 7.84204 16.9479C8.36413 16.426 8.7431 16.5192 8.93579 16.3267C9.15945 16.103 8.97296 15.7177 8.83004 15.575C8.41989 15.1648 7.51904 15.8918 7.15247 16.2583C6.4379 16.9729 5.9596 18.085 6.88522 19.0109C8.35773 20.4834 10.0665 18.2032 10.9985 19.1352C11.3713 19.508 11.216 19.9987 10.8432 20.3716C10.2094 21.0053 9.5632 20.6946 9.30856 20.9493C9.11587 21.142 9.21542 21.5645 9.38931 21.7386C9.74969 22.099 10.7811 21.8877 11.595 21.0736C12.4524 20.2163 12.6139 19.135 11.7255 18.2465C10.1163 16.6375 8.38891 18.8991 7.61859 18.1284Z" fill="#007DFF"/>
<path d="M16.3046 15.4572L11.1971 12.7483C10.9548 12.6177 10.6378 12.7606 10.4017 12.9969C10.1719 13.2266 10.029 13.5436 10.1595 13.786L12.8684 18.8933C12.887 18.9243 12.9058 18.9553 12.9182 18.9679C13.1171 19.1665 13.5458 19.0112 13.7631 18.7938C13.8998 18.6573 13.9622 18.5079 13.875 18.3588L13.2848 17.2965L14.7077 15.8735L15.7701 16.464C15.9194 16.5507 16.0683 16.4888 16.205 16.3521C16.4225 16.1346 16.5716 15.6994 16.3789 15.507C16.3605 15.4884 16.3355 15.4758 16.3046 15.4572ZM12.8189 16.495L11.4519 14.0466L13.9 15.4138L12.8189 16.495Z" fill="#007DFF"/>
<path d="M18.7585 12.3818L17.2424 13.8979L13.6574 10.3126C13.4833 10.1388 13.2039 10.2693 13.005 10.4679C12.8002 10.673 12.6756 10.9465 12.8497 11.1206L16.8883 15.1593C17.0562 15.327 17.317 15.2401 17.4973 15.0598L19.4669 13.0902C19.6284 12.9287 19.5291 12.6676 19.355 12.4937C19.1749 12.3134 18.9202 12.2201 18.7585 12.3818Z" fill="#007DFF"/>
<path d="M22.0077 9.13231L20.2493 10.8906L19.0005 9.64181L19.9449 8.69738C20.1188 8.52349 20.0319 8.27483 19.8889 8.13192C19.7213 7.96422 19.4726 7.90227 19.3111 8.06377L18.3667 9.00799L17.124 7.76534L18.8824 6.00722C19.0439 5.84551 18.9693 5.58468 18.7768 5.39199C18.6089 5.22429 18.3481 5.12475 18.174 5.29863L15.9621 7.5107C15.782 7.69079 15.6949 7.95183 15.8628 8.11953L19.8954 12.1519C20.063 12.3198 20.3239 12.2328 20.5042 12.0525L22.716 9.84069C22.8901 9.6668 22.7906 9.40575 22.6229 9.23806C22.4302 9.04537 22.1692 8.97082 22.0077 9.13231Z" fill="#007DFF"/>
<path d="M22.8301 4.39697C22.6141 4.39697 22.4024 4.48456 22.2499 4.63708C22.0974 4.78961 22.0098 5.00131 22.0098 5.21729C22.0098 5.43347 22.0974 5.64453 22.2499 5.79706C22.4024 5.95023 22.6141 6.0376 22.8301 6.0376C23.0461 6.0376 23.2571 5.95023 23.4099 5.79706C23.5628 5.64453 23.6504 5.43283 23.6504 5.21729C23.6504 5.00131 23.5628 4.78961 23.4099 4.63708C23.2571 4.48456 23.0461 4.39697 22.8301 4.39697Z" fill="#007DFF"/>
</g>
<defs>
<clipPath id="clip0">
<rect width="28" height="28" fill="white"/>
</clipPath>
</defs>
</svg>
