<svg width="48" height="48" viewBox="0 0 48 48" fill="none" xmlns="http://www.w3.org/2000/svg">
<path d="M40.9706 7.02938C36.4376 2.49638 30.4106 0 24 0C17.5894 0 11.5624 2.49638 7.02938 7.02938C2.49647 11.5624 0 17.5894 0 24C0 30.4106 2.49647 36.4376 7.02938 40.9706C11.5624 45.5036 17.5894 48 24 48C30.4106 48 36.4376 45.5036 40.9706 40.9706C45.5035 36.4376 48 30.4106 48 24C48 17.5894 45.5035 11.5624 40.9706 7.02938ZM24 45.1875C12.3172 45.1875 2.8125 35.6828 2.8125 24C2.8125 12.3172 12.3172 2.8125 24 2.8125C35.6828 2.8125 45.1875 12.3172 45.1875 24C45.1875 35.6828 35.6828 45.1875 24 45.1875Z" fill="white"/>
<path d="M25.5058 22.5933H22.4933C20.777 22.5933 19.3808 21.197 19.3808 19.4809C19.3808 17.7646 20.7771 16.3684 22.4933 16.3684H28.5183C29.295 16.3684 29.9246 15.7387 29.9246 14.9621C29.9246 14.1855 29.295 13.5559 28.5183 13.5559H25.4058V10.4434C25.4058 9.66673 24.7762 9.03711 23.9996 9.03711C23.2229 9.03711 22.5933 9.66673 22.5933 10.4434V13.5559H22.4934C19.2263 13.5559 16.5684 16.2139 16.5684 19.4809C16.5684 22.7479 19.2264 25.4058 22.4934 25.4058H25.5059C27.2221 25.4058 28.6184 26.8021 28.6184 28.5183C28.6184 30.2345 27.2221 31.6308 25.5059 31.6308H19.4809C18.7043 31.6308 18.0746 32.2604 18.0746 33.037C18.0746 33.8136 18.7043 34.4433 19.4809 34.4433H22.5933V37.5559C22.5933 38.3325 23.2229 38.9621 23.9996 38.9621C24.7762 38.9621 25.4058 38.3325 25.4058 37.5559V34.4433H25.5058C28.7729 34.4433 31.4308 31.7853 31.4308 28.5183C31.4308 25.2513 28.7729 22.5933 25.5058 22.5933Z" fill="white"/>
</svg>
