<svg width="48" height="48" viewBox="0 0 48 48" fill="none" xmlns="http://www.w3.org/2000/svg">
<path d="M8.10425 17.8491C11.5521 17.8491 14.3569 15.0443 14.3569 11.5964C14.3569 8.14893 11.5521 5.34375 8.10425 5.34375C4.65637 5.34375 1.85156 8.14856 1.85156 11.5964C1.85156 15.0443 4.65637 17.8491 8.10425 17.8491ZM8.10425 8.15625C10.0012 8.15625 11.5444 9.69946 11.5444 11.5964C11.5444 13.4934 10.0012 15.0366 8.10425 15.0366C6.20728 15.0366 4.66406 13.4934 4.66406 11.5964C4.66406 9.69946 6.20728 8.15625 8.10425 8.15625Z" fill="white"/>
<path d="M47.0255 2.69531C42.9551 -0.157104 38.5704 -0.180542 33.6218 2.62317C30.5581 4.35901 27.2618 4.46924 23.8125 2.95532V1.40625C23.8125 0.629517 23.183 0 22.4062 0C21.6295 0 21 0.629517 21 1.40625V20.4371C18.3951 20.4371 7.28723 20.4342 4.33813 20.4342C2.1405 20.4342 0.280884 22.2682 0.28125 24.4702L0.283081 32.9487C0.283081 34.5011 1.16162 35.8674 2.48804 36.5413L2.49316 46.5945C2.49353 47.3708 3.12305 48 3.89941 48H12.2791C13.0554 48 13.6853 47.3701 13.6853 46.5938V28.875H21V46.5938C21 47.3705 21.6295 48 22.4062 48C23.183 48 23.8125 47.3705 23.8125 46.5938V20.0475C25.177 20.647 26.5789 20.9487 28.0283 20.9487C30.2347 20.9484 32.5499 20.2533 35.0032 18.8635C38.2947 16.9984 41.8546 17.0094 45.5841 18.895C46.0203 19.1151 46.5392 19.0935 46.9552 18.8379C47.3716 18.5819 47.625 18.1285 47.625 17.64V3.84668C47.625 3.38818 47.4012 2.95825 47.0255 2.69531V2.69531ZM20.6246 26.0625H12.2794C11.5027 26.0625 10.8732 26.6924 10.8732 27.4688L10.8728 45.1875H5.30493L5.30017 35.5393C5.2998 34.8538 4.80469 34.2682 4.12866 34.1536C3.53979 34.054 3.09558 33.5358 3.09521 32.948C3.09521 32.948 3.09375 24.4838 3.09375 24.4695C3.09338 23.7997 3.67712 23.2471 4.33813 23.2471C7.28687 23.2471 18.1443 23.2496 20.6246 23.25V26.0625ZM33.6167 16.4161C29.8517 18.5497 26.7971 18.7031 23.8125 16.8809V5.98169C25.3469 6.52917 26.8726 6.81519 28.3678 6.83459C30.6552 6.86536 32.8901 6.27026 35.0079 5.07056C38.7729 2.93701 41.8279 2.78357 44.8125 4.60583V15.505C43.2777 14.9575 41.7524 14.6711 40.2568 14.6521C37.9669 14.6202 35.7345 15.2164 33.6167 16.4161Z" fill="white"/>
</svg>
