<svg width="48" height="48" viewBox="0 0 48 48" fill="none" xmlns="http://www.w3.org/2000/svg">
<g clip-path="url(#clip0)">
<path d="M21.5969 31.347C21.9627 30.9804 21.9627 30.3868 21.5969 30.0202C21.2303 29.6547 20.6371 29.6547 20.2705 30.0202C19.9046 30.3868 19.9046 30.9804 20.2705 31.347C20.6371 31.7125 21.2303 31.7125 21.5969 31.347V31.347Z" fill="white"/>
<path d="M21.9375 9.28125V11.1562C21.9375 14.2639 24.4548 16.7812 27.5625 16.7812C30.6643 16.7812 33.1879 14.2581 33.1879 11.1562V9.28125C33.7057 9.28125 34.1254 8.86157 34.1254 8.34375C34.1254 7.82593 33.7057 7.40625 33.1879 7.40625H31.3129C30.795 7.40625 30.3754 7.82593 30.3754 8.34375C30.3754 8.86157 30.795 9.28125 31.3129 9.28125V11.1562C31.3129 13.2239 29.6305 14.9062 27.5625 14.9062C25.4916 14.9062 23.8125 13.2279 23.8125 11.1562V9.28125C24.3303 9.28125 24.75 8.86157 24.75 8.34375C24.75 7.82593 24.3303 7.40625 23.8125 7.40625H21.9375C21.4197 7.40625 21 7.82593 21 8.34375C21 8.86157 21.4197 9.28125 21.9375 9.28125V9.28125Z" fill="white"/>
<path d="M10.8955 46.0258C11.0786 46.2085 11.3181 46.2997 11.558 46.2997C11.7978 46.2997 12.0377 46.2081 12.2208 46.0254L15.0996 43.1466C16.0375 42.2095 16.489 40.9259 16.3586 39.6288L17.391 38.632C18.2102 37.8424 19.2872 37.4073 20.4232 37.4073H32.7667C34.9779 37.4073 37.0678 36.5581 38.6513 35.016C38.6748 34.9933 38.6967 34.9695 38.7176 34.9442L47.1163 24.8588C48.4508 23.2797 48.2512 20.9088 46.6706 19.5729C45.1003 18.2494 42.747 18.4398 41.4085 19.9926L40.5014 20.9308V2.625C40.5014 2.10718 40.0814 1.6875 39.5639 1.6875H15.4691C14.9516 1.6875 14.5316 2.10718 14.5316 2.625V23.6298C10.901 24.3918 8.02148 26.6455 6.47058 29.9399C5.24743 29.8766 4.05468 30.3263 3.16955 31.2125L0.276124 34.0917C0.0996103 34.2675 0.000367221 34.5062 1.00991e-06 34.7552C-0.000365201 35.0046 0.0988779 35.2434 0.275025 35.4196L10.8955 46.0258ZM38.6264 3.5625V22.8695L35.9132 25.6747C35.2148 24.8167 34.1506 24.282 33.0011 24.282H22.1312C22.0711 24.282 22.006 24.2681 21.9404 24.2417C20.48 23.6462 18.9335 23.3445 17.3445 23.3445C17.0306 23.3445 16.7179 23.3558 16.407 23.3763V3.5625H38.6264ZM15.6035 25.3429C17.5001 25.0686 19.3967 25.2297 21.2362 25.9794C21.5284 26.0973 21.8298 26.1573 22.1312 26.1573H33.0011C34.0177 26.1573 34.8761 26.9865 34.8761 28.0323C34.8761 29.0662 34.0349 29.9073 33.0011 29.9073H24.8445C24.327 29.9073 23.907 30.327 23.907 30.8448C23.907 31.3627 24.327 31.7823 24.8445 31.7823H33.0011C35.0691 31.7823 36.7511 30.1 36.7511 28.0323C36.7511 27.8668 36.739 27.7024 36.7177 27.5402C36.9133 27.3398 42.58 21.479 42.7763 21.2758C42.7906 21.2607 42.8049 21.2454 42.8181 21.2296C43.486 20.4408 44.6722 20.3412 45.4614 21.0062C46.2513 21.6738 46.3513 22.8593 45.6796 23.6539L37.3092 33.7057C36.082 34.8842 34.4707 35.5323 32.7667 35.5323H20.4232C18.7991 35.5323 17.2602 36.1534 16.0891 37.2825L15.6756 37.6816C15.5101 37.4271 15.3175 37.1895 15.1 36.9723L9.34167 31.214C9.03405 30.9064 8.68505 30.6508 8.30749 30.449C9.73974 27.624 12.2981 25.8234 15.6035 25.3429V25.3429ZM4.49414 32.5397C5.47924 31.5531 7.05358 31.5773 8.01562 32.54L13.7746 38.2987C14.74 39.2622 14.7572 40.8384 13.7743 41.8202L11.5572 44.0369L2.26538 34.7574L4.49414 32.5397Z" fill="white"/>
</g>
<defs>
<clipPath id="clip0">
<rect width="48" height="48" fill="white"/>
</clipPath>
</defs>
</svg>
