<svg width="16" height="16" viewBox="0 0 16 16" fill="none" xmlns="http://www.w3.org/2000/svg">
<path d="M14.0468 2H1.95655C0.877301 2 0 2.8773 0 3.95655V12.2197C0 13.299 0.877301 14.1763 1.95655 14.1763H14.0434C15.1227 14.1763 16 13.299 16 12.2197V3.95986C16.0033 2.88061 15.126 2 14.0468 2ZM15.1094 12.2197C15.1094 12.8057 14.6327 13.2824 14.0468 13.2824H1.95655C1.37058 13.2824 0.893854 12.8057 0.893854 12.2197V3.95986C0.893854 3.37389 1.37058 2.89716 1.95655 2.89716H14.0434C14.6294 2.89716 15.1061 3.37389 15.1061 3.95986V12.2197H15.1094Z" fill="#828282"/>
<path d="M10.0906 7.98544L14.0037 4.47623C14.1858 4.3107 14.2023 4.0293 14.0368 3.84391C13.8713 3.66183 13.5899 3.64528 13.4045 3.81081L8.00825 8.65417L6.95549 7.71397C6.95218 7.71066 6.94887 7.70735 6.94887 7.70404C6.9257 7.68086 6.90252 7.661 6.87604 7.64114L2.59216 3.8075C2.40677 3.64197 2.12537 3.65852 1.95984 3.84391C1.79431 4.0293 1.81086 4.3107 1.99626 4.47623L5.9557 8.01523L2.01281 11.7065C1.83404 11.8754 1.82411 12.1568 1.99294 12.3388C2.08233 12.4315 2.20151 12.4812 2.32069 12.4812C2.42994 12.4812 2.53919 12.4415 2.62526 12.362L6.62774 8.61776L7.71361 9.58775C7.79969 9.6639 7.90563 9.70031 8.01156 9.70031C8.1175 9.70031 8.22675 9.66059 8.30952 9.58444L9.42518 8.58465L13.4045 12.3653C13.4906 12.4481 13.6031 12.4878 13.7124 12.4878C13.8315 12.4878 13.9474 12.4415 14.0368 12.3488C14.2056 12.17 14.199 11.8853 14.0203 11.7164L10.0906 7.98544Z" fill="#828282"/>
</svg>
