<svg width="20" height="20" viewBox="0 0 20 20" fill="none" xmlns="http://www.w3.org/2000/svg">
<path d="M17.0711 2.92891C15.1823 1.04016 12.6711 0 10 0C7.32891 0 4.81766 1.04016 2.92891 2.92891C1.0402 4.81766 0 7.32891 0 10C0 12.6711 1.0402 15.1823 2.92891 17.0711C4.81766 18.9598 7.32891 20 10 20C12.6711 20 15.1823 18.9598 17.0711 17.0711C18.9598 15.1823 20 12.6711 20 10C20 7.32891 18.9598 4.81766 17.0711 2.92891ZM10 18.8281C5.13215 18.8281 1.17188 14.8679 1.17188 10C1.17188 5.13215 5.13215 1.17188 10 1.17188C14.8679 1.17188 18.8281 5.13215 18.8281 10C18.8281 14.8679 14.8679 18.8281 10 18.8281Z" fill="#EE7D22"/>
<path d="M10.6278 9.41402H9.37253C8.65741 9.41402 8.07565 8.83227 8.07565 8.11719C8.07565 7.40207 8.65745 6.82031 9.37253 6.82031H11.883C12.2066 6.82031 12.4689 6.55797 12.4689 6.23438C12.4689 5.91078 12.2066 5.64844 11.883 5.64844H10.5861V4.35156C10.5861 4.02797 10.3237 3.76562 10.0001 3.76562C9.67655 3.76562 9.41421 4.02797 9.41421 4.35156V5.64844H9.37257C8.01127 5.64844 6.90381 6.75594 6.90381 8.11719C6.90381 9.47844 8.01131 10.5859 9.37257 10.5859H10.6278C11.3429 10.5859 11.9246 11.1677 11.9246 11.8828C11.9246 12.5979 11.3429 13.1796 10.6278 13.1796H8.11737C7.79377 13.1796 7.53143 13.442 7.53143 13.7656C7.53143 14.0892 7.79377 14.3515 8.11737 14.3515H9.41421V15.6484C9.41421 15.972 9.67655 16.2344 10.0001 16.2344C10.3237 16.2344 10.5861 15.972 10.5861 15.6484V14.3515H10.6278C11.989 14.3515 13.0965 13.244 13.0965 11.8828C13.0965 10.5215 11.989 9.41402 10.6278 9.41402Z" fill="#EE7D22"/>
</svg>
