<svg width="80" height="80" viewBox="0 0 80 80" fill="none" xmlns="http://www.w3.org/2000/svg">
<path d="M40 0.00777871C18.382 -0.41843 0.493594 16.723 0 38.3373C0.0564063 49.3399 4.92875 59.766 13.3333 66.8678V78.3334C13.3333 79.2538 14.0795 80 15 80C15.3123 80 15.6184 79.9122 15.8833 79.7467L25.1733 73.944C29.9064 75.7542 34.9325 76.6772 40 76.667C61.618 77.0932 79.5064 59.9518 80 38.3375C79.5064 16.723 61.618 -0.41843 40 0.00777871Z" fill="#EE7D22"/>
<path d="M66.3331 27.3385C65.8372 26.6739 64.9279 26.475 64.1998 26.8718L46.8666 36.3209L36.0833 27.0751C35.4221 26.5082 34.4358 26.5459 33.82 27.1618L13.8201 47.1598C13.1712 47.8125 13.1743 48.8678 13.8273 49.5166C14.3493 50.0354 15.1498 50.1504 15.7968 49.7995L33.13 40.3505L43.9233 49.5995C44.5845 50.1664 45.5708 50.1287 46.1866 49.5128L66.1865 29.5148C66.7693 28.9266 66.8318 27.9997 66.3331 27.3385Z" fill="#FAFAFA"/>
</svg>
