<svg width="20" height="20" viewBox="0 0 20 20" fill="none" xmlns="http://www.w3.org/2000/svg">
<g clip-path="url(#clip0)">
<path d="M17.8448 0H13.217C12.2011 0 10.8424 0.562744 10.1242 1.28113L0.629272 10.7759C0.223389 11.1816 0 11.7227 0 12.2997C0 12.8766 0.223541 13.4177 0.629272 13.8234L6.17645 19.3707C6.58218 19.7765 7.12326 20 7.7002 20C8.27698 20 8.81821 19.7765 9.22409 19.3707L18.7189 9.87579C19.4373 9.15756 20 7.79892 20 6.78299V2.15485C19.9998 0.966644 19.0331 0 17.8448 0ZM18.8281 6.78299C18.8281 7.48962 18.3899 8.54767 17.8903 9.04724L8.39539 18.542C8.21091 18.7265 7.96402 18.8281 7.7002 18.8281C7.43637 18.8281 7.18964 18.7265 7.00516 18.5422L1.45798 12.9947C1.2735 12.8102 1.17188 12.5633 1.17188 12.2997C1.17188 12.0358 1.27335 11.7889 1.45782 11.6046L10.9528 2.10968C11.4523 1.61011 12.5104 1.17188 13.217 1.17188H17.8448C18.387 1.17188 18.828 1.61285 18.8281 2.15485V6.78299Z" fill="#333333"/>
<path d="M5.44206 12.949C5.22905 12.7361 5.2823 12.4255 5.60167 12.1058C5.97459 11.733 6.24528 11.7995 6.38292 11.6621C6.54267 11.5023 6.40947 11.227 6.30738 11.1251C6.01442 10.8321 5.37095 11.3514 5.10911 11.6132C4.59871 12.1236 4.25706 12.918 4.91823 13.5793C5.97001 14.6311 7.19056 13.0024 7.8563 13.6681C8.12257 13.9344 8.01164 14.2849 7.74537 14.5513C7.29264 15.0039 6.83106 14.782 6.64918 14.9639C6.51155 15.1015 6.58265 15.4034 6.70686 15.5277C6.96427 15.7851 7.70097 15.6342 8.28233 15.0527C8.89481 14.4404 9.01017 13.668 8.37556 13.0334C7.22611 11.8841 5.99229 13.4995 5.44206 12.949Z" fill="#333333"/>
<path d="M11.646 11.0406L7.99776 9.10568C7.82473 9.01245 7.59829 9.11453 7.42968 9.2833C7.2655 9.44733 7.16341 9.67377 7.25665 9.84695L9.19161 13.495C9.20488 13.5171 9.21831 13.5393 9.22716 13.5483C9.36922 13.6902 9.67547 13.5792 9.83065 13.4239C9.9283 13.3264 9.97286 13.2197 9.9106 13.1132L9.489 12.3544L10.5054 11.338L11.2642 11.7598C11.3709 11.8217 11.4772 11.7775 11.5749 11.6798C11.7302 11.5245 11.8367 11.2137 11.6991 11.0762C11.686 11.0629 11.6681 11.0539 11.646 11.0406ZM9.15621 11.7819L8.1798 10.0331L9.92846 11.0097L9.15621 11.7819Z" fill="#333333"/>
<path d="M13.3987 8.84407L12.3158 9.92698L9.7551 7.3661C9.63074 7.2419 9.43116 7.33513 9.2891 7.47703C9.14277 7.62352 9.05381 7.81883 9.17817 7.94319L12.0628 10.828C12.1828 10.9478 12.3691 10.8857 12.4979 10.7569L13.9047 9.35005C14.0201 9.23469 13.9491 9.04823 13.8248 8.92402C13.6961 8.79524 13.5142 8.72856 13.3987 8.84407Z" fill="#333333"/>
<path d="M15.72 6.52315L14.464 7.7791L13.572 6.88707L14.2466 6.21248C14.3708 6.08828 14.3087 5.91066 14.2066 5.80858C14.0868 5.6888 13.9092 5.64455 13.7938 5.75991L13.1193 6.43435L12.2317 5.54674L13.4876 4.29094C13.603 4.17543 13.5497 3.98912 13.4122 3.85149C13.2923 3.73171 13.106 3.6606 12.9816 3.78481L11.4017 5.36486C11.2731 5.49349 11.2108 5.67995 11.3308 5.79973L14.2112 8.67998C14.331 8.79992 14.5173 8.73781 14.6461 8.60903L16.2259 7.02913C16.3503 6.90493 16.2792 6.71846 16.1594 6.59868C16.0218 6.46105 15.8353 6.40779 15.72 6.52315Z" fill="#333333"/>
<path d="M16.3076 3.14062C16.1534 3.14062 16.0021 3.20319 15.8932 3.31213C15.7842 3.42108 15.7217 3.5723 15.7217 3.72656C15.7217 3.88098 15.7842 4.03174 15.8932 4.14069C16.0021 4.25009 16.1534 4.3125 16.3076 4.3125C16.4619 4.3125 16.6126 4.25009 16.7217 4.14069C16.831 4.03174 16.8936 3.88052 16.8936 3.72656C16.8936 3.5723 16.831 3.42108 16.7217 3.31213C16.6126 3.20319 16.4619 3.14062 16.3076 3.14062Z" fill="#333333"/>
</g>
<defs>
<clipPath id="clip0">
<rect width="20" height="20" fill="white"/>
</clipPath>
</defs>
</svg>
