<svg width="20" height="20" viewBox="0 0 20 20" fill="none" xmlns="http://www.w3.org/2000/svg">
<g clip-path="url(#clip0)">
<path d="M18.7897 7.87287L16.7506 6.24159V2.68725C16.7506 2.37634 16.499 2.12476 16.1881 2.12476H13.9392C13.6288 2.12476 13.3767 2.37634 13.3767 2.68669L13.3761 3.54198L10.3521 1.12278C10.1466 0.959074 9.85438 0.959074 9.64896 1.12278L1.21132 7.87291C1.0251 8.02232 0.95315 8.27338 1.03225 8.49857C1.11134 8.7238 1.32396 8.87485 1.56288 8.87485H3.25038V18.4375C3.25038 18.7484 3.50196 19 3.81288 19H16.1881C16.499 19 16.7506 18.7484 16.7506 18.4375V8.87485H18.4381C18.6771 8.87485 18.8897 8.7238 18.9687 8.49857C19.0478 8.27334 18.9759 8.02232 18.7897 7.87287ZM14.5005 4.37534L14.5011 3.24979H15.6256V5.34163L14.4177 4.3753C14.4177 4.37526 14.5005 4.37534 14.5005 4.37534ZM8.87548 17.8749V13.3749H11.1255V17.8749H8.87548ZM16.1881 7.74981C15.8772 7.74981 15.6256 8.00139 15.6256 8.31231V17.8749H12.2506V12.8124C12.2506 12.5015 11.999 12.2499 11.6881 12.2499H8.31302C8.00211 12.2499 7.75052 12.5015 7.75052 12.8124V17.8749H4.37541V8.31231C4.37541 8.00139 4.12383 7.74981 3.81292 7.74981H3.16633L10.0005 2.28243L16.8346 7.74985C16.8346 7.74981 16.1881 7.74981 16.1881 7.74981Z" fill="#4F4F4F"/>
</g>
<defs>
<clipPath id="clip0">
<rect x="1" y="1" width="18" height="18" fill="white"/>
</clipPath>
</defs>
</svg>
