<?xml version="1.0" encoding="UTF-8"?>
<svg width="44px" height="28px" viewBox="0 0 44 28" version="1.1" xmlns="http://www.w3.org/2000/svg" xmlns:xlink="http://www.w3.org/1999/xlink">
    <title>AF17ED18-5837-46B6-AE3E-36A8F41C448B</title>
    <g id="Symbols" stroke="none" stroke-width="1" fill="none" fill-rule="evenodd">
        <g id="_Assets/Icons/Payment-Method/ic_credit-card_payment-method/Light-Mode" fill="#4A4A4A">
            <path d="M37.4125874,28 C38.9168609,28 40.0574981,27.6077653 40.8344988,26.8232958 C41.6114996,26.0388264 42,24.9115376 42,23.4414295 L42,4.55857048 C42,3.07610854 41.6114996,1.9457313 40.8344988,1.16743878 C40.0574981,0.389146261 38.9168609,0 37.4125874,0 L6.60606061,0 C5.08935509,0 3.94250194,0.382969336 3.16550117,1.14890801 C2.38850039,1.91484668 2,3.05140084 2,4.55857048 L2,23.4414295 C2,24.9362453 2.38850039,26.069711 3.16550117,26.8418266 C3.94250194,27.6139422 5.08935509,28 6.60606061,28 L37.4125874,28 Z M40.973265,5.43105864 L3.024,5.43105864 L3.02564103,4.59563203 C3.02564103,3.40966248 3.33022533,2.51400838 3.93939394,1.90866976 C4.54856255,1.30333113 5.44988345,1.00066181 6.64335664,1.00066181 L37.3566434,1.00066181 C38.5003885,1.00066181 39.3892774,1.30333113 40.02331,1.90866976 C40.6573427,2.51400838 40.974359,3.40966248 40.974359,4.59563203 L40.973265,5.43105864 Z M37.3566434,26.9993382 L6.64335664,26.9993382 C5.44988345,26.9993382 4.54856255,26.6935804 3.93939394,26.0820649 C3.33022533,25.4705493 3.02564103,24.5718068 3.02564103,23.3858372 L3.024,9.22869129 L40.973265,9.22869129 L40.974359,23.3858372 C40.974359,24.5718068 40.6573427,25.4705493 40.02331,26.0820649 C39.3892774,26.6935804 38.5003885,26.9993382 37.3566434,26.9993382 Z M13.039627,23.0152217 C13.5617716,23.0152217 13.981352,22.8607986 14.2983683,22.5519523 C14.6153846,22.2431061 14.7738928,21.841606 14.7738928,21.347452 L14.7738928,18.1045665 C14.7738928,17.6104125 14.6153846,17.205824 14.2983683,16.8908008 C13.981352,16.5757776 13.5617716,16.418266 13.039627,16.418266 L8.73193473,16.418266 C8.22222222,16.418266 7.80885781,16.5757776 7.49184149,16.8908008 C7.17482517,17.205824 7.01631702,17.6104125 7.01631702,18.1045665 L7.01631702,21.347452 C7.01631702,21.841606 7.17482517,22.2431061 7.49184149,22.5519523 C7.80885781,22.8607986 8.22222222,23.0152217 8.73193473,23.0152217 L13.039627,23.0152217 Z" id="ô€¯"></path>
        </g>
    </g>
</svg>