<svg width="20" height="20" viewBox="0 0 20 20" fill="none" xmlns="http://www.w3.org/2000/svg">
<path d="M16.375 11.5H12.25V5.87499C12.25 5.66771 12.0823 5.49998 11.875 5.49998V2.125C11.875 1.48375 11.069 1 10 1C8.93104 1 8.12501 1.48375 8.12501 2.125V5.49998C7.91773 5.49998 7.75 5.66771 7.75 5.87499V11.5H3.62501C2.17773 11.5 1 12.6777 1 14.1249V16.7499C1 17.429 1.45615 17.9973 2.07617 18.1815L2.25905 18.7414C2.30922 18.8956 2.45311 18.9999 2.61536 18.9999C2.77761 18.9999 2.92115 18.8959 2.97167 18.7417L3.10709 18.3285L3.24269 18.7417C3.29324 18.8959 3.43714 18.9999 3.599 18.9999C3.76124 18.9999 3.90478 18.8956 3.9553 18.7417L4.09027 18.3299L4.22485 18.7414C4.27502 18.8955 4.41895 18.9999 4.58116 18.9999C4.7434 18.9999 4.8873 18.8955 4.93746 18.7414L5.07187 18.3305L5.20627 18.7414C5.25644 18.8955 5.40037 18.9999 5.56258 18.9999C5.72479 18.9999 5.86872 18.8955 5.91889 18.7414L6.05364 18.3294L6.18878 18.7417C6.23934 18.8955 6.38288 18.9999 6.54509 18.9999C6.70695 18.9999 6.85088 18.8959 6.9014 18.7421L7.03735 18.3284L7.17277 18.7417C7.22332 18.8959 7.36687 18.9999 7.52908 18.9999H7.52943C7.69168 18.9999 7.83522 18.8955 7.88574 18.7414L8.01789 18.3361L8.14976 18.741C8.20032 18.8956 8.34421 18.9999 8.50646 18.9999C8.6687 18.9999 8.8126 18.8956 8.86315 18.741L8.99499 18.3362L9.12682 18.741C9.17738 18.8956 9.32092 18.9999 9.48352 18.9999C9.64577 18.9999 9.78966 18.8956 9.83983 18.7414L9.97405 18.3305L10.109 18.7417C10.1596 18.8959 10.3031 18.9999 10.4653 18.9999C10.6272 18.9999 10.7708 18.8959 10.8216 18.7421L10.9582 18.3271L11.0941 18.7418C11.1447 18.8959 11.2882 19 11.4504 19C11.6127 19 11.7562 18.896 11.8067 18.7418L11.9419 18.3293L12.077 18.7418C12.1276 18.8956 12.2711 19 12.433 19H12.4333C12.5952 19 12.7387 18.896 12.7896 18.7425L12.9272 18.325L13.0643 18.7422C13.1148 18.896 13.2584 19 13.4206 19C13.5824 19 13.726 18.896 13.7769 18.7422L13.9145 18.324L14.0526 18.7425C14.1032 18.8963 14.2467 19 14.4086 19C14.5705 19 14.7144 18.896 14.7649 18.7422L14.9022 18.3249L15.0395 18.7422C15.0904 18.896 15.234 19 15.3959 19C15.5581 19 15.7016 18.896 15.7522 18.7422L15.8897 18.3237L16.0279 18.7426C16.0784 18.896 16.222 19 16.3838 19C16.5457 19 16.6893 18.8964 16.7398 18.7426L16.8802 18.3179L17.0214 18.7433C17.0723 18.8964 17.2159 19 17.3774 19C17.5389 19 17.6824 18.8964 17.7334 18.7429L17.919 18.183C18.5416 18.0002 19 17.4307 19 16.7499V14.1249C19 12.6777 17.8223 11.5 16.375 11.5ZM10 1.74999C10.7258 1.74999 11.125 2.03159 11.125 2.125C11.125 2.21841 10.7258 2.50001 10 2.50001C9.27416 2.50001 8.875 2.21837 8.875 2.125C8.875 2.03162 9.27416 1.74999 10 1.74999ZM8.875 3.03269C9.1849 3.16857 9.56905 3.24999 10 3.24999C10.4309 3.24999 10.8151 3.16857 11.125 3.03269V6.61123C10.8499 6.84745 10.4502 6.99995 10 6.99995C9.54982 6.99995 9.15013 6.84741 8.875 6.61123V3.03269ZM8.49999 7.27132C8.89845 7.56871 9.42432 7.74997 10 7.74997C10.5757 7.74997 11.1016 7.56871 11.5 7.27132V13.375C11.5 13.9953 10.8273 14.4999 10 14.4999C9.1727 14.4999 8.49999 13.9953 8.49999 13.375V7.27132ZM18.25 16.7499C18.25 17.1634 17.9135 17.4999 17.5 17.4999H2.50001C2.08657 17.4999 1.75002 17.1634 1.75002 16.7499V14.1249C1.74999 13.0911 2.59117 12.25 3.62501 12.25H7.75V13.375C7.75 14.4088 8.75927 15.2499 10 15.2499C11.2407 15.2499 12.25 14.4088 12.25 13.375V12.25H16.375C17.4088 12.25 18.25 13.0911 18.25 14.1249V16.7499H18.25Z" fill="#4F4F4F"/>
</svg>
