<svg width="86" height="86" viewBox="0 0 86 86" fill="none" xmlns="http://www.w3.org/2000/svg">
<circle cx="43" cy="43" r="42.5" stroke="#FFAB1B"/>
<rect x="20.2002" y="33.4" width="45.6" height="27.6" rx="4" stroke="#FFAB1B" stroke-width="2"/>
<path d="M43 26.2L53.3923 33.4H32.6077L43 26.2Z" stroke="#FFAB1B" stroke-width="2"/>
<path d="M28.4879 42.8906L29.8307 48.0322L31.1686 42.8906H33.0436V50H31.6031V48.0762L31.735 45.1123L30.3141 50H29.3375L27.9166 45.1123L28.0484 48.0762V50H26.6129V42.8906H28.4879ZM39.1959 46.6064C39.1959 47.3031 39.0885 47.915 38.8736 48.4424C38.662 48.9697 38.3577 49.3783 37.9605 49.668C37.5634 49.9544 37.1093 50.0977 36.5982 50.0977C36.0937 50.0977 35.6428 49.9561 35.2457 49.6729C34.8486 49.3896 34.541 48.986 34.3229 48.4619C34.1048 47.9378 33.9941 47.334 33.9908 46.6504V46.2939C33.9908 45.6038 34.0982 44.9935 34.3131 44.4629C34.5279 43.929 34.8323 43.5173 35.2262 43.2275C35.6233 42.9378 36.0774 42.793 36.5885 42.793C37.3404 42.793 37.9557 43.0924 38.4342 43.6914C38.5872 43.6133 38.693 43.4587 38.7516 43.2275C38.8102 42.9964 38.8395 42.7051 38.8395 42.3535H39.7574C39.7574 43.4408 39.4531 44.1211 38.8443 44.3945C39.0722 44.9219 39.1894 45.5355 39.1959 46.2354V46.6064ZM37.7408 46.2842C37.7408 45.5387 37.6399 44.974 37.4381 44.5898C37.2395 44.2057 36.9563 44.0137 36.5885 44.0137C36.2206 44.0137 35.9374 44.2025 35.7389 44.5801C35.5436 44.9577 35.4443 45.5143 35.441 46.25V46.6064C35.441 47.3454 35.5403 47.9102 35.7389 48.3008C35.9407 48.6914 36.2271 48.8867 36.5982 48.8867C36.9661 48.8867 37.2477 48.6947 37.443 48.3105C37.6383 47.9264 37.7376 47.3698 37.7408 46.6406V46.2842ZM36.0953 42.2998L36.0172 41.6455C36.2027 41.6325 36.3362 41.6032 36.4176 41.5576C36.499 41.5088 36.5396 41.4323 36.5396 41.3281C36.5396 41.1979 36.4941 41.11 36.4029 41.0645C36.315 41.0189 36.1913 40.9961 36.0318 40.9961L36.0611 40.3271C36.608 40.3271 37.0165 40.4134 37.2867 40.5859C37.5602 40.7552 37.6969 40.9863 37.6969 41.2793C37.6969 41.4616 37.6464 41.6162 37.5455 41.7432C37.4479 41.8669 37.3063 41.9466 37.1207 41.9824V42.2998H36.0953ZM47.4088 47.6318C47.373 48.4424 47.1451 49.056 46.7252 49.4727C46.3053 49.8893 45.7128 50.0977 44.9479 50.0977C44.1438 50.0977 43.527 49.834 43.0973 49.3066C42.6708 48.776 42.4576 48.0208 42.4576 47.041V45.8447C42.4576 44.8682 42.679 44.1162 43.1217 43.5889C43.5644 43.0583 44.1796 42.793 44.9674 42.793C45.7421 42.793 46.3297 43.0094 46.7301 43.4424C47.1337 43.8753 47.3632 44.4971 47.4186 45.3076H45.9781C45.9651 44.8063 45.887 44.4613 45.7438 44.2725C45.6038 44.0804 45.345 43.9844 44.9674 43.9844C44.5833 43.9844 44.3115 44.1195 44.152 44.3896C43.9924 44.6566 43.9078 45.0977 43.898 45.7129V47.0557C43.898 47.762 43.9762 48.2471 44.1324 48.5107C44.2919 48.7744 44.5637 48.9062 44.9479 48.9062C45.3255 48.9062 45.5859 48.8151 45.7291 48.6328C45.8723 48.4473 45.9537 48.1136 45.9732 47.6318H47.4088ZM52.9166 42.8906V43.999C53.1184 43.9762 53.273 43.9193 53.3805 43.8281C53.4879 43.7337 53.566 43.597 53.6148 43.418C53.6637 43.2389 53.6881 42.9313 53.6881 42.4951H54.5865C54.5865 43.2764 54.4547 43.8444 54.191 44.1992C53.9273 44.554 53.5025 44.7461 52.9166 44.7754V47.6074C52.9101 48.3822 52.6985 48.9909 52.2818 49.4336C51.8652 49.8763 51.2988 50.0977 50.5826 50.0977C49.86 50.0977 49.2887 49.8779 48.8688 49.4385C48.4521 48.9958 48.2405 48.387 48.234 47.6123V42.8906H49.6793V47.6758C49.6988 48.4961 49.9999 48.9062 50.5826 48.9062C51.162 48.9062 51.4615 48.4961 51.4811 47.6758V42.8906H52.9166ZM50.2848 42.2559L50.2066 41.6016C50.3922 41.5885 50.5257 41.5592 50.607 41.5137C50.6884 41.4648 50.7291 41.3883 50.7291 41.2842C50.7291 41.154 50.6835 41.0661 50.5924 41.0205C50.5045 40.9749 50.3808 40.9521 50.2213 40.9521L50.2506 40.2832C50.7975 40.2832 51.206 40.3695 51.4762 40.542C51.7496 40.7113 51.8863 40.9424 51.8863 41.2354C51.8863 41.4176 51.8359 41.5723 51.735 41.6992C51.6373 41.8229 51.4957 41.9027 51.3102 41.9385V42.2559H50.2848ZM57.9459 48.5449H55.9879L55.607 50H54.0885L56.3102 42.8906H57.6236L59.86 50H58.3268L57.9459 48.5449ZM56.3004 47.3486H57.6285L56.9645 44.8145L56.3004 47.3486Z" fill="#FFAB1B"/>
<ellipse cx="42.9996" cy="25" rx="2.4" ry="2.4" fill="#FFAB1B"/>
</svg>
