<svg width="20" height="20" viewBox="0 0 20 20" fill="none" xmlns="http://www.w3.org/2000/svg">
<g clip-path="url(#clip0)">
<path d="M16.7316 12.4721C17.5673 11.2029 18.0545 9.68475 18.0545 8.05466C18.0545 3.61328 14.4411 0 9.99969 0C5.55832 0 1.94504 3.61328 1.94504 8.05466C1.94504 9.68475 2.43225 11.2029 3.26782 12.4721L0.117188 17.067L3.72238 16.3948L4.39468 20L7.36588 15.6667C8.19168 15.9532 9.07776 16.1093 9.99969 16.1093C10.9218 16.1093 11.8079 15.9532 12.6335 15.6667L15.6049 20L16.277 16.3948L19.8822 17.067L16.7316 12.4721ZM5.03174 16.9864L4.66507 15.0198L2.69867 15.3867L4.02557 13.4514C4.6611 14.1542 5.4187 14.7444 6.26434 15.1891L5.03174 16.9864ZM3.12378 8.05466C3.12378 4.26331 6.20834 1.17874 9.99969 1.17874C13.7912 1.17874 16.8758 4.26331 16.8758 8.05466C16.8758 11.8462 13.7912 14.9307 9.99969 14.9307C6.20834 14.9307 3.12378 11.8462 3.12378 8.05466ZM15.3343 15.0198L14.9677 16.9864L13.7352 15.1891C14.5808 14.7444 15.3384 14.1542 15.974 13.4514L17.3009 15.3865L15.3343 15.0198Z" fill="#EE7D22"/>
<path d="M8.5639 9.82321L6.6474 7.90686L5.81396 8.7403L8.5639 11.4902L14.1857 5.86859L13.3523 5.03516L8.5639 9.82321Z" fill="#EE7D22"/>
</g>
<defs>
<clipPath id="clip0">
<rect width="20" height="20" fill="white"/>
</clipPath>
</defs>
</svg>
