<svg width="20" height="20" viewBox="0 0 20 20" fill="none" xmlns="http://www.w3.org/2000/svg">
<g clip-path="url(#clip0)">
<path d="M18.4956 5.42553L18.495 5.40997C18.4863 5.21786 18.4805 5.01461 18.477 4.78848C18.4606 3.68573 17.584 2.77356 16.4811 2.71191C14.1816 2.58359 12.4028 1.83377 10.8828 0.352302L10.8699 0.339942C10.3741 -0.114616 9.62628 -0.114616 9.13037 0.339942L9.1174 0.352302C7.59748 1.83377 5.81861 2.58359 3.51912 2.71207C2.41637 2.77356 1.5396 3.68573 1.52328 4.78863C1.51992 5.01324 1.51397 5.21649 1.50527 5.40997L1.50436 5.44613C1.45965 7.79094 1.40411 10.7092 2.38036 13.3579C2.91716 14.8145 3.73015 16.0807 4.79658 17.1215C6.01118 18.3068 7.60206 19.2478 9.52496 19.9183C9.58752 19.9401 9.65253 19.9578 9.71875 19.9711C9.81213 19.9897 9.90613 19.999 10.0001 19.999C10.0941 19.999 10.1883 19.9897 10.2815 19.9711C10.3477 19.9578 10.4132 19.94 10.476 19.918C12.3967 19.2463 13.9859 18.3048 15.1994 17.1197C16.2654 16.0786 17.0783 14.8121 17.6156 13.3552C18.5955 10.6985 18.5401 7.77477 18.4956 5.42553ZM16.5145 12.9492C15.4849 15.7409 13.383 17.6582 10.0888 18.8102C10.077 18.8142 10.0645 18.8177 10.0515 18.8203C10.0175 18.827 9.98288 18.827 9.94839 18.8201C9.93558 18.8175 9.92306 18.8142 9.91147 18.8102C6.61375 17.6603 4.51048 15.7441 3.48159 12.9522C2.58178 10.5107 2.63274 7.83183 2.67775 5.46856L2.67806 5.45544C2.68721 5.25234 2.69332 5.03964 2.69668 4.80587C2.704 4.31622 3.09401 3.9111 3.58458 3.88379C4.88585 3.81115 6.02903 3.55969 7.07944 3.11505C8.12848 2.67102 9.06018 2.04511 9.92749 1.2016C9.97159 1.16437 10.0288 1.16422 10.0728 1.2016C10.9402 2.04511 11.8719 2.67102 12.9208 3.11505C13.9712 3.55969 15.1144 3.81115 16.4158 3.88379C16.9064 3.9111 17.2964 4.31622 17.3036 4.80602C17.3071 5.04101 17.3132 5.25372 17.3223 5.45544C17.3672 7.82146 17.4169 10.5024 16.5145 12.9492Z" fill="#EE7D22"/>
<path d="M9.99991 5.01562C7.2515 5.01562 5.01562 7.25165 5.01562 9.99991C5.01562 12.7483 7.2515 14.9843 9.99991 14.9843C12.7482 14.9843 14.9842 12.7483 14.9842 9.99991C14.9842 7.25165 12.7482 5.01562 9.99991 5.01562ZM9.99991 13.8106C7.89862 13.8106 6.18918 12.1012 6.18918 9.99991C6.18918 7.89862 7.89862 6.18918 9.99991 6.18918C12.101 6.18918 13.8105 7.89862 13.8105 9.99991C13.8105 12.1012 12.101 13.8106 9.99991 13.8106Z" fill="#EE7D22"/>
<path d="M11.4324 8.45325L9.11736 10.7683L8.48901 10.14C8.25982 9.91077 7.88827 9.91077 7.65908 10.14C7.43005 10.3691 7.43005 10.7407 7.65908 10.9697L8.70248 12.0131C8.81707 12.1277 8.96722 12.1849 9.11736 12.1849C9.26751 12.1849 9.41766 12.1277 9.53225 12.0131L12.2624 9.28303C12.4914 9.05384 12.4914 8.68229 12.2624 8.45325C12.0332 8.22392 11.6616 8.22392 11.4324 8.45325Z" fill="#EE7D22"/>
</g>
<defs>
<clipPath id="clip0">
<rect width="20" height="20" fill="white"/>
</clipPath>
</defs>
</svg>
