<svg width="86" height="86" viewBox="0 0 86 86" fill="none" xmlns="http://www.w3.org/2000/svg">
<circle cx="43" cy="43" r="42.5" stroke="#FFAB1B"/>
<path d="M53 61V57C53 54.8783 52.1571 52.8434 50.6569 51.3431C49.1566 49.8429 47.1217 49 45 49H29C26.8783 49 24.8434 49.8429 23.3431 51.3431C21.8429 52.8434 21 54.8783 21 57V61" stroke="#FFAB1B" stroke-width="2" stroke-linecap="round" stroke-linejoin="round"/>
<path d="M37 41C41.4183 41 45 37.4183 45 33C45 28.5817 41.4183 25 37 25C32.5817 25 29 28.5817 29 33C29 37.4183 32.5817 41 37 41Z" stroke="#FFAB1B" stroke-width="2" stroke-linecap="round" stroke-linejoin="round"/>
<path d="M65 61V57C64.9987 55.2275 64.4087 53.5056 63.3227 52.1046C62.2368 50.7037 60.7163 49.7031 59 49.26" stroke="#FFAB1B" stroke-width="2" stroke-linecap="round" stroke-linejoin="round"/>
<path d="M51 25.26C52.7208 25.7006 54.2461 26.7014 55.3353 28.1046C56.4245 29.5078 57.0157 31.2337 57.0157 33.01C57.0157 34.7863 56.4245 36.5122 55.3353 37.9154C54.2461 39.3186 52.7208 40.3194 51 40.76" stroke="#FFAB1B" stroke-width="2" stroke-linecap="round" stroke-linejoin="round"/>
</svg>
