<svg width="20" height="20" viewBox="0 0 20 20" fill="none" xmlns="http://www.w3.org/2000/svg">
<g clip-path="url(#clip0)">
<path d="M11.1538 8.28473H12.6922C13.0108 8.28473 13.2692 8.0264 13.2692 7.70779C13.2692 7.38919 13.0108 7.13086 12.6922 7.13086H11.1538C10.8352 7.13086 10.5769 7.38919 10.5769 7.70779C10.5769 8.0264 10.8352 8.28473 11.1538 8.28473Z" fill="#EE7D22"/>
<path d="M19.4231 9.43817H15.1923V1.5535C15.1923 1.23489 14.9339 0.976562 14.6153 0.976562H5.38467C5.06607 0.976562 4.80774 1.23489 4.80774 1.5535V9.43817H0.576935C0.258331 9.43817 0 9.69635 0 10.015V18.4766C0 18.7952 0.258331 19.0535 0.576935 19.0535H19.4231C19.7417 19.0535 20 18.7952 20 18.4766V10.015C20 9.69635 19.7417 9.43817 19.4231 9.43817ZM13.6539 10.5919H15.5769V13.2843H13.6539V10.5919ZM10.9616 2.13043V4.82269H9.03839V2.13043H10.9616ZM5.96161 2.13043H7.88467V5.39963C7.88467 5.71823 8.14285 5.97656 8.46161 5.97656H11.5384C11.8571 5.97656 12.1153 5.71823 12.1153 5.39963V2.13043H14.0384V9.43817H5.96161V2.13043ZM6.15387 10.5919V13.2843H4.2308V10.5919H6.15387ZM1.15387 10.5919H3.07693V13.8612C3.07693 14.1798 3.33527 14.4382 3.65387 14.4382H6.7308C7.04941 14.4382 7.30774 14.1798 7.30774 13.8612V10.5919H9.42307V17.8996H1.15387V10.5919ZM18.8461 17.8996H10.5769V10.5919H12.5V13.8612C12.5 14.1798 12.7583 14.4382 13.0769 14.4382H16.1539C16.4725 14.4382 16.7308 14.1798 16.7308 13.8612V10.5919H18.8461V17.8996Z" fill="#EE7D22"/>
<path d="M15.9617 15.5918C15.6429 15.5918 15.3848 15.8501 15.3848 16.1687C15.3848 16.4873 15.6429 16.7457 15.9617 16.7457H17.5001C17.8187 16.7457 18.077 16.4873 18.077 16.1687C18.077 15.8501 17.8187 15.5918 17.5001 15.5918H15.9617Z" fill="#EE7D22"/>
<path d="M7.88477 15.5918H6.34622C6.02762 15.5918 5.76929 15.8501 5.76929 16.1687C5.76929 16.4873 6.02762 16.7457 6.34622 16.7457H7.88477C8.20337 16.7457 8.4617 16.4873 8.4617 16.1687C8.4617 15.8501 8.20337 15.5918 7.88477 15.5918Z" fill="#EE7D22"/>
</g>
<defs>
<clipPath id="clip0">
<rect width="20" height="20" fill="white"/>
</clipPath>
</defs>
</svg>
