<svg width="40" height="40" viewBox="0 0 40 40" fill="none" xmlns="http://www.w3.org/2000/svg">
<path d="M14.9998 15.8334C14.8415 15.8334 14.6865 15.7884 14.5515 15.7017C14.3632 15.5834 14.2348 15.3967 14.1865 15.1801C14.1382 14.9634 14.1782 14.7401 14.2982 14.5517C14.7865 13.7851 15.6198 13.3284 16.5265 13.3284C16.5732 13.3284 16.6215 13.3301 16.6682 13.3317C16.7132 13.3301 16.7582 13.3284 16.8032 13.3284C17.7132 13.3284 18.5482 13.7851 19.0365 14.5517C19.1565 14.7401 19.1965 14.9617 19.1482 15.1801C19.0998 15.3967 18.9698 15.5834 18.7832 15.7034C18.6482 15.7884 18.4932 15.8334 18.3332 15.8334C18.0465 15.8334 17.7832 15.6901 17.6298 15.4484C17.4515 15.1684 17.1332 14.995 16.7998 14.995C16.7765 14.995 16.6765 15.0001 16.6665 15.0001C16.6448 15.0001 16.5548 14.995 16.5315 14.995C16.1932 14.995 15.8832 15.1651 15.7032 15.4484C15.5482 15.6901 15.2865 15.8334 14.9998 15.8334Z" fill="white"/>
<path d="M25.0002 15.8334C24.7135 15.8334 24.4502 15.69 24.2968 15.4484C24.1152 15.165 23.8085 14.995 23.4735 14.995C23.4485 14.995 23.3452 15 23.3335 15C23.3118 15 23.2218 14.995 23.1985 14.995C22.8602 14.995 22.5502 15.165 22.3702 15.4484C22.2152 15.69 21.9535 15.8334 21.6668 15.8334C21.5085 15.8334 21.3535 15.7884 21.2185 15.7034C20.8318 15.4567 20.7168 14.94 20.9635 14.5534C21.4518 13.7867 22.2868 13.33 23.1968 13.33C23.2418 13.33 23.2885 13.3317 23.3335 13.3334C23.3785 13.3317 23.4235 13.33 23.4702 13.33C24.3802 13.33 25.2152 13.7867 25.7035 14.5534C25.9502 14.9417 25.8368 15.4567 25.4485 15.7034C25.3135 15.7884 25.1585 15.8334 25.0002 15.8334Z" fill="white"/>
<path d="M39.1667 40C38.7067 40 38.3333 39.6267 38.3333 39.1667V37.5C38.3333 35.0817 36.8117 32.8867 34.5483 32.0383L34.5167 32.0267C34.1083 31.885 30.78 30.7267 28.335 29.8883V33.8417C28.335 34.285 28.1633 34.705 27.8483 35.02C27.54 35.33 27.1067 35.5083 26.6617 35.5083C26.4833 35.5083 26.3083 35.48 26.1417 35.4233L20.8333 33.6567V39.1667C20.8333 39.6267 20.46 40 20 40C19.54 40 19.1667 39.6267 19.1667 39.1667V33.6567L13.86 35.4267C13.6933 35.4833 13.5183 35.5117 13.3383 35.5117C12.8933 35.5117 12.4617 35.3333 12.1517 35.0233C11.8383 34.7067 11.6667 34.2883 11.6667 33.8417V30.0233L5.42333 32.05C3.185 32.8883 1.66833 35.08 1.66667 37.5V39.1667C1.66667 39.6267 1.29333 40 0.833333 40C0.373333 40 0 39.6267 0 39.1667V37.5C0.00166667 34.3883 1.96 31.5667 4.875 30.4783L13.1067 27.805C13.3567 27.7217 13.6217 27.6783 13.89 27.6783C14.41 27.6783 14.9283 27.845 15.35 28.1467L20 31.475L24.8167 28.035C25.2417 27.73 25.745 27.5683 26.2733 27.5683C26.5433 27.5683 26.8117 27.6117 27.0667 27.6967L27.7367 27.9233C27.7517 27.9267 27.7933 27.94 27.8333 27.9583C30.1783 28.755 34.4917 30.2533 35.0533 30.4483L35.1133 30.4683C38.04 31.5683 40 34.3917 40 37.5V39.1667C40 39.6267 39.6267 40 39.1667 40ZM26.6667 33.845V29.3233L26.5367 29.28C26.45 29.2517 26.3617 29.2367 26.2717 29.2367C26.0983 29.2367 25.9267 29.2917 25.7867 29.3933L21.815 32.23L26.6667 33.845ZM13.3333 33.8433L18.185 32.2267L14.3767 29.5017C14.235 29.4 14.0617 29.345 13.8883 29.345C13.7983 29.345 13.7117 29.36 13.6267 29.3883L13.3333 29.4817V33.8433Z" fill="white"/>
<path d="M27 13.6667C26.605 13.6667 26.2616 13.385 26.1833 12.9983L25.7449 10.8217C22.2449 10.7 20.5316 9.63834 19.6933 8.585C18.8549 9.63834 17.1416 10.6983 13.6433 10.8217L13.2099 12.9967C13.1316 13.385 12.7883 13.6667 12.3916 13.6667C12.3383 13.6667 12.2833 13.6617 12.2283 13.65C12.0099 13.6067 11.8216 13.4817 11.6983 13.2967C11.5749 13.11 11.5316 12.8883 11.5749 12.67L12.1399 9.83667C12.2166 9.44834 12.5599 9.16667 12.9566 9.16667C15.9766 9.16667 17.4083 8.46334 18.0783 7.87167C18.7633 7.26667 18.7899 6.67667 18.7899 6.65167C18.7999 6.2 19.1749 5.83334 19.6233 5.83334H19.7633C20.2233 5.83334 20.5966 6.20667 20.5966 6.66667C20.5966 6.68167 20.6249 7.27167 21.3099 7.875C21.9799 8.46334 23.4116 9.16667 26.4299 9.16667C26.8249 9.16667 27.1699 9.44834 27.2466 9.835L27.8166 12.6683C27.9066 13.12 27.6133 13.56 27.1633 13.65C27.1083 13.6617 27.0533 13.6667 27 13.6667Z" fill="white"/>
<path d="M19.9667 28.3333C17.3117 28.3333 11.7151 25.2283 10.9001 20.3633C10.8551 20.0883 10.6751 19.8567 10.4217 19.7417C8.9784 19.0867 8.2934 17.3717 8.2684 16.055C8.25007 15.1217 8.5384 14.3167 9.06507 13.8C8.38507 9.23 9.0584 5.71167 11.0651 3.34167C12.9417 1.12333 15.9367 0 19.9667 0C23.9967 0 26.9917 1.12333 28.8684 3.34167C30.8034 5.62833 31.4967 8.98833 30.9301 13.3333H32.5001C34.3384 13.3333 35.8334 14.8283 35.8334 16.6667C35.8334 18.505 34.3384 20 32.5001 20H30.4001C28.6701 22.0917 26.0451 23.3333 23.3334 23.3333H20.8334C20.3734 23.3333 20.0001 22.96 20.0001 22.5C20.0001 22.04 20.3734 21.6667 20.8334 21.6667H23.3334C25.5817 21.6667 27.7517 20.6267 29.1667 18.8767V14.3783C29.1334 14.2583 29.1251 14.1417 29.1451 14.0283C29.8667 9.71833 29.3451 6.485 27.5967 4.41833C26.0517 2.59167 23.4851 1.66667 19.9667 1.66667C16.4501 1.66667 13.8817 2.59167 12.3367 4.41833C10.5867 6.485 10.0667 9.71833 10.7884 14.03C10.8484 14.3933 10.6684 14.7483 10.3401 14.9133C10.0834 15.04 9.9234 15.4767 9.93507 16.0233C9.95007 16.8383 10.3667 17.8867 11.1101 18.2233C11.8701 18.5683 12.4067 19.265 12.5451 20.0883C13.2217 24.13 17.9834 26.63 19.9267 26.6667C21.3534 26.5083 22.7101 25.9633 23.8501 25.0917C23.9967 24.98 24.1717 24.92 24.3567 24.92C24.6184 24.92 24.8601 25.04 25.0184 25.2483C25.1534 25.4233 25.2117 25.6433 25.1817 25.8633C25.1517 26.085 25.0384 26.28 24.8617 26.415C23.4651 27.4833 21.8034 28.145 20.0534 28.3283C20.0267 28.3317 19.9967 28.3333 19.9667 28.3333ZM32.5001 18.3333C33.4201 18.3333 34.1667 17.585 34.1667 16.6667C34.1667 15.7483 33.4201 15 32.5001 15H30.8334V18.3333H32.5001Z" fill="white"/>
</svg>
