<svg width="40" height="40" viewBox="0 0 40 40" fill="none" xmlns="http://www.w3.org/2000/svg">
<g clip-path="url(#clip0)">
<path d="M24.3617 40.0583C23.145 40.0583 22.0667 39.285 21.6767 38.1333L20.9783 36.2333C19.635 36.62 18.2533 36.8166 16.865 36.8166C15.6817 36.8166 14.4967 36.6733 13.3367 36.39L12.6867 38.15C12.6783 38.1749 12.66 38.225 12.6417 38.2733C12.21 39.355 11.175 40.0533 10.0067 40.0533C9.64833 40.0533 9.295 39.9849 8.96 39.8516C8.25667 39.57 7.705 39.0333 7.40667 38.3383C7.10833 37.6433 7.09833 36.8733 7.37833 36.17L8.205 33.9233C6.94167 32.86 5.935 31.5133 5.27167 30H4.16667C3.24833 30 2.5 29.2533 2.5 28.3333V23.3333C2.5 22.4133 3.24833 21.6666 4.16667 21.6666H5.28333C5.91167 20.3083 6.84833 19.1033 8.01 18.16V15C8.01167 14.815 8.04167 14.635 8.1 14.4633C8.245 14.0416 8.545 13.7033 8.945 13.5083C9.175 13.3966 9.42 13.3383 9.67333 13.3383C9.85833 13.3383 10.0417 13.37 10.2183 13.43C11.4183 13.8716 12.47 14.61 13.2817 15.575C14.4433 15.29 15.635 15.1466 16.8317 15.1466C23.5667 15.1466 29.0883 19.4833 29.62 25.0983C31.1983 24.8983 31.9983 24.075 31.9983 22.6466C31.9983 22.1866 32.3717 21.8133 32.8317 21.8133C33.2917 21.8133 33.665 22.1866 33.665 22.6466C33.665 24.995 32.1583 26.5166 29.615 26.7733C29.35 29.4116 28.0617 31.8466 26.0317 33.5433C26.0317 33.5433 27.025 36.2666 27.04 36.3116C27.5417 37.7933 26.7467 39.4066 25.2667 39.9066C24.9733 40.0083 24.6683 40.0583 24.3617 40.0583ZM21.4833 34.3666C21.8317 34.3666 22.145 34.5866 22.265 34.9116L23.2467 37.5783C23.4133 38.0683 23.86 38.3916 24.3617 38.3916C24.4867 38.3916 24.6117 38.3699 24.7317 38.33C25.3417 38.1233 25.6683 37.46 25.4633 36.85L24.26 33.5466C24.1333 33.2016 24.2533 32.8083 24.55 32.59C26.6533 31.0466 27.9433 28.57 28 25.9633C28 20.9233 22.99 16.815 16.8333 16.815C15.6017 16.815 14.3767 16.9866 13.1917 17.325C13.1167 17.3466 13.04 17.3566 12.9633 17.3566C12.6933 17.3566 12.44 17.225 12.285 17.0066C11.6283 16.085 10.72 15.3916 9.66 15L9.67667 18.5666C9.67667 18.8283 9.55167 19.08 9.34 19.235C8.11167 20.1466 7.16833 21.3816 6.60833 22.805C6.48167 23.1266 6.17833 23.3333 5.83333 23.3333H4.16667V28.3333H5.83333C6.17833 28.3333 6.49167 28.55 6.61333 28.8733C7.22667 30.5116 8.29167 31.93 9.695 32.9766C9.98833 33.195 10.105 33.5883 9.97833 33.9316L8.935 36.765C8.81167 37.0766 8.81333 37.3883 8.93833 37.6783C9.06167 37.965 9.28833 38.1866 9.57833 38.3016C9.71667 38.3566 9.86167 38.385 10.0083 38.385C10.49 38.385 10.9167 38.0966 11.0933 37.6516L12.0333 35.0983C12.155 34.7716 12.4683 34.5533 12.8167 34.5533C12.8967 34.5533 12.975 34.565 13.0517 34.5866C14.2983 34.96 15.58 35.1483 16.8617 35.1483C18.3367 35.1483 19.7983 34.9 21.2083 34.41C21.2967 34.3833 21.3883 34.3666 21.4833 34.3666Z" fill="white"/>
<path d="M11.2568 25C11.9472 25 12.5068 24.4404 12.5068 23.75C12.5068 23.0596 11.9472 22.5 11.2568 22.5C10.5665 22.5 10.0068 23.0596 10.0068 23.75C10.0068 24.4404 10.5665 25 11.2568 25Z" fill="white"/>
<path d="M33.5369 18.09C33.3002 18.09 33.0735 17.9883 32.9152 17.8117C32.6085 17.47 32.6385 16.9417 32.9802 16.635C35.0452 14.7883 36.0952 12.0433 35.7869 9.29C35.3019 4.94333 31.6385 1.66667 27.2669 1.66667C26.9485 1.66667 26.6269 1.685 26.3102 1.72C24.0369 1.97333 21.9969 3.10167 20.5652 4.89333C19.1335 6.685 18.4852 8.92333 18.7385 11.1967C18.7635 11.4183 18.7002 11.635 18.5619 11.81C18.4235 11.9833 18.2235 12.0933 18.0035 12.1183C17.9735 12.1217 17.9402 12.1233 17.9085 12.1233C17.4852 12.1233 17.1302 11.805 17.0835 11.3817C16.7802 8.66667 17.5535 5.99333 19.2635 3.85333C20.9735 1.71333 23.4102 0.368333 26.1252 0.065C26.5052 0.0216667 26.8902 0 27.2685 0C32.4885 0 36.8619 3.915 37.4419 9.105C37.8085 12.3933 36.5569 15.6733 34.0902 17.8783C33.9385 18.015 33.7402 18.09 33.5369 18.09Z" fill="white"/>
<path d="M27.5067 17.5C27.0467 17.5 26.6733 17.1267 26.6733 16.6667V15.8333H25C24.54 15.8333 24.1667 15.46 24.1667 15C24.1667 14.54 24.54 14.1667 25 14.1667H28.395C28.9683 14.165 29.4783 13.82 29.6917 13.2867C29.98 12.5683 29.6317 11.75 28.9133 11.4617L25.475 10.085C24.305 9.615 23.55 8.49667 23.5483 7.23833C23.5483 6.41833 23.8667 5.64667 24.4467 5.06667C25.0267 4.48667 25.7967 4.16667 26.6167 4.16667H26.6717V3.33333C26.6717 2.87333 27.045 2.5 27.505 2.5C27.965 2.5 28.3383 2.87333 28.3383 3.33333V4.16667H30C30.46 4.16667 30.8333 4.54 30.8333 5C30.8333 5.46 30.4583 5.83333 30 5.83333H26.6183C26.2433 5.83333 25.8917 5.98 25.6267 6.245C25.3617 6.51 25.215 6.86333 25.2167 7.23833C25.2167 7.81333 25.5633 8.325 26.0967 8.54L29.535 9.91667C30.2967 10.2233 30.8917 10.8067 31.2133 11.5617C31.535 12.3167 31.5433 13.1517 31.2383 13.91C30.77 15.0767 29.6533 15.8317 28.3967 15.8333H28.34V16.6667C28.34 17.1267 27.965 17.5 27.5067 17.5Z" fill="white"/>
</g>
<defs>
<clipPath id="clip0">
<rect width="40" height="40" fill="white"/>
</clipPath>
</defs>
</svg>
