<svg width="40" height="40" viewBox="0 0 40 40" fill="none" xmlns="http://www.w3.org/2000/svg">
<g clip-path="url(#clip0)">
<path d="M9.58487 33C9.44654 33 9.30987 32.965 9.1882 32.9C5.07487 30.6833 2.06987 26.9966 0.728203 22.5183C-0.613464 18.04 -0.131797 13.3083 2.08654 9.19329C2.13487 9.10329 2.18654 9.01496 2.2382 8.92663L2.29487 8.82996C2.31987 8.77163 2.34987 8.72829 2.37154 8.69829C4.59654 4.85329 8.1882 2.01496 12.4699 0.731626C14.1182 0.236626 15.8149 -0.0133743 17.5149 -0.0133743C20.3782 -0.0133743 23.2415 0.713292 25.7949 2.08996C28.6465 3.62663 31.0149 5.92496 32.6399 8.73663C32.6532 8.75663 32.6732 8.78829 32.6915 8.82829C34.1982 11.4683 34.9932 14.4633 34.9932 17.4916C34.9932 17.9516 34.6199 18.325 34.1599 18.325H10.0682C10.1899 19.8483 10.4782 21.3383 10.9265 22.7583C10.9932 22.97 10.9732 23.1966 10.8715 23.3933C10.7699 23.59 10.5949 23.7366 10.3832 23.8033C10.3049 23.8283 10.2182 23.8416 10.1315 23.8416C9.76654 23.8416 9.44654 23.6083 9.33654 23.2583C8.8332 21.6633 8.51487 20.005 8.3882 18.325H1.6782C1.74654 19.585 1.9632 20.8333 2.32487 22.04C2.6282 23.055 3.03987 24.0466 3.54487 24.9916H8.96654C9.42654 24.9916 9.79987 25.365 9.79987 25.825C9.79987 26.285 9.42654 26.6583 8.96654 26.6583H4.57654C5.97654 28.6333 7.83154 30.2733 9.98154 31.4333C10.3849 31.6516 10.5382 32.1566 10.3199 32.5616C10.1732 32.8333 9.89154 33 9.58487 33ZM33.2949 16.6583C33.1715 14.3316 32.5299 12.04 31.4282 9.99163H25.5615C26.2482 12.15 26.6115 14.3883 26.6399 16.6583H33.2949ZM24.9749 16.6583C24.9432 14.38 24.5515 12.14 23.8099 9.99163H18.3249V16.6583H24.9749ZM16.6582 16.6583V9.99163H11.1765C10.4332 12.14 10.0415 14.38 10.0115 16.6583H16.6582ZM8.3432 16.6583C8.3732 14.3883 8.73487 12.15 9.42154 9.99163H3.54987C2.42654 12.0783 1.7982 14.3183 1.67654 16.6583H8.3432ZM30.3932 8.32496C28.9865 6.34496 27.1349 4.70496 25.0032 3.55663C23.7965 2.90663 22.5232 2.41829 21.2065 2.09829C22.7749 3.95329 24.0349 6.04163 24.9582 8.32496H30.3932ZM23.1532 8.32496C22.0499 5.82829 20.5049 3.59996 18.5515 1.69329C18.4765 1.68829 18.4015 1.68329 18.3265 1.67996V8.32496H23.1532ZM16.6582 8.32496V1.68163C16.5832 1.68663 16.5082 1.69163 16.4315 1.69663C14.4799 3.60329 12.9349 5.82996 11.8315 8.32496H16.6582ZM10.0265 8.32496C10.9499 6.04663 12.2065 3.95996 13.7732 2.10663C13.4915 2.17329 13.2165 2.24829 12.9482 2.32829C9.56154 3.34329 6.61987 5.45996 4.5882 8.32496H10.0265Z" fill="white"/>
<path d="M30.8247 39.9916C28.9864 39.9916 27.4914 38.4966 27.4914 36.6582H21.6581C21.6581 38.4966 20.1631 39.9916 18.3247 39.9916C16.4864 39.9916 14.9914 38.4966 14.9914 36.6582C14.9914 36.6132 14.9931 36.5666 14.9947 36.5182C14.0031 36.1699 13.3197 35.2299 13.3247 34.1549V24.1582C13.3247 22.7799 14.4464 21.6582 15.8247 21.6582H29.1581C30.5364 21.6582 31.6581 22.7799 31.6581 24.1582H34.1581C37.3747 24.1582 39.9914 26.7749 39.9914 29.9916V34.1582C39.9914 35.5366 38.8697 36.6582 37.4914 36.6582H34.1581C34.1581 38.4966 32.6631 39.9916 30.8247 39.9916ZM30.8247 34.9916C29.9047 34.9916 29.1581 35.7382 29.1581 36.6582C29.1581 37.5782 29.9047 38.3249 30.8247 38.3249C31.7447 38.3249 32.4914 37.5782 32.4914 36.6582C32.4914 35.7382 31.7447 34.9916 30.8247 34.9916ZM18.3247 34.9916C17.4064 34.9916 16.6581 35.7382 16.6581 36.6582C16.6581 37.5782 17.4064 38.3249 18.3247 38.3249C19.2431 38.3249 19.9914 37.5782 19.9914 36.6582C19.9914 35.7382 19.2447 34.9916 18.3247 34.9916ZM37.4914 34.9916C37.9514 34.9916 38.3247 34.6182 38.3247 34.1582V31.6582H35.8247C34.4464 31.6582 33.3247 30.5366 33.3247 29.1583V25.8249H31.6581V33.4332C32.5214 33.6566 33.2581 34.2149 33.7064 34.9916H37.4914ZM27.9431 34.9916C28.3914 34.2149 29.1297 33.6566 29.9914 33.4332V24.1582C29.9914 23.6982 29.6181 23.3249 29.1581 23.3249H15.8247C15.3647 23.3249 14.9914 23.6982 14.9914 24.1582V34.1582C14.9897 34.4966 15.1897 34.7899 15.4847 34.9199C16.0864 33.9416 17.1681 33.3249 18.3247 33.3249C19.5097 33.3249 20.6147 33.9716 21.2064 34.9916H27.9431ZM34.9914 29.1583C34.9914 29.6183 35.3647 29.9916 35.8247 29.9916H38.3247C38.3247 28.0133 36.8931 26.3032 34.9914 25.9116V29.1583Z" fill="white"/>
</g>
<defs>
<clipPath id="clip0">
<rect width="40" height="40" fill="white"/>
</clipPath>
</defs>
</svg>
