<svg width="111" height="34" viewBox="0 0 111 34" fill="none" xmlns="http://www.w3.org/2000/svg">
<g clip-path="url(#clip0)">
<path d="M108.5 7H11.8207L5 27H101.854L108.5 7Z" fill="#FE0B1F"/>
<path d="M21.915 22.8242H19.2422L21.3545 12.8301H27.2471L26.7891 14.9971H23.5693L23.1729 16.9043H26.1533L25.6816 19.085H22.6875L21.915 22.8242ZM27.2129 22.8242L29.3252 12.8301H31.998L30.3506 20.6436H33.6113L33.1465 22.8242H27.2129ZM40.2354 20.9512H37.1729L36.3184 22.8242H33.543L38.6289 12.8301H42.0674L42.9082 22.8242H40.3037L40.2354 20.9512ZM38.1504 18.8184H40.1533L40.0371 15.9199L40.0234 15.332C40.0234 14.9902 40.0326 14.6917 40.0508 14.4365C39.9414 14.8285 39.8024 15.2067 39.6338 15.5713L38.1504 18.8184ZM62.6914 22.8242H60.0186L60.873 18.75H58.5078L57.6396 22.8242H54.9668L57.0791 12.8301H59.752L58.9863 16.5352H61.3652L62.1309 12.8301H64.8105L62.6914 22.8242ZM74.7295 19.8984C74.7295 20.8555 74.3991 21.6051 73.7383 22.1475C73.082 22.6898 72.1751 22.9609 71.0176 22.9609C70.0605 22.9609 69.2676 22.79 68.6387 22.4482V20.917C69.4271 21.359 70.2246 21.5801 71.0312 21.5801C71.6556 21.5801 72.1478 21.4479 72.5078 21.1836C72.8678 20.9147 73.0479 20.5433 73.0479 20.0693C73.0479 19.7549 72.9544 19.4769 72.7676 19.2354C72.5807 18.9893 72.1888 18.6771 71.5918 18.2988C71.1133 17.9935 70.7601 17.7155 70.5322 17.4648C70.3044 17.2142 70.1289 16.9408 70.0059 16.6445C69.8874 16.3438 69.8281 16.0133 69.8281 15.6533C69.8281 15.07 69.9671 14.5527 70.2451 14.1016C70.5277 13.6504 70.9242 13.3018 71.4346 13.0557C71.9495 12.8096 72.5283 12.6865 73.1709 12.6865C74.1051 12.6865 74.9733 12.8962 75.7754 13.3154L75.1875 14.6211C74.4538 14.2656 73.7816 14.0879 73.1709 14.0879C72.6742 14.0879 72.2754 14.2223 71.9746 14.4912C71.6738 14.7555 71.5234 15.1019 71.5234 15.5303C71.5234 15.7445 71.5576 15.9336 71.626 16.0977C71.6943 16.2572 71.7992 16.4076 71.9404 16.5488C72.0863 16.6855 72.3939 16.902 72.8633 17.1982C73.5697 17.6403 74.0573 18.0687 74.3262 18.4834C74.5951 18.8936 74.7295 19.3652 74.7295 19.8984ZM81.2578 20.0488H77.9424L76.5137 22.8242H74.7773L80.1299 12.8164H82.0029L83.1377 22.8242H81.5381L81.2578 20.0488ZM81.1484 18.627C80.9661 16.7311 80.8613 15.585 80.834 15.1885C80.8112 14.7874 80.7998 14.4684 80.7998 14.2314C80.5492 14.8649 80.2256 15.5645 79.8291 16.3301L78.6533 18.627H81.1484ZM84.3545 22.8242L86.4668 12.8301H88.0869L86.2686 21.4229H89.9531L89.6592 22.8242H84.3545ZM96.6045 22.8242H91.2998L93.4121 12.8301H98.7168L98.4229 14.2314H94.7383L94.1641 16.9316H97.5957L97.3154 18.3193H93.8701L93.2139 21.4365H96.8984L96.6045 22.8242Z" fill="#C10A19"/>
<path d="M23.6084 22.1055H20.9355L23.0479 12.1113H28.9404L28.4824 14.2783H25.2627L24.8662 16.1855H27.8467L27.375 18.3662H24.3809L23.6084 22.1055ZM28.9062 22.1055L31.0186 12.1113H33.6914L32.0439 19.9248H35.3047L34.8398 22.1055H28.9062ZM41.9287 20.2324H38.8662L38.0117 22.1055H35.2363L40.3223 12.1113H43.7607L44.6016 22.1055H41.9971L41.9287 20.2324ZM39.8438 18.0996H41.8467L41.7305 15.2012L41.7168 14.6133C41.7168 14.2715 41.7259 13.973 41.7441 13.7178C41.6348 14.1097 41.4958 14.488 41.3271 14.8525L39.8438 18.0996ZM64.3848 22.1055H61.7119L62.5664 18.0312H60.2012L59.333 22.1055H56.6602L58.7725 12.1113H61.4453L60.6797 15.8164H63.0586L63.8242 12.1113H66.5039L64.3848 22.1055ZM76.4229 19.1797C76.4229 20.1367 76.0924 20.8864 75.4316 21.4287C74.7754 21.971 73.8685 22.2422 72.7109 22.2422C71.7539 22.2422 70.9609 22.0713 70.332 21.7295V20.1982C71.1204 20.6403 71.918 20.8613 72.7246 20.8613C73.349 20.8613 73.8411 20.7292 74.2012 20.4648C74.5612 20.196 74.7412 19.8245 74.7412 19.3506C74.7412 19.0361 74.6478 18.7581 74.4609 18.5166C74.2741 18.2705 73.8822 17.9583 73.2852 17.5801C72.8066 17.2747 72.4535 16.9967 72.2256 16.7461C71.9977 16.4954 71.8223 16.222 71.6992 15.9258C71.5807 15.625 71.5215 15.2946 71.5215 14.9346C71.5215 14.3512 71.6605 13.834 71.9385 13.3828C72.221 12.9316 72.6175 12.583 73.1279 12.3369C73.6429 12.0908 74.2217 11.9678 74.8643 11.9678C75.7985 11.9678 76.6667 12.1774 77.4688 12.5967L76.8809 13.9023C76.1471 13.5469 75.4749 13.3691 74.8643 13.3691C74.3675 13.3691 73.9688 13.5036 73.668 13.7725C73.3672 14.0368 73.2168 14.3831 73.2168 14.8115C73.2168 15.0257 73.251 15.2148 73.3193 15.3789C73.3877 15.5384 73.4925 15.6888 73.6338 15.8301C73.7796 15.9668 74.0872 16.1833 74.5566 16.4795C75.263 16.9215 75.7507 17.3499 76.0195 17.7646C76.2884 18.1748 76.4229 18.6465 76.4229 19.1797ZM82.9512 19.3301H79.6357L78.207 22.1055H76.4707L81.8232 12.0977H83.6963L84.8311 22.1055H83.2314L82.9512 19.3301ZM82.8418 17.9082C82.6595 16.0124 82.5547 14.8662 82.5273 14.4697C82.5046 14.0687 82.4932 13.7497 82.4932 13.5127C82.2425 14.1462 81.9189 14.8457 81.5225 15.6113L80.3467 17.9082H82.8418ZM86.0479 22.1055L88.1602 12.1113H89.7803L87.9619 20.7041H91.6465L91.3525 22.1055H86.0479ZM98.2979 22.1055H92.9932L95.1055 12.1113H100.41L100.116 13.5127H96.4316L95.8574 16.2129H99.2891L99.0088 17.6006H95.5635L94.9072 20.7178H98.5918L98.2979 22.1055Z" fill="white"/>
<path d="M47.1792 16.9143L52.0138 10.7477C52.1473 10.5774 52.4185 10.7109 52.365 10.9206L51.0948 15.8958C51.0694 15.9955 51.1237 16.0982 51.2203 16.1333L53.7323 17.0456C53.8625 17.0929 53.9063 17.2552 53.8176 17.3617L48.1332 24.1804C47.9915 24.3504 47.7195 24.1984 47.79 23.9886L49.7347 18.2044C49.7705 18.0979 49.7116 17.9828 49.6043 17.9496L47.2774 17.2288C47.1435 17.1873 47.0927 17.0246 47.1792 16.9143Z" fill="#AB1111"/>
<path d="M47.2165 16.9012L52.8124 10.6558C52.9545 10.4972 53.213 10.6409 53.1534 10.8452L51.6833 15.884C51.6529 15.9882 51.7112 16.0977 51.8147 16.1306L54.6951 17.046C54.8359 17.0907 54.8812 17.2675 54.7793 17.3745L48.2049 24.2752C48.054 24.4335 47.7949 24.2696 47.8734 24.0655L50.1205 18.217C50.163 18.1064 50.1006 17.9833 49.9862 17.9522L47.3131 17.2277C47.1694 17.1888 47.1172 17.0121 47.2165 16.9012Z" fill="white"/>
<path d="M17 0L4.63636 1.35613L0 18.4046L7.21212 17.8234L1.41667 34L16.4848 13.2707L10.947 13.6581L17 0Z" fill="#FDCE04"/>
<path d="M11.5 0.5L4.5 1.5L0 18.5L7 18L1.5 34L11.5 14.5H7.5L11.5 0.5Z" fill="#FDC604"/>
</g>
<defs>
<clipPath id="clip0">
<path d="M0 0H111V34H0V0Z" fill="white"/>
</clipPath>
</defs>
</svg>
