<svg width="32" height="32" viewBox="0 0 32 32" fill="none" xmlns="http://www.w3.org/2000/svg">
<g clip-path="url(#clip0)">
<path d="M32 2.18013C32.0024 1.59582 31.7769 1.04725 31.3651 0.635378C30.9532 0.223503 30.4036 -0.00162181 29.8204 0.000503188C29.2378 0.00294069 28.6893 0.231878 28.2759 0.645128C28.1009 0.820128 27.7826 1.19813 27.6085 1.40794C27.4256 1.62825 27.4559 1.95513 27.6762 2.13794C27.8964 2.32082 28.2233 2.29057 28.4062 2.07025C28.6789 1.74175 28.9044 1.48307 29.0091 1.37832C29.2277 1.15975 29.5173 1.03863 29.8247 1.03732C29.8264 1.03732 29.8279 1.03732 29.8296 1.03732C30.1335 1.03732 30.4183 1.15482 30.6319 1.3685C30.8468 1.58332 30.9644 1.87 30.9631 2.17575C30.9618 2.48307 30.8407 2.77269 30.6221 2.99138C30.4264 3.18707 29.7538 3.72063 28.7901 4.39382C28.2201 3.41919 27.1628 2.76263 25.9545 2.76263H18.363C17.3383 2.76263 16.3749 3.16169 15.6502 3.88625L0.475812 19.0608C0.169 19.3676 0 19.7756 0 20.2094C0 20.6433 0.169 21.0513 0.475812 21.3581L10.6425 31.5248C10.9592 31.8414 11.3751 31.9998 11.7911 31.9998C12.2071 31.9998 12.6231 31.8414 12.9397 31.5248L28.1143 16.3503C28.8388 15.6257 29.2379 14.6623 29.2379 13.6375V6.04607C29.2379 5.822 29.2152 5.60325 29.1722 5.39169C30.2691 4.63688 31.0744 4.00544 31.3552 3.72457C31.7686 3.31132 31.9976 2.76282 32 2.18013ZM28.2011 13.6375C28.2011 14.3853 27.9098 15.0884 27.3811 15.6171L12.2066 30.7916C11.9776 31.0207 11.6047 31.0207 11.3757 30.7916L1.209 20.6249C1.09806 20.514 1.03688 20.3664 1.03688 20.2094C1.03688 20.0524 1.098 19.9049 1.209 19.794L16.3834 4.61957C16.9123 4.09082 17.6153 3.79963 18.363 3.79963H25.9544C26.8069 3.79963 27.5501 4.27694 27.9306 4.97832C27.3182 5.38382 26.6325 5.815 25.9051 6.239C25.8824 6.21413 25.8592 6.1895 25.8351 6.16544C24.9861 5.31644 23.6048 5.31644 22.7558 6.16544C21.9067 7.01444 21.9067 8.39581 22.7558 9.24481C23.1803 9.66932 23.7379 9.8815 24.2954 9.8815C24.853 9.8815 25.4106 9.66932 25.8351 9.24481C26.4018 8.67813 26.5896 7.87444 26.3999 7.15C27.0326 6.78169 27.6401 6.40525 28.2008 6.04107C28.2009 6.04282 28.201 6.04444 28.201 6.04613V13.6375H28.2011ZM23.8324 7.93807C23.9235 8.11913 24.1062 8.22363 24.296 8.22363C24.3743 8.22363 24.4539 8.20582 24.5286 8.16819C24.8325 8.01532 25.1353 7.85632 25.4351 7.69344C25.4381 7.98938 25.3275 8.28625 25.1021 8.51163C24.6574 8.95632 23.9339 8.95632 23.4891 8.51163C23.0444 8.06688 23.0444 7.34338 23.4891 6.89863C23.7115 6.67625 24.0036 6.56513 24.2956 6.56513C24.5269 6.56513 24.7574 6.636 24.9541 6.77532C24.6607 6.93482 24.3629 7.091 24.0627 7.24207C23.8067 7.37063 23.7037 7.68232 23.8324 7.93807Z" fill="black"/>
<path d="M15.4476 10.5601C15.1613 10.5601 14.9292 10.7921 14.9292 11.0785V22.0272C14.9292 22.3135 15.1613 22.5456 15.4476 22.5456C15.7339 22.5456 15.9661 22.3135 15.9661 22.0272V11.0785C15.9661 10.7921 15.7339 10.5601 15.4476 10.5601Z" fill="black"/>
<path d="M13.0768 15.0133C12.2279 14.1642 10.8465 14.1642 9.99759 15.0132C9.14859 15.8622 9.14859 17.2436 9.99759 18.0926C10.4222 18.5171 10.9797 18.7293 11.5373 18.7293C12.0948 18.7293 12.6525 18.517 13.0769 18.0926C13.4882 17.6813 13.7147 17.1345 13.7147 16.5529C13.7147 15.9713 13.4882 15.4245 13.0768 15.0133ZM12.3437 17.3593C11.899 17.8041 11.1755 17.804 10.7308 17.3593C10.2861 16.9146 10.2861 16.1911 10.7308 15.7463C10.9532 15.524 11.2452 15.4128 11.5373 15.4128C11.8293 15.4128 12.1214 15.524 12.3438 15.7463C12.5592 15.9618 12.6778 16.2482 12.6778 16.5528C12.6778 16.8575 12.5592 17.1439 12.3437 17.3593Z" fill="black"/>
<path d="M20.8976 15.0132C20.0486 14.1642 18.6672 14.1642 17.8184 15.0132C16.9694 15.8622 16.9694 17.2436 17.8184 18.0926C18.2429 18.5171 18.8005 18.7293 19.3581 18.7293C19.9156 18.7293 20.4733 18.5171 20.8977 18.0926C21.7466 17.2436 21.7466 15.8622 20.8976 15.0132ZM20.1645 17.3593C19.7197 17.8041 18.9962 17.804 18.5515 17.3593C18.1068 16.9146 18.1068 16.1911 18.5515 15.7464C18.7739 15.524 19.066 15.4129 19.358 15.4129C19.6501 15.4129 19.9421 15.524 20.1645 15.7464C20.6092 16.1911 20.6092 16.9146 20.1645 17.3593Z" fill="black"/>
</g>
<defs>
<clipPath id="clip0">
<rect width="32" height="32" fill="white"/>
</clipPath>
</defs>
</svg>
