<svg width="20" height="20" viewBox="0 0 20 20" fill="none" xmlns="http://www.w3.org/2000/svg">
<g clip-path="url(#clip0)">
<path d="M18.0535 8.48136V8.45997V5.23003C18.0535 3.77548 17.0267 3.24072 16.0642 3.24072H3.87166C2.90909 3.24072 1.88235 3.75409 1.88235 5.23003V8.45997V8.48136C0.919786 8.58832 0 9.23003 0 10.706V13.23C0 13.6578 0.342246 14.0001 0.770053 14.0001H1.02674V15.9894C1.02674 16.4172 1.36898 16.7594 1.79679 16.7594H2.52406C2.95187 16.7594 3.29412 16.4172 3.29412 15.9894V13.9787H16.7059V15.9894C16.7059 16.4172 17.0481 16.7594 17.4759 16.7594H18.2032C18.631 16.7594 18.9733 16.4172 18.9733 15.9894V13.9787H19.2299C19.6578 13.9787 20 13.6364 20 13.2086V10.706C19.9358 9.23003 19.016 8.58832 18.0535 8.48136ZM2.60963 5.23003H2.65241C2.65241 4.22468 3.31551 4.01078 3.87166 4.01078H16.0642C16.6203 4.01078 17.2834 4.22468 17.2834 5.23003V8.45997H16.7059V6.6204C16.7059 6.19259 16.3636 5.85035 15.9358 5.85035H11.2299C10.8021 5.85035 10.4599 6.19259 10.4599 6.6204V8.45997H9.5615V6.6204C9.5615 6.19259 9.21925 5.85035 8.79144 5.85035H4.08556C3.65775 5.85035 3.31551 6.19259 3.31551 6.6204V8.45997H2.60963V5.23003ZM15.9358 6.6204V8.45997H11.2299V6.6204H15.9358ZM8.83422 6.6204V8.45997H4.12834V6.6204H8.83422ZM2.50267 15.9894H1.7754V13.9787H2.50267V15.9894ZM18.1604 15.9894H17.4332V13.9787H18.1604V15.9894ZM19.1658 13.23H18.1604H17.4332H2.50267H1.7754H0.748663V12.0963H19.1658V13.23ZM19.1658 11.3263H0.748663V10.706C0.748663 9.42254 1.68984 9.23003 2.2246 9.23003H2.63102H4.10695H8.81283H11.2299H15.9358H17.2834H17.6898C18.246 9.23003 19.1658 9.42254 19.1658 10.706V11.3263Z" fill="#4F4F4F"/>
</g>
<defs>
<clipPath id="clip0">
<rect width="20" height="20" fill="white"/>
</clipPath>
</defs>
</svg>
