<svg width="125" height="27" viewBox="0 0 125 27" fill="none" xmlns="http://www.w3.org/2000/svg">
<path d="M6.41016 22H1.85156V4.86719H11.9766V8.58203H6.41016V11.8516H11.543V15.5664H6.41016V22ZM19.1016 22H14.5195V3.76562H19.1016V22ZM30.9375 22L30.0586 20.2422H29.9648C29.3477 21.0078 28.7188 21.5312 28.0781 21.8125C27.4375 22.0938 26.6094 22.2344 25.5938 22.2344C24.3438 22.2344 23.3594 21.8594 22.6406 21.1094C21.9219 20.3594 21.5625 19.3047 21.5625 17.9453C21.5625 16.5312 22.0547 15.4805 23.0391 14.793C24.0234 14.0977 25.4492 13.707 27.3164 13.6211L29.5312 13.5508V13.3633C29.5312 12.2695 28.9922 11.7227 27.9141 11.7227C26.9453 11.7227 25.7148 12.0508 24.2227 12.707L22.8984 9.68359C24.4453 8.88672 26.3984 8.48828 28.7578 8.48828C30.4609 8.48828 31.7773 8.91016 32.707 9.75391C33.6445 10.5977 34.1133 11.7773 34.1133 13.293V22H30.9375ZM27.5391 19C28.0938 19 28.5664 18.8242 28.957 18.4727C29.3555 18.1211 29.5547 17.6641 29.5547 17.1016V16.0703L28.5 16.1172C26.9922 16.1719 26.2383 16.7266 26.2383 17.7812C26.2383 18.5938 26.6719 19 27.5391 19ZM64.2891 22V14.7578C64.2891 12.9766 63.7617 12.0859 62.707 12.0859C61.957 12.0859 61.4023 12.4023 61.043 13.0352C60.6914 13.6602 60.5156 14.7031 60.5156 16.1641V22H55.9336V3.76562H60.5156V6.35547C60.5156 7.52734 60.4531 8.86328 60.3281 10.3633H60.5391C60.9766 9.67578 61.4961 9.19141 62.0977 8.91016C62.6992 8.62891 63.3984 8.48828 64.1953 8.48828C65.6797 8.48828 66.832 8.91797 67.6523 9.77734C68.4805 10.6289 68.8945 11.8242 68.8945 13.3633V22H64.2891ZM88.8047 17.3477C88.8047 18.8711 88.2539 20.0664 87.1523 20.9336C86.0508 21.8008 84.5312 22.2344 82.5938 22.2344C80.6562 22.2344 79.0703 21.9336 77.8359 21.332V18.6836C78.6172 19.0508 79.4453 19.3398 80.3203 19.5508C81.2031 19.7617 82.0234 19.8672 82.7812 19.8672C83.8906 19.8672 84.707 19.6562 85.2305 19.2344C85.7617 18.8125 86.0273 18.2461 86.0273 17.5352C86.0273 16.8945 85.7852 16.3516 85.3008 15.9062C84.8164 15.4609 83.8164 14.9336 82.3008 14.3242C80.7383 13.6914 79.6367 12.9688 78.9961 12.1562C78.3555 11.3438 78.0352 10.3672 78.0352 9.22656C78.0352 7.79688 78.543 6.67188 79.5586 5.85156C80.5742 5.03125 81.9375 4.62109 83.6484 4.62109C85.2891 4.62109 86.9219 4.98047 88.5469 5.69922L87.6562 7.98438C86.1328 7.34375 84.7734 7.02344 83.5781 7.02344C82.6719 7.02344 81.9844 7.22266 81.5156 7.62109C81.0469 8.01172 80.8125 8.53125 80.8125 9.17969C80.8125 9.625 80.9062 10.0078 81.0938 10.3281C81.2812 10.6406 81.5898 10.9375 82.0195 11.2188C82.4492 11.5 83.2227 11.8711 84.3398 12.332C85.5977 12.8555 86.5195 13.3438 87.1055 13.7969C87.6914 14.25 88.1211 14.7617 88.3945 15.332C88.668 15.9023 88.8047 16.5742 88.8047 17.3477ZM99.9375 22L99.3867 20.1953H99.293C98.668 20.9844 98.0391 21.5234 97.4062 21.8125C96.7734 22.0938 95.9609 22.2344 94.9688 22.2344C93.6953 22.2344 92.6992 21.8906 91.9805 21.2031C91.2695 20.5156 90.9141 19.543 90.9141 18.2852C90.9141 16.9492 91.4102 15.9414 92.4023 15.2617C93.3945 14.582 94.9062 14.2109 96.9375 14.1484L99.1758 14.0781V13.3867C99.1758 12.5586 98.9805 11.9414 98.5898 11.5352C98.207 11.1211 97.6094 10.9141 96.7969 10.9141C96.1328 10.9141 95.4961 11.0117 94.8867 11.207C94.2773 11.4023 93.6914 11.6328 93.1289 11.8984L92.2383 9.92969C92.9414 9.5625 93.7109 9.28516 94.5469 9.09766C95.3828 8.90234 96.1719 8.80469 96.9141 8.80469C98.5625 8.80469 99.8047 9.16406 100.641 9.88281C101.484 10.6016 101.906 11.7305 101.906 13.2695V22H99.9375ZM95.8359 20.125C96.8359 20.125 97.6367 19.8477 98.2383 19.293C98.8477 18.7305 99.1523 17.9453 99.1523 16.9375V15.8125L97.4883 15.8828C96.1914 15.9297 95.2461 16.1484 94.6523 16.5391C94.0664 16.9219 93.7734 17.5117 93.7734 18.3086C93.7734 18.8867 93.9453 19.3359 94.2891 19.6562C94.6328 19.9688 95.1484 20.125 95.8359 20.125ZM108.504 22H105.75V3.76562H108.504V22ZM118.113 22.2344C116.098 22.2344 114.52 21.6484 113.379 20.4766C112.246 19.2969 111.68 17.6758 111.68 15.6133C111.68 13.4961 112.207 11.832 113.262 10.6211C114.316 9.41016 115.766 8.80469 117.609 8.80469C119.32 8.80469 120.672 9.32422 121.664 10.3633C122.656 11.4023 123.152 12.832 123.152 14.6523V16.1406H114.516C114.555 17.3984 114.895 18.3672 115.535 19.0469C116.176 19.7188 117.078 20.0547 118.242 20.0547C119.008 20.0547 119.719 19.9844 120.375 19.8438C121.039 19.6953 121.75 19.4531 122.508 19.1172V21.3555C121.836 21.6758 121.156 21.9023 120.469 22.0352C119.781 22.168 118.996 22.2344 118.113 22.2344ZM117.609 10.8906C116.734 10.8906 116.031 11.168 115.5 11.7227C114.977 12.2773 114.664 13.0859 114.562 14.1484H120.445C120.43 13.0781 120.172 12.2695 119.672 11.7227C119.172 11.168 118.484 10.8906 117.609 10.8906Z" fill="white"/>
<path d="M39.1669 12.6336L48.014 0.784812C48.1443 0.61036 48.42 0.740168 48.3686 0.951721L45.9845 10.7573C45.9607 10.8552 46.0134 10.9555 46.1076 10.9914L50.7448 12.7598C50.8712 12.808 50.9143 12.9651 50.8302 13.0711L40.4526 26.142C40.3143 26.3162 40.0377 26.1685 40.1055 25.9567L43.7393 14.608C43.7729 14.5031 43.7154 14.3908 43.6107 14.3568L39.2653 12.9434C39.1351 12.9011 39.085 12.7433 39.1669 12.6336Z" fill="white"/>
</svg>
