<svg xmlns="http://www.w3.org/2000/svg" version="1.2" viewBox="0 0 575 365" width="44" height="28" class="c--shared_svg-icon" data-v-4144f789=""><path d="m114.4 2.8h142.4c19.9 0 32.3 16.4 27.6 36.5l-66.3 287.4c-4.7 20.1-24.6 36.5-44.5 36.5h-142.4c-19.9 0-32.3-16.4-27.6-36.5l66.3-287.4c4.7-20.2 24.5-36.5 44.4-36.5 0 0 0.1 0 0.1 0z" fill="#d10429"></path> <path d="m244.3 2.8h163.9c19.8 0 10.8 16.4 6.2 36.5l-66.4 287.4c-4.6 20.1-3.2 36.5-23 36.5h-163.9c-19.9 0-32.2-16.4-27.5-36.5l66.4-287.4c4.6-20.2 24.5-36.5 44.5-36.5 0 0-0.2 0-0.2 0z" fill="#022e64"></path> <path d="m402.4 2.8h142.4c19.9 0 32.3 16.4 27.6 36.5l-66.3 287.4c-4.7 20.1-24.6 36.5-44.5 36.5h-142.4c-20 0-32.3-16.4-27.6-36.5l66.3-287.4c4.7-20.2 24.5-36.5 44.4-36.5 0 0 0.1 0 0.1 0z" fill="#076f74"></path> <path fill-rule="evenodd" fill="#fefefe" d="m425.7 215.7l-17.4 58h4.7l-3.7 12h-4.6l-1.2 3.7h-16.5l1.1-3.7h-33.5l3.3-11.1h3.4l17.6-58.9 3.5-11.9h16.9l-1.8 6c0 0 4.5-3.3 8.8-4.4 4.3-1.2 28.7-1.6 28.7-1.6l-3.6 11.8h-5.8zm-36.5 22.3l0.1-0.1zm-4.6 15.3c0 0 5.1-2.6 7.9-3.4 2.8-0.7 6.9-1.2 6.9-1.2l3.2-10.7h-13.4zm11.4-37.7l-4.4 14.9c0 0 4.9-2.3 7.7-3.1 2.8-0.7 7-0.9 7-0.9l3.2-10.8h-13.4zm-17.5 58.1h13.5l3.8-13h-13.3z"></path> <path id="Layer" fill-rule="evenodd" fill="#fefefe" d="m432.6 203.8h18l0.2 6.8c-0.1 1.1 0.8 1.7 3 1.7h3.6l-3.3 11.1h-9.7c-8.4 0.7-11.6-3-11.4-7.1l-0.3-12.4zm2.2 53.2h-17.2l2.9-9.9h19.7l2.8-9.1h-19.4l3.3-11.2h53.9l-3.4 11.2h-18.1l-2.8 9.1h18.1l-3 9.9h-19.5l-3.5 4.2h7.9l2 12.5c0.2 1.3 0.2 2.1 0.6 2.6 0.4 0.4 2.8 0.7 4.2 0.7h2.3l-3.7 12.2h-6.1c-0.9 0-2.4-0.1-4.3-0.1-1.9-0.2-3.1-1.3-4.4-1.9-1.1-0.5-2.8-1.9-3.2-4.3l-1.9-12.5-8.8 12.3c-2.8 3.9-6.7 6.9-13.2 6.9h-12.4l3.3-10.9h4.8c1.3 0 2.5-0.5 3.5-1 0.9-0.4 1.7-0.9 2.6-2.2zm-187.9-27.2h45.4l-3.3 11h-18.1l-2.8 9.3h18.6l-3.4 11.3h-18.5l-4.6 15.1c-0.5 1.7 4.5 1.9 6.2 1.9l9.3-1.3-3.7 12.6h-20.9c-1.6 0-2.9-0.2-4.8-0.7-1.7-0.4-2.5-1.2-3.3-2.4-0.7-1.2-1.9-2.2-1.1-4.9l6-20h-10.3l3.4-11.5h10.3l2.8-9.3h-10.3l3.3-11zm31.4-19.7v-0.1zm18.6-0.1l-3.4 11.3h-25.5l-2.8 2.5c-1.2 1.1-1.5 0.7-3.1 1.5-1.4 0.7-4.4 2.2-8.4 2.2h-8.1l3.3-11h2.5c2 0 3.5-0.2 4.2-0.6 0.8-0.5 1.8-1.7 2.7-3.5l4.6-8.6h18.6l-3.2 6.2zm7.4-6.1h15.8l-2.3 8c0 0 5-4 8.5-5.5 3.6-1.3 11.4-2.5 11.4-2.5l25.7-0.1-8.8 29.5c-1.5 5-3.2 8.2-4.3 9.8-0.9 1.4-2 2.8-4.3 4.1-2.2 1.1-4.1 1.8-6 1.9-1.7 0.1-4.4 0.3-7.9 0.3h-24.7l-6.9 23.3c-0.7 2.3-1 3.4-0.6 4 0.4 0.6 1.3 1.2 2.4 1.2l10.9-1.1-3.7 12.8h-12.2c-4 0-6.8-0.1-8.7-0.2-1.9-0.2-3.9 0-5.2-1.1-1.2-1-2.9-2.4-2.8-3.7 0.1-1.3 0.6-3.4 1.4-6.3zm7.8 29.7l-1.6 5.3h22.6c2.7-0.3 3.2 0.1 3.4-0.1l1.7-5.2zm1.3-4.7l0.1-0.2q-0.1 0.1-0.1 0.1zm13.8-6.3c2-0.4 14.4-0.2 14.4-0.2l1.8-6.3h-26.1l-3.8 12.6c0.5-0.4 5.5-4.7 13.7-6.1z"></path> <path fill-rule="evenodd" fill="#fefefe" d="m350.5 251h-0.1v-0.2zm-1.5 6.9c-0.6 2.2-1.2 3.9-2.8 5.3-1.8 1.5-3.7 3-8.5 3l-8.8 0.5-0.1 7.9c-0.1 2.2 0.5 2 0.8 2.4 0.4 0.4 0.8 0.5 1.2 0.7l2.8-0.2 8.3-0.4-3.5 11.7h-9.6c-6.7 0-11.8-0.2-13.4-1.4-1.6-1.1-1.8-2.3-1.8-4.6l0.6-31.2h15.4l-0.2 6.4h3.7c1.3 0 2.2-0.1 2.7-0.4 0.6-0.3 0.9-0.9 1.1-1.6l1.5-5h12zm-217.9-163c1.4 0.3 5.7 0.4 20.3 0.3-0.1 0.1-0.1 0.3-0.2 0.6-1.8 5.7-12.5 49.3-12.5 49.3l-1.2 4.7c-2.5 9-5.4 19.4-16.5 26-6.3 3.8-15.7 6-25.7 6-7.8 0-21.6-1.2-26.4-9.8-1.6-2.6-2.3-5.8-2.3-9.7l1.7-13.2 1-3.9 10.5-47.4c0 0 0.6-2.6 0.7-3 0.2 0.3 3.8 0.5 24 0.3 0 0.1 0 0.3-0.1 0.6-1.9 5.6-12.2 47.6-12.2 47.6 0 0.1-2 12.5-2 12.5l0.1 2.1c0.6 6.2 4.3 9.4 10.9 9.4 4 0 7.5-1.1 10.5-3.6 5.2-4.3 6.7-11 8.9-20.3 0 0 9.9-46.1 10.5-48.6zm59 86.5c-7.1-0.1-9.7-0.1-18.1 0.3l-0.3-0.6c0.7-3.3 1.5-6.4 2.1-9.6l1.1-4.4c1.5-6.8 3-14.9 3.2-17.3 0.2-1.4 0.6-5.1-3.5-5.1-1.8 0-3.6 0.9-5.4 1.7-1 3.7-3 13.9-4 18.5-2.1 9.8-2.2 11-3.2 15.8l-0.6 0.6c-7.3-0.1-9.9-0.1-18.4 0.3l-0.4-0.7c1.4-5.9 2.8-11.7 4.1-17.6 3.5-15.8 4.5-21.8 5.4-29.9l0.7-0.4c8.3-1.1 10.3-1.4 19.3-3.2l0.7 0.8-1.3 5c1.5-0.9 3-1.8 4.5-2.6 4.3-2.1 8.9-2.7 11.5-2.7 3.9 0 8.3 1.2 10 5.8 1.7 4 0.7 9-1.6 19l-1.2 5c-2.2 11.1-2.6 13-3.9 20.6l-0.8 0.6zm29 0c-4.3 0-7.1-0.1-9.8 0-2.7 0-5.3 0.2-9.3 0.3l-0.2-0.3-0.2-0.4c1.1-4.2 1.6-5.6 2.3-7.1 0.5-1.5 1-2.9 2-7.2 1.3-5.5 2.1-9.4 2.6-12.9 0.6-3.2 1-6 1.4-9.3l0.3-0.2 0.3-0.3c4.3-0.6 7-1 9.8-1.4 2.8-0.5 5.7-1 10.2-1.8l0.2 0.4 0.1 0.4-2.5 10.4c-0.8 3.4-1.7 6.9-2.4 10.3-1.5 7.3-2.3 10-2.6 12-0.4 1.9-0.5 2.8-1.1 6.6l-0.4 0.3-0.4 0.3zm64.7-24.8c-0.8 3.4-3 11.6-7.8 17-6.3 6.7-14.7 9-22.9 9-3.2 0-8.2-0.4-11.6-1.9-11.2-4.6-9.4-16.8-7.9-23.6 1.5-6.7 4.1-13.7 9.6-18.8 7.6-7.1 17.3-7.5 21.5-7.5 6.8 0 13.4 1.5 17.2 6.4 2.3 3.1 4.3 8.3 1.8 19.4zm-21.6-14.5c-5.7 0-8 7-9.8 15.4-0.7 3-1.2 5.7-1.2 8.3 0.1 5.3 3.6 5.3 4.3 5.3 2 0 3.8-1.3 5.4-3.5 2.1-3 3.8-10 4.1-11.8 2-8.5 1.6-13.7-2.8-13.7zm196 40.6c-8.7-0.1-11.2-0.1-19.2 0.3l-0.5-0.6c2.2-8.3 4.3-16.7 6.3-25 2.5-10.9 3.1-15.5 3.9-21.9l0.7-0.5c8.5-1.2 10.9-1.5 19.9-3.2l0.2 0.7c-1.6 6.9-3.2 13.7-4.8 20.5-3.3 14.3-4.5 21.6-5.7 29.2l-0.8 0.6z"></path> <path fill-rule="evenodd" fill="#fefefe" d="m456.4 159.2c-6.3 6.7-14.8 23.8-26 24.4-3.2 0.2-6.4-0.2-9.9-1.8-11.1-4.3-9.3-16.6-7.8-23.3 1.5-6.7 4.2-13.7 9.6-18.7 7.6-7.1 16.6-9.1 20.4-7.5 10 3.9 8.4 15.3 10.9 21.1 1.6 3.7 11.7-6.5 9.2 4.6-0.7 3.2-1.5-4.1-6.4 1.2zm-10.6-1.9c1.9-8.5 0-13.6-4.5-13.6-5.7 0-8 7-9.8 15.2-0.7 3-1.2 5.7-1.2 8.3 0.2 5.2 3.7 5.2 4.3 5.2 1.9 0 5.5-1.3 6.9-3.4 2.2-3 3.8-10.1 4.3-11.8zm-112.9 24.1c-7.2-0.1-9.6-0.1-18 0.3l-0.3-0.6c0.7-3.2 1.5-6.4 2.2-9.6l1-4.4c1.5-6.8 3.1-14.9 3.2-17.3 0.2-1.4 0.6-5.1-3.4-5.1-1.8 0-3.7 0.9-5.4 1.7-0.9 3.7-3 13.9-4 18.5-2 9.8-2.2 11-3.2 15.8l-0.6 0.6c-7.3-0.1-9.9-0.1-18.4 0.3l-0.4-0.7c1.4-5.9 2.8-11.7 4.1-17.6 3.6-15.8 4.4-21.8 5.4-29.9l0.6-0.4c8.3-1.1 10.4-1.4 19.3-3.2l0.7 0.8-1.2 5c1.4-0.9 3-1.8 4.4-2.6 4.3-2.1 8.9-2.7 11.5-2.7 3.9 0 8.2 1.2 10 5.8 1.7 4 0.6 9-1.7 19l-1.2 5c-2.3 11.1-2.6 13-3.9 20.6l-0.8 0.6zm89.8-78.9c2.1 2.8 2.8 6.4 2.8 10 0 2.9-0.4 5.6-0.9 7.9-2.2 9.4-7 17.2-14 22.4-10.3 7.7-23.5 7.7-35.2 7.7h-1.2c-0.8 0.5-1.7 1.6-1.7 1.6-0.1 0.5-2.8 11.8-2.8 11.8-0.1 0-3.2 15.3-3.7 17.9-2.4-0.3-7.9-0.3-21.4-0.1 0.6-2.6 13.9-57.8 13.9-57.8 0-0.1 5.5-26 5.5-26 0 0 0.5-2 0.7-3.1 2.4 0.3 8.7 0.4 24.2 0.2l6-0.1c12.1 0.1 22.5 0.2 27.8 7.6zm-25.4 6.4c-0.2 0-12.5-1.1-12.5-1.1l-2.3-0.2-0.1 1.1-0.2 1.3c0-0.1-5.9 25.8-5.9 25.8l-0.3 1.3h3.3c4.9 0 9.7-0.2 13.6-2.2 4.8-2.3 8.5-7.2 9.7-13 1.5-6.3-0.6-11.1-5.3-13zm132.7 21.8c0 0-35.6 61.7-40.3 71.8l-1.3 1.6c-6.3 0-8.1 0-16.5 0.3l-0.3-0.8c5.6-8.5 6.9-12.2 12.7-21.8-1-10.7-1.5-14.2-2.4-21.3-0.5-4.2-1.1-8.5-1.6-12.7-1-8.7-0.8-7.5-1.9-13l-0.1-0.1c0-0.3 0-0.6 0.1-1l0.6-0.6c8.5-1.1 8.7-1.4 18.1-3.2l0.7 0.8 1.2 24.1c0.1 0.5 0.1 0.8 0.1 1.3 4.9-11.1 4.8-8 10.8-22.1v0.1c0-0.2 0.1-0.4 0.1-0.5l0.6-0.6c8.1-1.1 9.7-1.4 18.5-3.2l0.8 0.8zm-318.7 8.5c-4-2.5-3.5-7.1 1.2-10.3 4.8-3.4 11.9-4.1 16-1.7 4 2.4 3.4 7-1.4 10.3-4.7 3.4-11.9 4-15.8 1.7z"></path> <path fill="#fefefe" d="m488.3 203.9l-6.9 12c-2.2 4.1-6.3 7.2-12.7 7.2l-11.1-0.2 3.2-10.8h2.2c1.1 0 1.9-0.2 2.6-0.5 0.6-0.2 0.9-0.6 1.4-1.2l4.2-6.6h17.2z"></path></svg>