<svg xmlns="http://www.w3.org/2000/svg" width="175" height="131"><defs><linearGradient id="a" x1="45.267%" x2="66.415%" y1="69.328%" y2="-17.007%"><stop offset="0%" stop-color="#39466e"/><stop offset="51%" stop-color="#111c36"/><stop offset="85%" stop-color="#33456b"/></linearGradient><linearGradient id="b" x1="36.147%" x2="66.585%" y1="6.8%" y2="101.691%"><stop offset="0%" stop-color="#39466e"/><stop offset="51%" stop-color="#111c36"/><stop offset="100%" stop-color="#33456b"/></linearGradient><linearGradient id="c" x1="44.435%" x2="55.561%" y1="26.43%" y2="73.573%"><stop offset="0%" stop-color="#99cbdd"/><stop offset="82%" stop-color="#e1e6e5"/></linearGradient><linearGradient id="d" x1="49.496%" x2="50.503%" y1=".563%" y2="99.441%"><stop offset="0%" stop-color="#99cbdd"/><stop offset="82%" stop-color="#e1e6e5"/></linearGradient><linearGradient id="e" x1="44.742%" x2="55.275%" y1="29.15%" y2="70.839%"><stop offset="0%" stop-color="#99cbdd"/><stop offset="82%" stop-color="#e1e6e5"/></linearGradient><linearGradient id="f" x1="45.685%" x2="56.975%" y1="16.199%" y2="101.749%"><stop offset="15%" stop-color="#193f5c"/><stop offset="55%" stop-color="#163354"/></linearGradient><linearGradient id="g" x1="26.387%" x2="69.181%" y1="73.425%" y2="34.087%"><stop offset="12%" stop-color="#de7f00"/><stop offset="48%" stop-color="#ffae3d"/><stop offset="74%" stop-color="#ffda6a"/></linearGradient><linearGradient id="h" x1="16.88%" x2="93.066%" y1="84.367%" y2="29.279%"><stop offset="28%" stop-color="#de7f00"/><stop offset="48%" stop-color="#ffae3d"/><stop offset="74%" stop-color="#ffda6a"/></linearGradient><linearGradient id="i" x1="-46.938%" x2="246.702%" y1="50.045%" y2="50.045%"><stop offset="0%" stop-color="#663600"/><stop offset="2%" stop-color="#5e3104"/><stop offset="9%" stop-color="#4d260b"/><stop offset="17%" stop-color="#431f10"/><stop offset="26%" stop-color="#401d11"/><stop offset="49%" stop-color="#663600"/><stop offset="55%" stop-color="#5f3300"/><stop offset="61%" stop-color="#512b00"/><stop offset="69%" stop-color="#4a2703"/><stop offset="80%" stop-color="#381b0a"/><stop offset="84%" stop-color="#30160d"/></linearGradient><linearGradient id="j" x1="58.787%" x2="22.048%" y1="23.907%" y2="119.696%"><stop offset="0%" stop-color="#fcbba7"/><stop offset="48%" stop-color="#fa9778"/><stop offset="66%" stop-color="#f39071"/><stop offset="91%" stop-color="#e17e5f"/><stop offset="100%" stop-color="#d97657"/></linearGradient><linearGradient id="k" x1="42.958%" x2="70.544%" y1="30.618%" y2="76.35%"><stop offset="0%" stop-color="#fcbba7"/><stop offset="48%" stop-color="#fa9778"/><stop offset="66%" stop-color="#f39071"/><stop offset="91%" stop-color="#e17e5f"/><stop offset="100%" stop-color="#d97657"/></linearGradient><linearGradient id="l" x1="-64.724%" x2="104.749%" y1="50.012%" y2="50.012%"><stop offset="28%" stop-color="#de7f00"/><stop offset="48%" stop-color="#ffae3d"/><stop offset="74%" stop-color="#ffda6a"/></linearGradient><linearGradient id="m" x1="0%" x2="240.594%" y1="50%" y2="50%"><stop offset="5%" stop-color="#3468b5"/><stop offset="54%" stop-color="#94edff"/></linearGradient><linearGradient id="n" x1="0%" x2="100%" y1="50%" y2="50%"><stop offset="5%" stop-color="#c73900"/><stop offset="77%" stop-color="#ff5615"/></linearGradient><linearGradient id="o" x1="39.649%" x2="75.471%" y1="-20.236%" y2="222.819%"><stop offset="5%" stop-color="#3468b5"/><stop offset="54%" stop-color="#94edff"/></linearGradient><linearGradient id="p" x1="-27.54%" x2="230.581%" y1="78.195%" y2="-23.077%"><stop offset="0%" stop-color="#8cedb1"/><stop offset="2%" stop-color="#90ecb0"/><stop offset="30%" stop-color="#bbe3a1"/><stop offset="41%" stop-color="#d4eab5"/><stop offset="54%" stop-color="#ebf0c6"/><stop offset="63%" stop-color="#f3f2cd"/></linearGradient><linearGradient id="q" x1="1.029%" x2="118.556%" y1="50.544%" y2="49.239%"><stop offset="1%" stop-color="#b4e1dd"/><stop offset="86%" stop-color="#f3f4e5"/></linearGradient><linearGradient id="r" x1="-21.415%" x2="486.797%" y1="52.492%" y2="34.819%"><stop offset="0%" stop-color="#f28a00"/><stop offset="4%" stop-color="#f88b10"/><stop offset="9%" stop-color="#fd8d1d"/><stop offset="14%" stop-color="#ff8d21"/><stop offset="32%" stop-color="#fc821d"/><stop offset="64%" stop-color="#f46411"/><stop offset="100%" stop-color="#e83a00"/></linearGradient><linearGradient id="s" x1="26.393%" x2="91.189%" y1="61.482%" y2="23.73%"><stop offset="2%" stop-color="#b4cbdd"/><stop offset="60%" stop-color="#c1e6de"/></linearGradient><linearGradient id="t" x1="-63.149%" x2="75.762%" y1="-63.105%" y2="75.806%"><stop offset="0%" stop-color="#de7f00"/><stop offset="52%" stop-color="#ffae3d"/><stop offset="100%" stop-color="#ffda6a"/></linearGradient></defs><g fill="none" fill-rule="evenodd"><g fill-rule="nonzero"><path fill="url(#a)" d="m59.637 4.032 52.107.002a6.08 6.08 0 0 1 6.075 6.075l.004 109.784a6.074 6.074 0 0 1-6.074 6.075l-52.108-.002a6.08 6.08 0 0 1-6.075-6.075l-.004-109.784a6.074 6.074 0 0 1 6.074-6.075z" transform="matrix(.989323 .145738 -.145738 .989323 10.387872 -11.794719)"/><path fill="url(#b)" d="m60.209 5.265 51.031.002a4.88 4.88 0 0 1 4.88 4.88l.004 109.181a4.88 4.88 0 0 1-4.879 4.88l-51.031-.002a4.88 4.88 0 0 1-4.88-4.88L55.33 10.145a4.88 4.88 0 0 1 4.879-4.88z" transform="matrix(.989323 .145738 -.145738 .989323 10.34974 -11.802325)"/></g><g stroke="#20283d" stroke-width=".5"><path d="M93.664 11.399a1.054 1.054 0 0 1-.711-.425 1.08 1.08 0 0 1 .227-1.522c.231-.177.523-.251.81-.207.592.091 1.001.641.919 1.235-.07.461-.422.828-.879.919a1.12 1.12 0 0 1-.365 0zm.267-1.788a.74.74 0 0 0-.533.138.67.67 0 0 0-.277.474.71.71 0 0 0 .84.81.68.68 0 0 0 .296-.138.71.71 0 0 0 .277-.464.71.71 0 0 0-.603-.82zm4.247 5.533-10.263-1.512a1.067 1.067 0 0 1-.316-.84.87.87 0 0 1 .316-.672.89.89 0 0 1 .652-.158l9.878 1.462a.85.85 0 0 1 .573.336.89.89 0 0 1 .158.652.87.87 0 0 1-.701.731.7.7 0 0 1-.296 0zm-10.105-1.858 10.155 1.492h.168a.503.503 0 0 0 .405-.425.513.513 0 0 0-.425-.563l-9.878-1.462a.49.49 0 0 0-.365.099.46.46 0 0 0-.198.356.69.69 0 0 0 .138.504z" opacity=".89"/><path d="M77.74 119.334a5.365 5.365 0 1 1 1.579-10.614 5.365 5.365 0 0 1-1.579 10.614zm1.511-10.246a4.99 4.99 0 0 0-1.458 9.872 4.99 4.99 0 0 0 5.666-4.201 5 5 0 0 0-4.208-5.671z"/></g><g fill-rule="nonzero"><path fill="url(#c)" d="m43.053 34.345 86.385-.003-.002 53.925-86.385.003z" transform="matrix(.145738 -.989323 .989323 .145738 13.024074 137.694697)"/><path fill="url(#d)" d="M90.399-6.547h3.725l-.002 53.925h-3.725z" transform="matrix(.145738 -.989323 .989323 .145738 58.618037 108.715502)"/><path fill="url(#e)" d="m49.289 40.931 72.552-.003-.001 42.308-72.552.003z" opacity=".81" transform="matrix(.145738 -.989323 .989323 .145738 11.672811 137.686571)"/><path fill="url(#f)" d="m35.63 78.212 3.526-39.897-.85-.573-13.839-.761-.79.336-3.131 38.672z" transform="translate(50.487 26.993)"/><path fill="url(#g)" d="m55.13 81.087-2.055-35.214-13.869-8.062-.049.504-3.526 39.897z" transform="translate(50.487 26.993)"/><path fill="url(#h)" d="m20.546 75.989 3.131-38.672.207-2.599L6.46 43.551 0 72.966z" transform="translate(50.487 26.993)"/><path fill="url(#i)" d="M45.785 8.407a4.801 4.801 0 0 0-4.583-5.009 4.94 4.94 0 0 0-.662 0C38.119 1.51 36.391-.555 32.341.137a5.61 5.61 0 0 0-3.803 2.539 4.2 4.2 0 0 0-.306.593 8.447 8.447 0 0 0-3.951 1.522 4.94 4.94 0 0 0-3.181 6.314l.336 1.176a22.22 22.22 0 0 0 1.245 6.304c.198 0 .78.672.78.672s2.114 1.69 2.736.672a20.04 20.04 0 0 0 .573-2.391v-1.64a14.13 14.13 0 0 1 .128-3.596 4.01 4.01 0 0 1 1.373-2.055 11.59 11.59 0 0 0 5.265 1.047 3.755 3.755 0 0 0 1.976.632c.69.035 1.376-.13 1.976-.474a4.8 4.8 0 0 0 3.299 1.541c.243.02.488.02.731 0a4.32 4.32 0 0 1 .543 1.176c.198.879 1.976-.692 2.677-2.964a4.81 4.81 0 0 0 1.047-2.796z" transform="translate(50.487 26.993)"/><path fill="#e17460" d="m93.328 39.253.188 5.454z" opacity=".46"/><path fill="url(#j)" d="M43.355 27.545v-.494l-.326-9.317v-.613l-.148-4.496a4.73 4.73 0 0 1-2.074.385 4.8 4.8 0 0 1-3.378-1.561 3.602 3.602 0 0 1-1.976.474 3.794 3.794 0 0 1-3.418-2.529 9.957 9.957 0 0 0-2.578.178 4.06 4.06 0 0 0-2.588 2.727 14.13 14.13 0 0 0-.128 3.596v1.64a11.455 11.455 0 0 1-.474 1.887c-.741 1.225-1.294-.148-1.521-.919a.62.62 0 0 0-.622-.435 2.786 2.786 0 0 0-2.716 3.359l.079.425a3.3 3.3 0 0 0 3.359 2.727v1.047L23.7 36.504a5.01 5.01 0 0 0 4.416 5.543l3.517.395a5.02 5.02 0 0 0 5.542-4.426l.395-3.567a6.69 6.69 0 0 0 5.789-6.906z" transform="translate(50.487 26.993)"/><g fill="#e17460"><path d="M93.842 54.538v-.494a6.368 6.368 0 0 1-1.715 4.574 6.37 6.37 0 0 1-4.449 2.016l-4.495.158a6.38 6.38 0 0 1-4.577-1.725 6.38 6.38 0 0 1-2.011-4.46l-.109-3.102H75.36l.128 3.596a6.69 6.69 0 0 0 4.08 5.928 2.772 2.772 0 0 0-.099.81c.059 1.759 1.847 3.132 3.951 3.053s3.833-1.571 3.773-3.33v-.168h.178a6.69 6.69 0 0 0 6.47-6.857z" opacity=".46"/><path d="M87.342 57.206a.17.17 0 0 1-.109-.059.177.177 0 0 1 0-.256 1.79 1.79 0 0 1 1.976-.336.187.187 0 0 1 .079.257c-.025.044-.06.078-.106.093s-.098.01-.141-.014a1.42 1.42 0 0 0-1.59.267.185.185 0 0 1-.109.049zm-13.197-7.697a.193.193 0 0 1-.153-.244.186.186 0 0 1 .094-.112l.909-.445-.79-1.541a.17.17 0 0 1-.019-.142c.015-.048.051-.086.098-.105s.094-.029.141-.014.085.049.106.093l.988 1.867-1.245.622a.227.227 0 0 1-.128.02z"/></g><g fill="#fff"><path d="m90.157 63.44 1.195 4.318a1.402 1.402 0 0 1-.395 1.413l-4.672 4.367a.73.73 0 0 1-1.334-.059l-3.161-4.822 7.112-5.997c.514-.484 1.284-.03 1.255.781z"/><path d="m73.878 60.15 8.841 8.892-6.421 4.071a1.382 1.382 0 0 1-1.857-.326l-4.307-6.412a1.421 1.421 0 0 1 0-1.551l2.855-4.604a.65.65 0 0 1 .889-.069z"/></g><path fill="url(#k)" d="M55.297 49.154v-1.512l.079-5.632c-2.963-.83-5.828-4.683-5.818-4.673L47 35.044a1.234 1.234 0 0 1-.217-1.62 1.186 1.186 0 0 1 1.749-.188l2.43 2.174a.583.583 0 0 0 .988-.494 4.38 4.38 0 0 0-.988-2.055l-5.828-6.353a1.187 1.187 0 0 1 .07-1.679 1.57 1.57 0 0 1 1.857.277l4.05 4.417a.574.574 0 0 0 .711.109l.158-.099a.573.573 0 0 0 .217-.771l-3.368-6.709a1.236 1.236 0 0 1 .385-1.591 1.186 1.186 0 0 1 1.699.464l3.28 6.521a.78.78 0 0 0 .929.395.88.88 0 0 0 .573-1.107l-1.976-6.215a1.226 1.226 0 0 1 .632-1.512 1.173 1.173 0 0 1 1.6.721l2.065 6.462c.142.429.415.802.78 1.067a.62.62 0 0 0 .677.039.622.622 0 0 0 .311-.602l-.257-3.033a1.236 1.236 0 0 1 .938-1.344 1.194 1.194 0 0 1 1.412 1.057l.77 6.61a39.53 39.53 0 0 1 .682 10.869l.504 5.701.138 1.294-8.673 1.304z" transform="translate(50.487 26.993)"/><path fill="#e27f6d" d="M105.794 64.211a.375.375 0 0 1-.286-.227 3.556 3.556 0 0 0-3.28-2.055.364.364 0 0 1-.376-.366.374.374 0 0 1 .356-.385 4.337 4.337 0 0 1 3.951 2.52.377.377 0 0 1-.207.494.446.446 0 0 1-.158.02z"/><path fill="url(#l)" d="M52.561 42.712a3.16 3.16 0 0 0-2.578 3.369L52.7 80.366c-.207 3.221 5.542 5.928 11.597 4.851a10.069 10.069 0 0 0 6.559-4.301 10.07 10.07 0 0 0 1.482-7.703l-5.68-29.928a3.17 3.17 0 0 0-3.694-2.529l-10.402 1.956z" transform="translate(50.487 26.993)"/><circle cx="95.393" cy="97.863" r="3.991" fill="url(#m)"/><path fill="#fff" d="m97.734 97.508-.859.099.069-.435c.011-.073-.008-.148-.052-.208s-.111-.099-.185-.108l-2.479-.366a.286.286 0 0 0-.316.237l-.267 1.818a.286.286 0 0 0 .237.316l2.47.366a.286.286 0 0 0 .326-.237l.059-.435.79.336.267-1.344s0-.049-.059-.04z"/><circle cx="81.919" cy="95.877" r="3.991" fill="url(#n)"/><path fill="#fff" d="M84.3 96.451v-.267a1.77 1.77 0 0 0-1.492-1.976l-1.185-.178a1.978 1.978 0 0 0-2.292 1.709v.089a.529.529 0 0 0-.207.336v.119a.108.108 0 0 0 0 .079v.346a.247.247 0 0 0 .217.267l1.422.207a.246.246 0 0 0 .237-.188v-.326a.457.457 0 0 0 0-.128v-.109a.555.555 0 0 0-.227-.514.533.533 0 0 1 .593-.435l1.185.178c.149.02.255.157.237.306v.316a.485.485 0 0 0-.247.366v.119a.21.21 0 0 0 0 .079v.346a.257.257 0 0 0 .227.267l1.413.207a.257.257 0 0 0 .296-.198v-.316a.457.457 0 0 0 0-.128v-.119a.524.524 0 0 0-.178-.455z"/><circle cx="68.522" cy="93.904" r="3.992" fill="url(#o)" transform="matrix(.145738 -.989323 .989323 .145738 -34.365024 148.008921)"/><path fill="#fff" d="M68.396 94.751a.89.89 0 0 0 .988-.751l.198-1.294a.89.89 0 0 0-1.213-.982.89.89 0 0 0-.545.725l-.198 1.294a.89.89 0 0 0 .77 1.008zm1.521-1.077a.187.187 0 0 0-.217.158l-.089.632a.69.69 0 0 1-.77.573l-.909-.138a.72.72 0 0 1-.603-.81l.099-.642a.19.19 0 0 0-.375-.059l-.089.642a1.096 1.096 0 0 0 .919 1.245h.247l-.079.563h-.296a.198.198 0 0 0-.217.158c-.012.1.058.192.158.207l.988.148a.207.207 0 0 0 .217-.158.198.198 0 0 0-.158-.217h-.306l.079-.553h.286c.277.042.559-.028.783-.195a1.05 1.05 0 0 0 .412-.694l.099-.632a.189.189 0 0 0-.178-.227z"/><path fill="#45240c" d="M82.304 41.456s.988.138.612 1.047-2.371-.188-3.892 1.462c0 0-.533-2.203 3.28-2.51zm6.144-.682s-.988.178-.583 1.077 2.371-.277 3.951 1.314c.049.04.445-2.233-3.368-2.391zm-1.946 10.72a5.58 5.58 0 0 1-3.191-.988.25.25 0 0 1-.118-.167.243.243 0 0 1 .048-.198.257.257 0 0 1 .172-.118.26.26 0 0 1 .203.049c.109.079 2.865 1.976 4.662-.089a.266.266 0 0 1 .375 0 .276.276 0 0 1 0 .375 3.11 3.11 0 0 1-2.153 1.136zm-.049-3.715a2.57 2.57 0 0 1-1.255-.207.267.267 0 1 1 .217-.484c.349.146.731.197 1.106.148l-1.067-2.44a.277.277 0 0 1 .128-.356.266.266 0 0 1 .356.138l1.205 2.747c.029.066.029.141 0 .207s-.086.125-.158.148a2.54 2.54 0 0 1-.533.099zm-3.625-.948c.049.652-.198 1.196-.563 1.225s-.691-.474-.741-1.116.198-1.196.563-1.225.691.474.741 1.116zm6.401-.494c0 .642-.207 1.186-.563 1.215s-.701-.474-.751-1.116.207-1.196.563-1.225.701.504.751 1.126z"/><path fill="#fa6e64" d="M75.123 48.945c0 .731.988 1.373 2.203 1.423s2.282-.504 2.311-1.245-.988-1.373-2.203-1.423-2.282.504-2.311 1.245zm14.086-.267c.217.711 1.363.988 2.558.622s1.976-1.235 1.778-1.976-1.363-.988-2.558-.613-1.985 1.275-1.778 1.966z" opacity=".23"/><path fill="url(#p)" d="M16.437 15.747h27.165c1.195 0 2.163.969 2.163 2.164v16.708a2.167 2.167 0 0 1-2.163 2.204h-4.03l.929 6.294-8.377-6.294H16.437a2.163 2.163 0 0 1-2.163-2.154V17.911c0-1.195.969-2.164 2.163-2.164z"/><path fill="#fff" d="M42.812 21.26h-21.95v-1.028h21.949zm-3.645 3.261h-21.95v-1.028h21.949zm-11.429 3.3h-10.52v-1.028h10.52zm14.619 5.236h-10.52V32.03h10.52z"/><rect width="56.641" height="18.111" y="91.826" fill="url(#q)" rx="1.748"/><g fill="#fff"><rect width="32.133" height="1.591" x="19.351" y="96.905" rx=".691"/><rect width="32.133" height="1.591" x="19.351" y="100.403" rx=".691"/><rect width="32.133" height="1.591" x="19.351" y="103.584" rx=".691"/></g><path fill="url(#r)" d="M9.927 107.131a6.55 6.55 0 0 1-6.539-6.541 6.54 6.54 0 0 1 6.539-6.541 6.54 6.54 0 0 1 6.539 6.541 6.55 6.55 0 0 1-6.539 6.541z"/><path fill="#fff" d="M8.89 99.178a1.254 1.254 0 0 1 1.689-1.371c.419.16.72.532.791.975a1.267 1.267 0 0 1-1.491 1.443 1.246 1.246 0 0 1-.988-1.047zm-1.739.089a2.89 2.89 0 0 0 .405 1.581l.395.672 2.153 3.883 1.827-3.369.691-1.116a3.036 3.036 0 0 0 .445-1.571 2.964 2.964 0 1 0-5.927-.069l.01-.01zm142.146-36.193h-19.983c-.209-.005-.375-.176-.375-.385s.168-.375.375-.375h19.983a.373.373 0 0 1 .385.375.387.387 0 0 1-.385.385z"/><path fill="url(#s)" d="M167.384 51.899h-42.09a3.781 3.781 0 0 0-3.793 3.794v20.828a.69.69 0 0 0 1.195.484l3.734-3.952a1.75 1.75 0 0 1 1.264-.543h39.66a3.26 3.26 0 0 0 3.25-3.28V55.18a3.27 3.27 0 0 0-3.22-3.28z"/><path fill="#fff" d="M153.9 59.685h-26.67c-.207 0-.375-.168-.375-.375s.166-.38.375-.385h26.67c.209.005.375.176.375.385s-.168.375-.375.375zm10.965 0h-9.256c-.207 0-.375-.168-.375-.375s.166-.38.375-.385h9.256c.211.005.38.175.385.385a.384.384 0 0 1-.385.375zm-.326 3.389h-14.965a.385.385 0 0 1-.385-.385.377.377 0 0 1 .385-.375h14.965c.207 0 .375.168.375.375s-.166.38-.375.385zm-11.429 3.389h-25.88a.385.385 0 0 1 0-.76h25.881a.385.385 0 1 1 0 .76z"/><circle cx="167.722" cy="51.467" r="5.147" fill="url(#t)" transform="matrix(.707107 -.707107 .707107 .707107 12.731674 133.671641)"/><path fill="#fff" d="M168.303 53.876h-.701v-4.278l-.721.435v-.731l.721-.474h.701z"/></g></g></svg>