<svg xmlns="http://www.w3.org/2000/svg" xmlns:xlink="http://www.w3.org/1999/xlink" width="125" height="125"><defs><circle id="a" cx="62.5" cy="62.5" r="62.5"/></defs><g fill="none" fill-rule="evenodd"><mask id="b" fill="#fff"><use xlink:href="#a"/></mask><g mask="url(#b)"><path fill="#EAF6F6" d="M0 125h125V0H0z"/><path fill="#B6DAB6" d="M39.771 97.738v1.738c0 .64.989.64.989 0v-1.738c0-.64-.989-.64-.989 0M41.502 90.786c0-.263-.225-.506-.495-.496a.71.71 0 0 0-.678.501c-.079.231-.063.5-.064.74a.5.5 0 0 0 .495.496.5.5 0 0 0 .494-.496q0-.12.002-.242l.003-.082a.49.49 0 0 0 .243-.42M45.21 91.78a.5.5 0 0 0-.494.496v.745a.5.5 0 0 0 .494.496.5.5 0 0 0 .494-.496v-.745a.5.5 0 0 0-.494-.497M43.48 99.476v.993c0 .64.988.64.988 0v-.993c0-.641-.989-.641-.989 0M43.48 107.172v1.986c0 .64.988.64.988 0v-1.986c0-.64-.989-.64-.989 0M48.616 112.937l.001-.026c.014-.258.051-.516.054-.774.007-.64-.981-.64-.989 0-.004.39-.097.786-.051 1.176.027.236.102.488.331.605.3.153.585.027.812-.189.29-.277.122-.657-.158-.792M48.671 105.434a.5.5 0 0 0-.494.496v.745a.5.5 0 0 0 .494.497.5.5 0 0 0 .495-.497v-.745a.5.5 0 0 0-.495-.496M48.671 98.482a.5.5 0 0 0-.494.497v.745a.5.5 0 0 0 .494.497.5.5 0 0 0 .495-.497v-.745a.5.5 0 0 0-.495-.497M48.177 91.035v1.737c0 .64.989.64.989 0v-1.737c0-.64-.99-.64-.99 0M42.985 113.875a.5.5 0 0 0-.495.496v.248a.5.5 0 0 0 .495.497.5.5 0 0 0 .494-.497v-.248a.5.5 0 0 0-.494-.496M52.627 111.64v1.242c0 .64.989.64.989 0v-1.241c0-.641-.99-.641-.99 0M52.627 104.44v.994c0 .64.989.64.989 0v-.993c0-.64-.99-.64-.99 0M53.368 96.745c0 .422.002.848-.18 1.239-.267.576.586 1.08.854.5.26-.56.315-1.127.315-1.74 0-.64-.988-.64-.989 0M54.008 89.69c-.334.351-.618.851-.64 1.345-.012.27.234.496.495.496.278 0 .482-.226.494-.496q.009-.042.021-.081c.028-.096.034-.1.08-.192a1.5 1.5 0 0 1 .249-.37c.44-.462-.258-1.165-.7-.702M58.313 91.283v.993c0 .64.989.64.989 0v-.993c0-.64-.989-.64-.989 0M57.818 98.73v1.242c0 .64.99.64.99 0V98.73c0-.64-.99-.64-.99 0M58.066 107.668a.5.5 0 0 0-.495.497v.496a.5.5 0 0 0 .495.497.5.5 0 0 0 .494-.497v-.496a.5.5 0 0 0-.494-.497M61.1 112.383c-.26.561-.314 1.127-.315 1.74 0 .64.988.64.99 0 0-.422-.002-.848.179-1.239.267-.577-.586-1.081-.854-.501M61.28 103.2c0 .643-.034 1.237-.23 1.854-.194.611.76.872.953.264.221-.697.265-1.393.265-2.119 0-.64-.988-.64-.989 0M61.774 97.738v.993c0 .64.989.64.989 0v-.993c0-.64-.989-.64-.989 0M62.865 90.435a.496.496 0 0 0-.7 0c-.294.314-.39.674-.391 1.096a.5.5 0 0 0 .494.496.5.5 0 0 0 .495-.496l.001-.124c0-.014.007-.07.01-.1.01-.031.027-.077.029-.087l.024-.04.038-.043a.504.504 0 0 0 0-.702M65.977 111.64c-.006.183-.06.349-.117.522a2.5 2.5 0 0 0-.13.72c-.02.64.97.638.988 0 .006-.183.06-.349.117-.522q.118-.35.13-.72c.02-.64-.97-.638-.988 0M66.718 104.44a.5.5 0 0 0-.494.497l-.001.125c0 .014-.007.07-.01.1-.01.031-.027.076-.029.087l-.025.04-.038.042a.505.505 0 0 0 0 .702.497.497 0 0 0 .7 0c.295-.313.392-.673.392-1.096a.5.5 0 0 0-.495-.496M66.863 97.386c-.39.442-.391 1.033-.392 1.593 0 .64.989.64.989 0 0-.232-.062-.704.102-.89.423-.476-.274-1.181-.699-.703M66.718 91.283a8 8 0 0 1-.005.262s-.009.09-.008.101a2 2 0 0 1-.042.185l-.012.035c-.017.024-.083.112-.035.059a.505.505 0 0 0 0 .702c.184.185.518.2.7 0 .336-.37.39-.862.391-1.344 0-.64-.988-.64-.989 0M70.741 110.893c-.26.561-.314 1.128-.314 1.74 0 .641.988.641.989 0 0-.422-.002-.847.18-1.238.266-.577-.586-1.082-.855-.502M71.236 103.693c-.26.562-.314 1.129-.315 1.741 0 .64.989.64.99 0 0-.422-.002-.848.179-1.239.267-.577-.585-1.082-.854-.502M71.236 94.757c-.26.56-.314 1.127-.315 1.74 0 .64.989.64.99 0 0-.422-.002-.848.179-1.24.267-.576-.585-1.08-.854-.5M71.91 89.793c-.638 0-.638.993 0 .993s.638-.993 0-.993M75.868 112.453c-.221-.13-.556-.064-.676.178-.18.359-.383.728-.494 1.114-.078.272-.008.53.23.692.28.192.593-.015.793-.211a.45.45 0 0 0 .075-.578q.12-.26.25-.516c.12-.242.066-.536-.178-.679M75.124 105.434v1.241c0 .64.99.64.99 0v-1.24c0-.641-.99-.641-.99 0M75.866 99.724v.993c0 .64.988.64.988 0v-.993c0-.64-.988-.64-.988 0M76.13 91.895c-.22.697-.264 1.393-.264 2.119 0 .64.988.64.988 0 0-.643.035-1.238.23-1.854.194-.612-.76-.872-.953-.265M80.563 92.027v1.242c0 .64.989.64.989 0v-1.242c0-.64-.99-.64-.99 0M80.563 100.469v1.489c0 .64.989.64.989 0v-1.49c0-.64-.99-.64-.99 0M79.574 108.413v.993c0 .64.989.64.989 0v-.993c0-.64-.99-.64-.99 0M84.026 112.95c-.218-.13-.559-.066-.676.178-.237.49-.315.95-.315 1.491 0 .64.989.64.99 0 0-.362.02-.66.179-.99.117-.244.068-.535-.178-.68M84.271 105.434v1.738c0 .64.99.64.99 0v-1.738c0-.64-.99-.64-.99 0M84.766 97.241c-.017.505-.23.98-.248 1.49-.021.64.968.638.99 0 .017-.505.23-.98.247-1.49.021-.64-.968-.638-.99 0M86.147 89.442c-.53.56-.868 1.312-.887 2.09-.015.64.974.639.989 0 .013-.514.248-1.02.597-1.388.44-.463-.259-1.166-.7-.702M38.355 77.13c-.223.48-.274 1.013-.494 1.489-.268.577.585 1.081.854.501.223-.48.273-1.014.494-1.49.268-.576-.584-1.08-.854-.5M41.075 71.42c-.486.755-.79 1.58-.81 2.484-.013.641.976.64.99 0 .015-.733.281-1.374.674-1.983.347-.54-.51-1.038-.854-.502M41.929 81.102c-.26-.582-.18-1.363-.18-1.984 0-.64-.99-.64-.989 0 0 .828-.03 1.715.315 2.485.26.583 1.112.078.854-.501M44.818 71.07a.496.496 0 0 0-.7 0c-.295.314-.39.674-.391 1.096a.5.5 0 0 0 .494.497.5.5 0 0 0 .495-.497v-.124l.011-.1c.01-.031.027-.076.029-.086l.024-.041.038-.042a.504.504 0 0 0 0-.702M83.922 78.27c-.392.441-.392 1.033-.393 1.593 0 .64.99.64.99 0 0-.233-.063-.704.102-.89.423-.477-.274-1.182-.7-.703M86.746 72.482c-.219-.128-.559-.065-.677.179-.194.403-.3.84-.494 1.24-.118.245-.068.536.177.68.22.13.56.065.677-.178.195-.403.3-.84.494-1.241.118-.244.068-.535-.177-.68M87.587 78.767a.496.496 0 0 0-.699 0c-.295.313-.391.673-.392 1.096a.5.5 0 0 0 .495.496.5.5 0 0 0 .494-.496l.001-.124c0-.015.008-.071.01-.1l.03-.087q.01-.022.024-.04l.037-.043a.504.504 0 0 0 0-.702"/><path fill="#D7937A" d="M75.536 32.569c.148-.504.319-1.118.042-1.444-.171-.202-.66-.245-.917-.362a8.5 8.5 0 0 1-1.375-.811c-.892-.639-2.21-1.302-3.29-1.65-2.097-.675-8.642-4.377-9.822-1.718-.424.955.023 6.171-.105 7.19-.276 2.216-.62 13.826-4.301 13.37 1.753.342 2.777 1.557 4.345 2.27 1.73.788 3.745 1.305 5.675 1.473 2.06.18 4.353-.186 6.272-.924 1.33-.513 2.686-1.171 3.737-2.155.63-.59 1.19-1.374 1.315-2.253.128-.888-.713-1.717-1.188-2.364-.59-.801-1.024-1.921-1.184-2.959-.377-2.45.268-4.768.663-7.151.023-.14.076-.317.133-.512"/><path fill="#E3E1E3" d="m66.754 36.576.053.016-.01-.003z"/><path fill="#AB8476" d="M64.167 18.082q-.099-.15-.204-.272zM63.624 17.476q.175.139.339.334l-.372-.496q.017.076.033.162"/><path fill="#D7937A" d="m63.493 30.223-.028-.016.084.096q.156.184.293.373a3 3 0 0 0-.349-.453"/><path fill="#E9A280" d="M76.455 16.629c-.177-.67-.145-1.149-.85-1.127-.349.01-.688.086-1.029.16-.36.078-.722.154-1.097.152a29 29 0 0 1-1.45-.046c.08-.452.188-.785-.164-1.205-1.224-1.465-3.461-.907-5.007-1.73-1.41-.749-3.226-1.04-4.04.893-1.072 2.546-.904 5.449-.8 8.16.02.543.5 1.577.049 2.033-.86.868-1.852-.775-2.805-.541-2.578.635-1.822 4.328.066 5.264 1.694.84 1.822 2.834 2.71 4.331 1.056 1.778 2.991 2.873 4.8 3.622 1.495.618 3.035 1.358 4.684 1.2 2.019-.192 2.898-1.48 3.7-3.343.34-.791.613-1.578.846-2.197.861-2.271 1.235-4.779 1.348-7.207.112-2.364-.177-4.493-.61-6.824q-.145-.804-.35-1.595"/><path fill="#534444" d="M66.834 20.462c.019-.023.154.06.352.2.609.434 1.803 1.413 1.937 1.503.823.552 1.407-.057 1.835-.824-.64-.17-1.218-.254-1.814-.558-.584-.299-1.727-1.067-2.31-.32"/><path fill="#C4836D" d="m59.283 27.088.803.146c-.042-.607-.063-1.229-.14-1.829-1.166-.203-.92.974-.663 1.683"/><path fill="#534444" d="M74.357 20.076c-.115.094-1.38 1.221-1.477 1.128.473.46.87.763 1.316.578.15-.062.305-.178.471-.365.096-.106 1.12-1.666 1.225-1.552-.627-.683-.946-.273-1.535.21"/><path fill="#DAB0A1" d="m65.185 25.8.004.002-.007-.005z"/><path fill="#DFB9A9" d="M61.975 22.985a.1.1 0 0 1-.012-.04z"/><path fill="#6F5655" d="M77.679 11.233c-.113-.435.136-1.109.238-1.688.063-.348.071-.663-.081-.87-.51-.69-2.466.732-2.97 1.094.907-2.93-1.822-1.453-3.128-.922-1.68.684-2.86 1.523-4.74 1.412-2.372-.14-5.344-.66-7.31 1.097-2.27 2.028-2.079 7.004-1.21 9.66.232.705.172 1.508.44 2.198.416 1.07 1.019.735 1.616 1.348.745.766.27 3.244 1.835 2.972.496-3.018-.214-6.297.206-9.376.187-1.373-.046-1.797 1.147-2.298 1.25-.524 3.067-.844 4.373-.408.722.242 1.052.85 1.698 1.18 1.062.544 2.477.832 3.652.727 1.811-.163 3.934-.736 5.283-2.077.724-.72 2.25-3.525 1.277-4.452-.554-.528-1.459.502-2.326.403"/><path fill="#534444" d="M76.076 15.53c-1.61.567-3.377.722-5.056.56-1.294-.126-2.238-.787-3.434-1.234-1.658-.619-5.304.059-5.99 1.934-.385 1.05-.295 2.07-.23 3.14.128 2.176-2.455.282-3.186-.15.153 1.103.359 3.372 1.14 4.202.442.468 1.134.304 1.485.977.647 1.244.08 2.8 2.003 2.803-.448-3.267-.23-6.647-.12-9.944.019-.561.114-.97.511-1.376.36-.369.863-.564 1.343-.71.946-.288 2.066-.598 3.024-.2.845.353 1.18 1.287 1.954 1.677 3.165 1.596 10.66.183 10.522-4.504-1.038 1.369-2.43 2.283-3.966 2.824"/><path fill="#EA8871" d="M64.52 26.516c-.03.054-.08.145-.021.028-.939 1.396 1.881 2.612 2.548 1.288.838-1.66-1.97-2.266-2.526-1.316"/><path fill="#926266" d="M60.575 14.39a.67.67 0 0 0-.331.363.42.42 0 0 0 .215.54.393.393 0 0 0 .5-.188l.002-.002h-.002v.002-.001a.424.424 0 0 0 .134-.49c-.08-.205-.32-.313-.518-.223"/><path fill="#886C6C" d="M60.966 15.112"/><path fill="#926266" d="M62.168 12.495c-.182-.144-.413-.09-.557.079-.007.01-.069.077-.065.073l-.087.09a5 5 0 0 0-.27.288c-.143.168-.086.45.076.578.183.144.414.09.557-.08.008-.009.07-.076.065-.072l.087-.09c.093-.094.185-.187.27-.288.143-.168.086-.45-.076-.578M64.145 12.019c-.326-.058-.627.03-.929.159a.423.423 0 0 0-.213.54c.083.208.319.31.519.223.197-.085.311-.14.515-.104.214.037.419-.135.448-.354a.416.416 0 0 0-.34-.464M66.04 12.498h-.01l-.076-.009-.027-.01-.017-.018-.004-.011a.396.396 0 0 0-.519-.223.42.42 0 0 0-.215.539c.176.412.552.576.966.552.216-.013.37-.25.345-.461-.028-.235-.228-.372-.444-.36M68.293 12.287l-.53-.04a.41.41 0 0 0-.449.354c-.028.212.124.45.34.465l.531.04a.41.41 0 0 0 .449-.354c.028-.212-.124-.45-.34-.465M62.286 14.947c-.181-.141-.415-.09-.557.08-.157.189-.297.4-.322.657-.02.223.12.433.34.465.207.03.426-.13.447-.353l.005-.04q.007-.019.015-.038.068-.1.149-.192c.142-.17.087-.45-.077-.579M64.062 13.753c-.325-.058-.626.03-.926.16a.423.423 0 0 0-.215.54c.083.207.319.308.519.222.197-.085.31-.14.515-.104.214.038.419-.135.448-.353a.416.416 0 0 0-.34-.465M66.038 13.572h-.022l-.056-.004a1 1 0 0 1-.126-.026c-.088-.028-.175-.066-.262-.102a.396.396 0 0 0-.518.223.424.424 0 0 0 .215.54c.282.121.558.205.867.188.216-.01.37-.25.344-.46-.028-.236-.226-.37-.442-.36M68.823 13.443a1.5 1.5 0 0 1-.787-.081c-.478-.195-.782.568-.305.763.38.155.788.195 1.192.138.507-.072.408-.891-.1-.82M70.019 14.716l-.045.002h-.018a1 1 0 0 1-.152-.023l-.011-.003q-.038-.016-.075-.034l-.01-.007c-.016-.011-.084-.085-.023-.016-.146-.165-.375-.218-.557-.07-.16.129-.216.413-.069.579.28.315.656.416 1.06.392.214-.013.369-.249.344-.461a.41.41 0 0 0-.444-.36M59.223 17.786a.396.396 0 0 0-.519.224c-.111.306-.098.624-.077.946a.403.403 0 0 0 .443.358c.224-.029.362-.236.346-.46l-.009-.138-.006-.127a2 2 0 0 1 .024-.226q0 .005.014-.038c.076-.21-.011-.45-.216-.54M59.313 15.422a.396.396 0 0 0-.52.224 1.1 1.1 0 0 0-.072.361q-.001.112.004.224.004.03.004.058v.012c-.01.225.113.433.34.465.202.029.437-.128.448-.353a3 3 0 0 0-.005-.313l-.003-.043.008-.06v-.008q.006-.01.01-.026a.424.424 0 0 0-.214-.54M59.771 13.17c-.177-.14-.419-.095-.556.08-.157.199-.2.451-.218.701-.016.225.115.433.338.465.206.03.433-.129.449-.353q.007-.12.025-.241l.016-.042v-.001l.023-.03c.138-.174.091-.447-.077-.58M60.323 17.958c-.222-.032-.409.132-.448.353-.054.304-.041.613-.02.92a.4.4 0 0 0 .443.359c.224-.03.36-.237.346-.461a2.7 2.7 0 0 1 .019-.706.413.413 0 0 0-.34-.465M60.696 16.841l-.016-.113q-.002-.031-.003-.064c0-.042.005-.086.006-.128.015-.224-.114-.433-.339-.465-.204-.03-.432.128-.447.353-.019.283-.008.544.092.811.08.21.323.308.52.223a.423.423 0 0 0 .214-.539zM70.319 11.442q-.16.07-.32.13l-.112.034c-.043.006-.14.014-.053.017-.216-.007-.415.112-.448.353-.027.205.124.458.342.464.315.01.606-.111.895-.235a.423.423 0 0 0 .215-.54.396.396 0 0 0-.519-.223M70.868 12.815l-.442.19a.424.424 0 0 0-.215.54c.083.208.319.309.52.222l.44-.189a.42.42 0 0 0 .214-.54.394.394 0 0 0-.517-.223M73.387 11.371l-.588.253a.423.423 0 0 0-.215.54c.084.208.32.31.52.223l.587-.253a.423.423 0 0 0 .214-.54.395.395 0 0 0-.518-.223M72.917 13.287c-.366.233-.78.41-1.198.518-.21.053-.374.218-.344.46.024.204.232.413.442.36a5.5 5.5 0 0 0 1.59-.685c.185-.117.189-.42.068-.58-.145-.193-.371-.189-.558-.073M75.114 11.894l-.11.091-.069.049-.013.007c-.088.05-.18.087-.273.127a.424.424 0 0 0-.215.539c.084.208.32.31.52.224.232-.1.455-.216.648-.385a.43.43 0 0 0 .07-.58c-.13-.172-.392-.217-.558-.072M72.966 14.413l-.661.285a.42.42 0 0 0-.214.54c.082.208.32.31.519.223l.66-.284a.424.424 0 0 0 .214-.54.395.395 0 0 0-.518-.224M75.54 12.962c-.2.18-.412.336-.654.445-.47.212-.166.975.304.763.306-.138.585-.331.838-.556.388-.344-.098-.999-.488-.652M77.466 12.906a.365.365 0 0 0-.458.158l-.003.002a.396.396 0 0 0-.201.503.37.37 0 0 0 .485.209c.172-.075.3-.19.377-.37a.393.393 0 0 0-.2-.502M76.308 13.956l-.953.411c-.473.204-.17.967.304.763l.954-.411c.474-.204.17-.967-.305-.763M77.766 13.86c-.172-.074-.36.001-.457.158l-.004.002a.395.395 0 0 0-.2.503c.077.194.299.29.484.208a.68.68 0 0 0 .378-.368.394.394 0 0 0-.201-.502"/><path fill="#534444" d="M75.292 29.177c-.721.05-1.516-.056-2.212-.036-.932.025-1.865.065-2.798.033-1.697-.06-3.61.793-5.273.338-1.812-.497-2.834-2.799-2.74-4.535-.384-.077-.776-.15-1.177-.1.063 2.918.784 5.916 1.718 8.655.717 2.099 1.874 4.095 3.614 5.501 2.454 1.984 6.965 2.663 9.422.171 1.574-1.599 1.92-3.708 2.199-5.82.164-1.229.226-2.105-.073-3.335-.119-.488-.231-1.226-.614-1.585-.832-.779-.885.514-1.597.653q-.228.044-.469.06"/><path fill="#926266" d="M60.69 11.507a1.55 1.55 0 0 0-.564.505c-.11.164-.012.411.143.498.185.103.369.015.48-.15-.057.084.017-.015.031-.03l.06-.055q.106-.083.225-.145c.172-.092.209-.348.112-.506-.108-.18-.316-.208-.486-.117M66.149 31.144a.35.35 0 0 0-.48.148l-.131.277a.38.38 0 0 0 .143.497.35.35 0 0 0 .48-.149l.131-.275c.085-.18.03-.401-.143-.498M65.872 33.359a.346.346 0 0 0-.499.015.383.383 0 0 0 .015.52l.045.046c.135.141.37.126.499-.017a.38.38 0 0 0-.015-.519zM66.279 35.124c-.04-.197-.273-.297-.444-.242-.196.064-.27.265-.231.46q.063.33.178.644c.07.186.25.304.442.24.173-.056.303-.273.232-.46a4 4 0 0 1-.177-.642M67.794 37.105l-.004-.004-.012-.01q-.029-.024-.053-.05h-.001l-.004-.007-.013-.024-.002-.006c-.062-.176-.236-.283-.413-.225a.347.347 0 0 0-.216.43c.078.223.22.368.404.499.15.105.37.012.448-.14.091-.177.014-.359-.134-.463M67.517 30.545a.35.35 0 0 0-.479.15 1.2 1.2 0 0 0-.13.511c-.004.2.187.36.369.351.202-.009.333-.183.338-.383v-.003l.01-.04.035-.088c.086-.179.031-.4-.143-.498M67.21 32.21a.357.357 0 0 0-.425.276 3.3 3.3 0 0 0-.05.695c0 .2.181.36.367.351.2-.009.339-.183.338-.383q-.001-.14.004-.278c.004-.083.008-.116.03-.221a.37.37 0 0 0-.264-.44M67.628 34.889q0-.007-.003-.01v-.008c-.007-.053-.006-.107-.007-.16 0-.201-.181-.36-.367-.352-.199.009-.339.183-.338.383 0 .138.006.288.06.416.078.182.243.305.443.24.167-.055.31-.277.231-.46zM68.547 36.228a1 1 0 0 0-.109-.143c-.12-.139-.35-.113-.465.015-.13.144-.107.346.015.484-.067-.075.002.01.014.028q.05.075.109.143c.12.139.35.113.465-.015.13-.144.107-.346-.014-.484.065.075-.002-.01-.015-.028M76.236 35.895c-.167-.094-.35-.018-.447.139a2 2 0 0 0-.196.472c-.056.177.086.371.249.41.187.045.337-.08.394-.258l.027-.082.003-.01.006-.014a1 1 0 0 1 .097-.193c.097-.157.016-.381-.133-.464M76.834 34.072c-.199.008-.338.182-.338.383q0 .054-.002.108l-.002.011c-.004.027-.036.102.002.012-.077.183-.036.398.144.498.16.089.401.035.478-.15.07-.164.086-.331.086-.51a.36.36 0 0 0-.368-.352M77.3 32.718l-.006-.009v-.014c-.007-.066-.006-.134-.006-.2 0-.2-.181-.36-.368-.352-.198.008-.338.184-.338.383 0 .153 0 .32.06.46.079.184.244.308.443.242.168-.055.31-.277.232-.46a.3.3 0 0 1-.018-.05M68.44 32.337c-.199.009-.338.182-.337.383q0 .054-.003.107l-.002.012c-.003.027-.036.102.003.012-.078.183-.037.398.143.498.16.089.401.035.478-.149.071-.165.087-.332.087-.512a.36.36 0 0 0-.368-.35M68.972 34.569c-.04-.196-.272-.297-.443-.241-.196.064-.271.264-.232.46q.09.436.304.82c.23.41.828.02.6-.39a2.2 2.2 0 0 1-.23-.649M70.017 36.983c.079.03 0-.005-.014-.012a1 1 0 0 1-.062-.04c-.043-.03-.084-.062-.129-.086a.327.327 0 0 0-.447.139.354.354 0 0 0 .134.465q.066.038.128.085c.077.053.157.084.243.117.17.064.358-.092.395-.257.044-.199-.079-.347-.248-.41M71.7 36.471l-.57.001c-.192 0-.343.188-.335.38a.36.36 0 0 0 .366.348h.569c.19 0 .343-.188.335-.38a.36.36 0 0 0-.366-.349M73.493 36.907l-.017.016-.053.037q-.055.034-.112.063c-.161.084-.193.324-.104.472.102.169.294.192.453.108a1.3 1.3 0 0 0 .313-.227c.13-.13.112-.361-.015-.484-.135-.133-.336-.114-.465.015M74.48 35.706c-.054.06-.098.13-.14.2l-.04.069-.003.004q-.01.015-.023.027a.356.356 0 0 0 .014.484.323.323 0 0 0 .466-.014c.055-.06.098-.13.14-.2l.04-.068q0-.003.003-.005.01-.015.022-.027a.354.354 0 0 0-.014-.485.323.323 0 0 0-.465.015M75.56 34.266c-.203-.048-.361.087-.423.276l-.023.064-.022.056a5 5 0 0 0-.088.248c-.062.19.092.399.266.44.2.048.36-.086.423-.276.001-.006.019-.055.022-.064l.021-.056q.046-.123.089-.247c.062-.19-.092-.4-.265-.44M75.895 32.94c-.198.008-.338.182-.337.382v.321c0 .201.182.36.369.352.197-.009.338-.183.337-.383v-.321a.36.36 0 0 0-.369-.351M69.768 33.713c-.456 0-.425.735.03.734.455 0 .423-.735-.03-.734M70.469 35.345a.326.326 0 0 0-.446.139c-.085.162-.027.379.133.465q.063.033.122.074l.005.004.014.01q.04.035.079.073c.129.13.344.12.465-.015a.356.356 0 0 0-.014-.484 1.5 1.5 0 0 0-.358-.266M72.024 35.654l-.008.006-.028.015-.03.009-.053.004c-.18.005-.323.173-.315.357.007.19.164.332.344.327.21-.005.4-.086.555-.236.132-.128.11-.363-.015-.484-.132-.13-.32-.113-.45.002M74.116 35.01a.35.35 0 0 0-.478.149l-.025.047a1 1 0 0 1-.053.06.38.38 0 0 0 .016.519c.141.14.363.126.499-.016a1.1 1.1 0 0 0 .185-.261.38.38 0 0 0-.144-.498"/><path fill="#E9A280" d="M70.131 30.166c-.216.012-.436.036-.545.145-.22.22.034.687.152.903.527.966 2.01 1.81 3.373 1.807 1.08-.004 1.905-.865 2.207-1.594.225-.543.488-1.326-.29-1.662-1.245-.537-3.25.13-4.506.37-.106.02-.247.023-.39.031"/><path fill="#DB9378" d="M68.563 29.815c-.157.005-.322.756-.292.76q.045.005.084-.009c.185-.062.467-.76.208-.751M74.54 29.802a.15.15 0 0 0-.036.059c-.053.148.25.676.374.506.075-.103-.32-.583-.338-.565"/><path fill="#EA8871" d="M74.765 26.496c-.023.036-.061.097-.017.019-.71.94 1.423 1.758 1.928.867.634-1.118-1.492-1.526-1.911-.886"/><path fill="#926266" d="M69.142 38.53c-.18-.09-.402.035-.462.203-.07.195.043.376.222.466.2.1.402.186.616.252.19.059.392-.011.46-.203.061-.172-.03-.407-.22-.466a4 4 0 0 1-.616-.252M72.2 38.955h-.02q-.038-.002-.074-.008-.005 0-.008-.002l-.025-.01-.005-.004c-.157-.1-.36-.076-.463.08a.35.35 0 0 0 .095.47c.2.128.4.154.626.142.182-.01.298-.219.266-.386-.038-.196-.21-.292-.392-.282M72.092 37.8a1 1 0 0 0-.174-.045c-.18-.035-.345.128-.356.3-.014.193.13.338.31.371-.098-.018.008.006.03.013q.085.03.172.045c.181.034.346-.129.357-.3.014-.194-.13-.339-.31-.372.097.018-.007-.006-.029-.013M74.466 37.862c.07-.048-.005-.003-.018.003a1 1 0 0 1-.07.028c-.048.018-.098.033-.144.055a.33.33 0 0 0-.147.445c.084.164.291.24.455.162q.07-.033.144-.056c.087-.031.16-.078.236-.13.15-.1.134-.345.022-.47-.137-.153-.328-.138-.478-.037"/><path fill="#534444" d="M66.81 23.099c.656-.418 1.475-.478 2.04-.15.352.206.915.747.718 2.067l-.602-.077c.11-.741-.045-1.275-.438-1.504-.364-.212-.918-.158-1.378.136-.482.307-.714.784-.622 1.277l-.599.101c-.135-.72.195-1.413.881-1.85M74.668 23.107c.497-.337 1.118-.384 1.547-.118.268.167.695.606.549 1.675l-.457-.063c.082-.6-.037-1.033-.336-1.22-.276-.17-.696-.128-1.044.109-.365.247-.54.633-.47 1.033l-.453.08c-.104-.583.144-1.143.664-1.496"/><path fill="#EA8871" d="M72.984 31.482c.39-.003 1.441-.028 1.388.136.106-.328-.287-.692-.598-.7-.149-.005-.282.084-.443.076-.552-.03-.995-.353-1.568-.109-.267.114-.414.442-.593.662.242-.067.472-.213.725-.24.325-.034.636.127.953.172.016.003.065.003.136.003"/><path fill="#DD7A66" d="M73.99 31.583c-.23-.007-.492.108-.712.107-.577-.003-1.79-.49-2.103.231.07-.162.834.285.948.32.482.15 1.353.135 1.795-.124.04-.023.449-.33.482-.267-.106-.199-.25-.262-.41-.267"/><path fill="#7D6464" d="M73.814 28.753c-.98-.08-1.677.385-.814 1.667.555.822 1.585 1.306 2.454 1.216 1.485-.153 2.042-.84 1.818-2.521-1.117.05-2.336-.27-3.458-.362"/><path fill="#6F5655" d="M70.656 28.611c-1.058.191-2.098.09-3.153-.018-.768-.078.157 2.45.938 2.735.227.083.449.22.71.285.943.236 2.138.094 2.926-.235.791-.33 1.631-1.705 1.055-2.537-.595-.856-1.707-.368-2.476-.23"/><path fill="#DB9378" d="M73.648 26.896c-.221-.255-.432-.528-.527-.832-.288-.925-.203-1.953-.54-2.849-1.67-.191-1.353 4.182-.846 4.996.67 1.076 3.142 1.578 2.608-.353-.089-.313-.402-.623-.695-.962"/><path fill="#926266" d="M68.613 29.076h-.022l-.015-.002-.1-.017a2 2 0 0 0-.26-.026c-.193-.005-.347.194-.338.383.009.21.175.346.368.351h.022l.017.003.098.016q.13.023.26.027c.193.005.346-.194.338-.383a.365.365 0 0 0-.368-.352M70.07 29.028h-.353c-.193 0-.346.19-.337.384a.364.364 0 0 0 .368.351h.353c.193 0 .346-.19.339-.383a.367.367 0 0 0-.37-.352M71.229 28.933l-.055.002c-.192.001-.345.19-.337.383a.364.364 0 0 0 .368.352.7.7 0 0 0 .508-.208c.142-.135.116-.39-.016-.519-.138-.136-.327-.121-.468-.01M69.187 30.102a.3.3 0 0 1-.057.023l-.014.001c-.064.008-.128.006-.193.006-.192 0-.345.19-.338.384.009.205.176.35.37.35.146 0 .306 0 .443-.062.175-.081.295-.253.232-.46-.054-.175-.267-.323-.443-.242M70.732 29.963c-.015.007-.076.021-.082.027l-.092.003c-.193 0-.346.188-.338.382a.364.364 0 0 0 .368.352.85.85 0 0 0 .355-.063c.176-.082.295-.253.232-.46-.053-.175-.266-.324-.443-.241M71.817 29.739c.076-.072-.014.003-.037.017q-.057.032-.114.061c-.173.09-.207.349-.113.506.11.182.316.206.488.117.107-.056.2-.114.291-.198.142-.135.116-.39-.016-.52-.149-.145-.356-.118-.5.017M70.073 30.636h-.2c-.192 0-.345.19-.337.383a.364.364 0 0 0 .368.351h.2c.191 0 .345-.19.337-.383a.364.364 0 0 0-.368-.351M71.53 30.634a.5.5 0 0 0-.172.043l-.006.004a.365.365 0 0 0-.336.382c.007.199.176.363.368.352a1 1 0 0 0 .166-.029c.036-.01.133-.03.01-.018a.37.37 0 0 0 .34-.382c-.01-.192-.178-.373-.37-.352M74.885 29.436q-.059 0-.114-.002l-.011-.002-.012-.002c-.173-.076-.374-.028-.468.153-.087.167-.032.415.143.498.16.076.319.09.493.09.192 0 .346-.19.337-.383a.364.364 0 0 0-.368-.352M76.378 29.55l-.31.005c-.193.003-.342.195-.331.389.012.205.18.348.373.344l.31-.005c.192-.003.342-.195.33-.388a.364.364 0 0 0-.372-.345M74.754 30.446h-.02a.347.347 0 0 0-.488.024.38.38 0 0 0 .016.52c.152.143.322.19.523.19.192.001.345-.189.338-.382a.365.365 0 0 0-.369-.352M75.858 30.537h-.177c-.193 0-.345.19-.338.383a.365.365 0 0 0 .369.351h.177c.193 0 .345-.19.338-.382a.366.366 0 0 0-.369-.352"/><path fill="#2F455F" d="M83.848 124.91c-.784-5.261 1.99-12.615-1.587-14.203-4.319-1.918-14.322-1.382-18.827.02-5.972 1.862-4.028 8.294-2.712 14.184 1.6.023 19.261.008 23.126 0"/><path fill="#394F68" d="M68.714 124.91c.162-1.307.137-2.127.287-3.432.246-2.13.957-4.578.9-6.746-.015-.6-.09-1.18-.25-1.725-1.288-4.404-7.23-11.477-12.484-11.456-7.398.03-13.244 11.16-15.122 16.721-.973 2.884-1.306 4.097-1.559 6.639.305-.004 19.122.203 28.228 0"/><path fill="#5A889D" d="M96.265 83.095c-1.034-2.404-2.642-4.962-3.222-6.743-.747-2.29-1.379-4.62-2.065-6.929-.866-2.911-1.71-5.841-2.207-8.842-.414-2.496-.23-4.971-.5-7.459-.423-3.89-5.6-6.899-9.321-5.62-2.093.72-2.24 4.589-2.331 6.382-.157 3.109.042 6.368 1.15 9.294.955 2.52.159 5.348.083 8.03-.17 6.11.725 12.38 3.934 17.685 1.812 2.995 3.559 3.663 7.169 3.22 2.733-.336 7.696-1.66 8.194-4.965.173-1.147-.247-2.57-.884-4.053"/><path fill="#56A09E" d="M76.877 70.81a4 4 0 0 0-.352.605l-.185.058q-.023.008-.041.012c.086-.065 1.14-1.474.578-.675"/><path fill="#4D80A0" d="M85.921 56.519c-.428-2.635-.645-5.58-2.165-7.863-1.047-1.574-2.066-2.267-3.866-2.857-1.097-.359-1.93-.924-2.982-.956q-.022.045-.049.091c-1.426 2.347-4.434 3.364-7.214 3.029-2.575.247-5.212.291-7.596-.85-.407-.196-.624-.627-.65-1.067-.808-.626-1.455-1.436-2.058-2.318q-.014-.004-.029-.006c-1.174-.168-2.817.935-3.969 1.204-1.573.368-3.105 1.043-4.62 1.598-2.897 1.061-5.79 2.188-8.403 3.855-1.106.706-3.553 1.336-4.241 2.776-1.068 2.237-.386 5.956-.272 8.313.238 4.937.687 9.864 1.166 14.782.816 8.392 1.782 16.719.96 25.151-.542 5.55-.092 14.858 6.938 16.061 4.917.842 9.94.1 14.889.464 3.454.254 6.624-.896 10.079-.765 3.563.135 8.507-.477 11.572-2.422 1.437-.911 1.831-3.016 2.153-4.581.502-2.447.272-4.97.548-7.44.612-5.5.889-11.05.889-16.582 0-9.797.498-19.912-1.08-29.617"/><path fill="#7BAFC1" d="M59.295 42.531c1.995 3.114 5.215 3.812 8.659 4.224 1.545.185 3.15.046 4.653-.352 1.185-.313 2.243-.968 3.336-1.583 1.407-.79 1.733.32 3.136.482-1.223 1.591-3.09 2.275-4.773 3.223-4.288 2.415-12.836 1.211-15.379-3.358-.282-.507-1.016-1.103-.78-1.779.065-.189.932-1.194 1.148-.857M85.94 108.908c-1.413.883-3.88.76-5.535.964-2.341.289-4.743.274-7.133.35-5.212.164-10.426.417-15.643.286-1.216-.031-17.314-.528-17.31-.579-1.27 6.764-.825 7.78 4.55 8.206 6.638.525 13.315.547 19.973.352 3.288-.096 6.777-.002 10.032-.429 2.733-.358 5.548.638 8.193.128 1.99-.384 2.795-2.594 2.898-4.138.055-.821-.611-4.774-.025-5.14"/><path fill="#4D80A0" d="M42.889 112.85v2.968c0 .73 1.128.73 1.128 0v-2.969c0-.729-1.128-.729-1.128 0M51.518 116.77c-.208-1.137-.19-2.303-.191-3.454 0-.73-1.129-.73-1.128 0 0 1.257.004 2.513.231 3.755.131.716 1.219.412 1.088-.301M57.749 116.516c-.386-1.047-.403-2.14-.403-3.242 0-.73-1.13-.73-1.129 0 .001 1.196.025 2.408.444 3.543.25.678 1.34.385 1.088-.3M63.25 115.032c-.172-.724-.192-1.442-.192-2.183 0-.729-1.129-.729-1.129 0 0 .84.038 1.662.232 2.483.168.71 1.256.41 1.088-.3M69.596 115.244c-.212-.692-.21-1.428-.423-2.12-.213-.696-1.302-.4-1.088.3.212.693.211 1.428.423 2.12.213.696 1.302.399 1.088-.3M76.366 113.848c.209-.7-.88-.997-1.088-.3-.288.967-.223 2.083 0 3.057.163.71 1.251.409 1.088-.301-.179-.779-.23-1.682 0-2.456M81.393 112.85v2.12c0 .73 1.129.73 1.129 0v-2.12c0-.73-1.129-.73-1.129 0"/><path fill="#202A35" d="M67.392 23.472a.53.53 0 0 0-.507.554.527.527 0 0 0 .524.536.533.533 0 0 0 .508-.552c-.005-.302-.24-.542-.525-.538M75.2 23.322a.436.436 0 0 0-.448.42.43.43 0 0 0 .432.436.44.44 0 0 0 .449-.421.43.43 0 0 0-.433-.435"/><path fill="#B6DAB6" d="M81.334 35.055a.5.5 0 0 0 .652.257l.682-.297a.5.5 0 0 0 .257-.652.5.5 0 0 0-.651-.256l-.683.296a.5.5 0 0 0-.257.652"/><path fill="#C98573" d="M87.165 88.107c.638-2.774.307-5.685.926-8.47.279-1.248.637-2.484 1.34-3.564.15-.232 2.063-2.328 1.82-2.505-1.654-1.207-4.834-.394-6.237.79-2.05 1.73-3.377 4.352-4.422 6.775-.56 1.298-1.229 2.554-1.691 3.892-.454 1.318-.972 2.439-1.89 3.509-.198.231-.652.646-.766.912-.416.96.494 2.89 1.277 3.456.853.617 2.175 1.781 3.253 1.683 3.11-.282 5.733-3.622 6.39-6.478"/><path fill="#A56B5E" d="m87.264 74.03-.288-.566c-1.04.673-3.288 2.563-3.592 4.106l.713-.035c.228-1.164 2.207-2.883 3.167-3.505M89.114 73.93l-.255-.604c-1.998 1.417-3.16 3.247-4.188 4.863l-.053.085.622.217.055-.084c.959-1.509 2.043-3.217 3.819-4.477M89.203 75.44l-.351-.54c-1.625 1.431-2.386 3.188-3.06 4.74l-.034.081.626.16.036-.082c.628-1.448 1.339-3.088 2.783-4.36"/><path fill="#8EB7BE" d="M79.263 83.88c-.915-.588-2.443.504-3.19.952-1.361.818-2.282 1.152-1.556 2.47.5.906 1.928 1.826 2.595 2.736a26 26 0 0 1 1.881 2.972c.927 1.702 1.579 3.36 1.876 5.27.476-1.906 2.633-3.844 2.314-5.815-.432-2.67-1.919-5.202-3.03-7.519-.206-.426-.48-.803-.89-1.065"/><path fill="#6393AE" d="M81.42 95.493c-.095-3.563-3.967-8.994-7.481-9.858-2.128-.523-4.641.87-6.87.959-3.427.137-6.494-.762-9.16-2.969-3.997-3.31-6.386-8.324-6.93-13.446-.544-5.133.576-10.006.339-15.048-.128-2.72-.926-6.752-3.976-7.69-2.115-.65-6.728.77-8.635 1.666-5.088 2.391-6.979 6.345-9.146 11.131-3.964 8.756-2.268 19.606.572 28.437 2.108 6.551 6.114 11.687 12.26 14.98 4.314 2.31 9.117 3.385 13.995 3.367 6.146-.024 12.463-1 18.033-3.711 2.686-1.308 6.144-3.354 6.869-6.508q.15-.665.13-1.31"/><path fill="#4D80A0" d="M78.71 85.244c-.183-.312-.564-.388-.873-.229-.221.114-.416.27-.638.383-.308.16-.397.586-.228.874.182.312.563.388.872.229.221-.114.417-.27.638-.383.308-.16.397-.586.228-.874M79.207 88.356c.198-.076.386-.144.55-.295.258-.234.238-.665 0-.903a.636.636 0 0 0-.791-.082h-.002l-.025.018-.042.026c-.198.075-.386.143-.551.294-.257.234-.238.665 0 .903.22.22.543.234.792.082h.001l.025-.017zM81.857 90.292c0-.34-.29-.648-.637-.639-.31.01-.627.157-.769.447-.09.184-.124.371-.124.575 0 .348.29.639.638.639.302 0 .56-.22.623-.506.162-.115.27-.3.27-.516"/><path fill="#6393AE" d="M104.644 72.977c.362-4.82-1.242-9.71-2.675-14.164-.91-2.825-1.87-5.932-3.32-8.556-.85-1.54-1.582-3.984-3.459-4.497-2.243-.614-5.056.662-6.88 1.887-.887.596-1.9 1.369-2.112 2.476-.256 1.338-.136 2.81-.139 4.167-.01 4.435.395 8.807.935 13.206.253 2.064.107 4.126.388 6.175.28 2.052.726 4.099.624 6.182-.127 2.557-.631 5.083-.67 7.646-.009.534-1.181 5.136-.56 5.259 1.159.227 2.491-.363 3.615-.62 3.185-.726 6.288-2.35 8.476-4.81 3.449-3.875 5.394-9.245 5.777-14.35"/><path fill="#C88672" d="M88.96 49.3c1.416-1.546 2.977-2.985 5.063-3.24-.082-1.024-1.082-2.286-1.619-3.144a451 451 0 0 0-3.397-5.352c-.914-1.416-1.364-2.845-2.841-3.863-1.892-1.304-4.019-2.468-6.405-2.064a6 6 0 0 0-.534.112c-.602.164-1.043.463-1.075 1.207-.05 1.18.246 2.188-.17 3.349-.159.442-.58.92-.684 1.352-.193.813.759 1.479 1.048 2.145.37.852.979 1.224 1.668 1.835 1.397 1.24 2.492 2.812 3.453 4.391.732 1.204 1.94 2.758 2.624 4.252a56 56 0 0 0 2.87-.98"/><path fill="#EFB08E" d="m79.785 36.735-.188.07c-.307.118-.617.528-.993.155-.339-.337.042-.684.085-1.031.031-.253-.06-.866-.014-1.035.205-.753 1.23-1.18.99-2.124-.136-.539-1.134-1-.92-1.63.309-.906 2.24-.237 2.857-.116q.003 0 .007.002c1.274.316 2.38 1.01 3.457 1.727.84.558 1.555.791 2.124 1.688.197.31.56.936.322 1.297-.363.547-1.07-.009-1.486-.12-.728-.194-1.311.088-1.797.628-.246.274-1.118 1.506-1.599 1.075-.197-.178.02-.341-.273-.42-.297-.08-.792.52-1.043.66-.283.156-.89.575-1.182.266-.19-.2.089-.986.001-1.045a.37.37 0 0 0-.348-.047"/><path fill="#C88672" d="M81.915 36.393c.765-1.343 1.556-2.731 2.505-3.119l.287.67c-.714.29-1.475 1.626-2.146 2.805-.27.474-.527.923-.787 1.328l-.625-.389c.25-.388.501-.829.766-1.295M80.115 35.675l.014-.033c.26-.654.819-1.27 1.23-1.834.071-.097 1.02-1.265 1.058-1.171l.285.713c0 .002-.281.231-.32.272-.18.193-.336.434-.502.642-.436.544-.838 1.183-1.197 1.803-.253.438-.45 1.195-.907 1.478-.154.096-.448.173-.61.036-.283-.238-.014-.36.178-.545.451-.435.56-.826.771-1.361M79.209 34.898c-.351.61-.67 1.237-.93 1.873.006-.518-.007-1.036-.004-1.554.009-1.423 1.558-2.64 2.331-3.666 0 0 .197.719.16.864-.056.228-.24.434-.37.622a27 27 0 0 0-1.187 1.86"/><path fill="#EFB08E" d="M78.775 30.99c.308-.145.632-.19.968-.077 1.851.621.224 1.429-.538 2.108-.56.498-1.125.985-1.671 1.5-.363.341-.925 1.346-1.535 1.279-1.12-.123.233-1.86.526-2.26.505-.69 1.3-2.1 2.25-2.55"/><path fill="#8EB7BE" d="M85.15 49.838c-.053-1.99 1.99-2.989 3.642-3.867 1.808-.96 4.138-2.019 6.249-1.057.522.238 1.664.608 1.387 1.27-.182.433-1.222.621-1.604.798-1.657.768-3.137 1.914-4.8 2.683-1.228.569-2.416 1.405-3.628 1.941-.662.293-.633.3-.93-.414-.208-.498-.306-.947-.317-1.354"/><path fill="#79A7BC" d="m88.157 54.673-.02-.051-.007-.029a3 3 0 0 1-.074-.424c-.008-.078-.002-.1.007-.209a.646.646 0 0 0-.568-.701.643.643 0 0 0-.7.569c-.04.473.04.927.2 1.372.118.327.547.454.844.318.335-.152.436-.517.318-.845M88.77 59.873c-.153-.3-.231-.582-.209-.853a.646.646 0 0 0-.568-.701.643.643 0 0 0-.7.569c-.044.53.075 1.04.314 1.512.157.31.517.467.844.319.306-.14.476-.535.318-.846M88.956 66.082c-.056-.431-.035-.87-.12-1.297-.163-.804-1.423-.6-1.26.21.087.426.066.866.122 1.296.107.817 1.365.607 1.258-.21M88.538 70.318a.644.644 0 0 0-.7.568l-.04.382a.644.644 0 0 0 .568.701.644.644 0 0 0 .7-.569l.04-.38a.644.644 0 0 0-.568-.702M88.556 85.56c-.266-.197-.705-.157-.892.136l-.46.723c-.187.293-.156.677.137.893.266.195.705.156.892-.138l.46-.722c.187-.293.156-.677-.137-.893M90.616 79.908a.646.646 0 0 0-.7.57c-.002.013-.024.116-.02.106q-.03.108-.062.215a4.4 4.4 0 0 0-.151.681.643.643 0 0 0 .568.702.645.645 0 0 0 .7-.57c.04-.314.184-.637.233-1.002.047-.345-.23-.666-.568-.702M91.812 73.356a.646.646 0 0 0-.7.57c-.003.013-.024.116-.02.105l-.062.216c-.065.223-.123.45-.152.681a.643.643 0 0 0 .568.702.645.645 0 0 0 .7-.57c.04-.314.184-.638.234-1.002.046-.345-.23-.667-.568-.702M92.473 67.005a.644.644 0 0 0-.7.569l-.066.635a.644.644 0 0 0 .568.701.644.644 0 0 0 .7-.568l.066-.636a.644.644 0 0 0-.568-.701M93.064 61.118a.646.646 0 0 0-.734-.525c-.334.055-.592.393-.525.735.067.334.039.64.003.985a.644.644 0 0 0 .568.701.644.644 0 0 0 .7-.569c.046-.441.075-.889-.012-1.327M92.173 54.318c-.147-.29-.223-.561-.2-.822a.62.62 0 0 0-.548-.675.62.62 0 0 0-.674.548c-.042.51.073 1.001.303 1.456.151.298.498.45.812.306.295-.133.458-.514.307-.813M94.316 51.55a2.2 2.2 0 0 0-.253-.37.643.643 0 0 0-.897-.094.645.645 0 0 0-.094.898q.046.055.087.112a.63.63 0 0 0 .556.529c.332.034.683-.221.7-.57a.97.97 0 0 0-.099-.505M96.365 57.739a3.5 3.5 0 0 0-.207-.604l-.11-.239a1 1 0 0 1-.084-.226c-.083-.338-.372-.586-.734-.526-.324.054-.608.397-.525.736q.076.311.208.603l.11.24c.052.114.068.16.084.226.083.337.371.585.734.525.323-.054.607-.397.524-.735M96.677 63.01c-.206-.28-.637-.306-.897-.094-.268.218-.297.586-.117.863l.016.043.004.009.009.037q.02.09.03.182v.084a.646.646 0 0 0 .568.702c.339.035.672-.222.7-.57.034-.427-.056-.906-.313-1.256M96.802 70.295l-.023-.167q-.004-.03-.006-.062l.002-.043a.647.647 0 0 0-.568-.702c-.337-.035-.676.222-.7.57-.012.167-.001.336.02.502l.023.168.006.06-.002.045a.646.646 0 0 0 .568.701c.337.035.676-.222.7-.569a2.5 2.5 0 0 0-.02-.503M95.265 75.9a.644.644 0 0 0-.7.569l-.106 1.016a.644.644 0 0 0 .568.701.644.644 0 0 0 .7-.568l.106-1.017a.644.644 0 0 0-.568-.701M94.144 82.391c-.214-.264-.633-.32-.897-.093a1.65 1.65 0 0 0-.552 1.038c-.046.345.23.666.568.701a.646.646 0 0 0 .7-.569l.003-.023c.012-.03.036-.081.043-.1l.03-.043.009-.01.003-.002a.647.647 0 0 0 .093-.899M89.664 88.472a.643.643 0 0 0-.897-.094c-.11.09-.211.184-.307.29a.95.95 0 0 0-.219.495c-.055.344.237.666.568.701a.63.63 0 0 0 .653-.403q.054-.046.109-.09a.646.646 0 0 0 .093-.9M94.348 87.55c-.136-.3-.537-.483-.844-.318-.45.242-.85.547-1.246.869-.64.52.164 1.511.803.992q.25-.205.507-.4a5 5 0 0 1 .287-.2q.086-.05.175-.097c.306-.164.47-.513.318-.846M97.237 82.229c-.264-.194-.708-.158-.891.137-.1.159-.187.324-.274.49l-.113.213-.008.015-.078.132c-.184.295-.16.675.136.892.264.195.708.159.892-.137.099-.159.186-.324.274-.49l.113-.213.007-.014q.038-.067.08-.132c.183-.296.158-.675-.138-.893M98.966 78.922c.18-.298.16-.673-.137-.893-.261-.192-.712-.16-.892.138-.224.37-.295.76-.34 1.187a.644.644 0 0 0 .569.701.644.644 0 0 0 .7-.568 7 7 0 0 1 .057-.437l.016-.054c.013-.037.11-.212.027-.074M99.92 70.608a.644.644 0 0 0-.7.569l-.12 1.143a.644.644 0 0 0 .568.702.644.644 0 0 0 .7-.57l.12-1.142a.644.644 0 0 0-.568-.702M100.89 65.378c-.122-.326-.544-.456-.844-.319-.332.15-.44.52-.318.845l.063.172.03.1a2 2 0 0 1 .03.156l-.002.031a.646.646 0 0 0 .568.702c.337.035.676-.222.7-.57.028-.395-.09-.752-.227-1.117M99.93 59.438a.644.644 0 0 0-.701.568l-.08.763a.644.644 0 0 0 .569.701.644.644 0 0 0 .7-.569l.08-.762a.644.644 0 0 0-.569-.701M99.552 54.837c-.21-.572-.378-1.16-.589-1.731-.12-.327-.545-.455-.844-.319-.333.152-.439.519-.318.846.21.572.378 1.158.589 1.73.12.327.545.455.844.319.333-.151.438-.519.318-.845M100.741 81.825c-.266-.196-.704-.156-.891.137l-.46.722c-.187.294-.157.677.137.893.266.196.704.156.891-.137q.23-.36.46-.723c.187-.293.157-.676-.137-.892M102.434 76.007a.645.645 0 0 0-.7.57c-.048.374-.196.739-.246 1.13a.643.643 0 0 0 .568.7.645.645 0 0 0 .7-.568c.048-.376.197-.74.246-1.13a.643.643 0 0 0-.568-.702M103.408 72.6c-.05-.625.025-1.254.09-1.875.085-.819-1.184-.952-1.269-.132-.077.738-.138 1.474-.08 2.216.065.82 1.323.607 1.259-.21"/><path fill="#4D80A0" d="M90.003 48.156a3 3 0 0 1-.119-.156c-.002-.007-.03-.058-.05-.095-.005-.313-.221-.589-.547-.623-.322-.033-.654.213-.674.548-.026.426.177.78.436 1.1a.62.62 0 0 0 .864.091c.26-.211.3-.604.09-.865M61.264 45.168c-.285-.167-.717-.082-.872.23-.174.349-.329.692-.342 1.088-.012.348.299.639.637.639a.646.646 0 0 0 .639-.667l.004-.021q.016-.066.04-.13c-.016.049.037-.09.042-.1q.04-.083.081-.165c.155-.311.086-.69-.229-.874M64.71 46.928a.643.643 0 0 0-.903 0 3.3 3.3 0 0 0-.386.449c-.129.184-.178.421-.183.642-.008.348.296.638.638.638.347 0 .618-.28.636-.62l.043-.048q.076-.08.154-.157a.645.645 0 0 0 0-.904M68.635 48.335c.056.124-.01-.063-.013-.077l-.01-.04-.005-.06c-.016-.173-.013-.349-.013-.523a.644.644 0 0 0-.637-.638.644.644 0 0 0-.638.638c0 .467.02.914.214 1.344.144.318.597.391.873.23.323-.19.372-.557.229-.874M72.36 47.567c-.238-.253-.66-.24-.901 0a.64.64 0 0 0-.06.83v.005c.001.348.29.638.638.638s.638-.29.638-.638c0-.321-.091-.599-.314-.835M75.697 46.186a2 2 0 0 1-.059-.107 1.3 1.3 0 0 0-.216-.3c-.24-.253-.662-.241-.902 0a.645.645 0 0 0-.021.879q.03.052.06.108c.054.11.132.21.216.3.239.252.661.24.902 0a.646.646 0 0 0 .02-.88"/><path fill="#6497AF" d="M54.16 48.487c-.185-.802-1.414-.462-1.23.34.104.449.105.904.106 1.363 0 .823 1.275.823 1.275 0 0-.574-.021-1.142-.15-1.703M53.673 53.638a.644.644 0 0 0-.637.638v.767c0 .348.29.638.637.638s.638-.29.638-.638v-.767a.644.644 0 0 0-.638-.638M53.163 59.002a.644.644 0 0 0-.638.639v.766c0 .348.29.638.638.638s.638-.29.638-.638v-.766a.644.644 0 0 0-.638-.64M53.65 65.94c.19-.8-1.04-1.14-1.23-.339a3.7 3.7 0 0 0 0 1.744c.19.802 1.42.462 1.23-.34a2.2 2.2 0 0 1 0-1.064M56.351 72.54a.644.644 0 0 0-.637.638v.511c0 .348.29.639.637.639s.638-.29.638-.639v-.51a.644.644 0 0 0-.638-.64M56.479 66.41a.644.644 0 0 0-.638.638v1.022c0 .348.29.638.638.638.347 0 .638-.29.638-.638v-1.022a.644.644 0 0 0-.638-.639M56.351 61.173v1.277c0 .824 1.276.824 1.276 0v-1.277c0-.823-1.276-.823-1.276 0M57.627 54.404a.644.644 0 0 0-.638.639v.638c0 .349.29.639.638.639.347 0 .637-.29.637-.639v-.638a.644.644 0 0 0-.637-.639M58.114 50.403c-.104-.41-.225-.81-.232-1.235-.014-.823-1.29-.824-1.276 0 .01.541.146 1.054.278 1.575.202.797 1.432.459 1.23-.34M59.835 80.525c.145-.317.093-.685-.229-.874-.277-.162-.727-.087-.872.23-.178.388-.214.792-.215 1.215 0 .349.29.64.638.64s.637-.291.638-.64q-.002-.18.009-.362.002-.036.006-.07l.007-.04c.006-.035.083-.241.018-.1M59.922 73.178a.644.644 0 0 0-.638.639v1.15c0 .347.29.638.638.638s.638-.29.638-.639v-1.15a.644.644 0 0 0-.638-.638M61.513 52.753c-.234-.258-.665-.238-.902 0-.239.239-.235.6-.04.855q.007.018.01.036c.004.024.01.072.01.095q.004.074.003.146c0 .348.29.639.638.639.347 0 .638-.29.638-.639 0-.415-.07-.816-.357-1.132M61.232 58.526a.644.644 0 0 0-.638.638v.511c0 .348.29.639.638.639s.638-.29.638-.639v-.51a.644.644 0 0 0-.638-.64M61.402 63.635a.644.644 0 0 0-.638.638v1.022c0 .348.29.639.638.639s.638-.29.638-.639v-1.022a.644.644 0 0 0-.638-.638M62.932 81.175a.646.646 0 0 0-.637.639v.07l-.011.052c-.019.098-.046.195-.07.292-.049.198-.082.403-.09.607-.011.348.3.639.638.639.357 0 .626-.29.638-.639v-.07l.01-.052c.02-.098.046-.195.07-.292.05-.198.083-.403.09-.607.012-.349-.299-.639-.638-.639M63.783 76.066a.644.644 0 0 0-.638.639v.68c0 .349.29.64.638.64.347 0 .637-.291.637-.64v-.68a.644.644 0 0 0-.637-.639M63.655 67.339v1.192c0 .823 1.275.823 1.275 0v-1.192c0-.824-1.275-.824-1.275 0M63.995 58.313v1.703c0 .824 1.276.824 1.276 0v-1.703c0-.824-1.276-.824-1.276 0M64.803 51.884a.644.644 0 0 0-.638.639v.681c0 .348.29.639.638.639s.638-.29.638-.639v-.681a.644.644 0 0 0-.638-.639M68.034 82.367a.644.644 0 0 0-.638.639v.851c0 .348.29.639.638.639.347 0 .638-.29.638-.639v-.851a.644.644 0 0 0-.638-.639M67.906 76.705v1.192c0 .823 1.276.823 1.276 0v-1.192c0-.824-1.276-.824-1.276 0M68.714 70.106a.644.644 0 0 0-.638.638v.511c0 .348.29.639.638.639s.638-.29.638-.639v-.51a.644.644 0 0 0-.638-.64M69.054 62.953a.644.644 0 0 0-.638.64v.85c0 .349.29.64.638.64s.638-.291.638-.64v-.85a.644.644 0 0 0-.638-.64M69.159 56.61c-.157-.5-.147-1.012-.147-1.533 0-.823-1.276-.823-1.276 0 0 .63.004 1.267.193 1.873.245.783 1.476.449 1.23-.34M73.856 55.607c-.101-.218-.083-.424-.083-.7a.644.644 0 0 0-.638-.639.644.644 0 0 0-.637.64c0 .475.055.908.257 1.343.146.316.594.393.872.23.32-.189.376-.559.229-.874M74.43 63.082c-.111-.33-.434-.543-.784-.446-.32.088-.557.456-.445.785.132.39.308.775.317 1.193.018.822 1.294.824 1.275 0-.012-.546-.19-1.023-.363-1.532M75.048 70.12l-.059-.214-.016-.074c.011.043-.01-.092-.01-.11a.646.646 0 0 0-.637-.638c-.34 0-.648.29-.638.639.005.195.037.39.085.578q.029.104.06.206c.019.067.037.29.025.067.019.348.276.639.638.639.333 0 .656-.29.637-.639a2 2 0 0 0-.085-.455M73.688 76.364v1.363c0 .823 1.275.823 1.275 0v-1.363c0-.823-1.275-.823-1.275 0M73.986 80.494a.644.644 0 0 0-.638.638v.511c0 .348.29.639.638.639.347 0 .637-.29.637-.639v-.51a.644.644 0 0 0-.637-.64M77.661 53.716c-.161-.496-.307-1.01-.317-1.534-.016-.822-1.292-.824-1.275 0 .012.638.166 1.27.363 1.873.254.78 1.485.446 1.23-.34M79.127 59.183c-.155-.312-.587-.396-.872-.23-.314.185-.384.563-.229.874.118.238.246.504.253.7.012.348.281.638.638.638.338 0 .65-.29.638-.638-.017-.489-.213-.914-.428-1.344M80.488 66.505l-.03-.064a1 1 0 0 1-.034-.113c0-.01-.016-.106-.017-.135q-.003-.109-.002-.217a.644.644 0 0 0-.638-.638.644.644 0 0 0-.638.638c0 .426.071.789.258 1.174.151.313.59.395.872.23.317-.187.38-.561.229-.875M80.306 72.782a.64.64 0 0 0-.088-.786c-.241-.242-.662-.252-.902 0-.196.206-.291.43-.314.713-.02.255.107.522.215.742.152.313.59.395.872.229.316-.186.381-.56.229-.874zM78.96 77.045v1.363c0 .823 1.275.823 1.275 0v-1.363c0-.823-1.276-.823-1.276 0M82.7 68.7v1.363c0 .824 1.276.824 1.276 0v-1.362c0-.824-1.275-.824-1.275 0M83.89 62.843q-.027-.103-.058-.206c-.02-.066-.038-.29-.026-.067-.019-.347-.276-.638-.638-.638-.333 0-.656.29-.638.638.009.158.042.305.086.455l.059.213.016.075c-.011-.044.009.091.01.109.01.348.282.638.637.638.34 0 .648-.29.638-.638a2.7 2.7 0 0 0-.086-.579M82.998 56.823a.644.644 0 0 0-.638.639v.68c0 .349.29.64.638.64s.638-.291.638-.64v-.68a.644.644 0 0 0-.638-.64M81.572 50.65c-.111-.329-.434-.542-.784-.446-.32.088-.557.456-.445.786.132.39.308.774.317 1.192.018.823 1.294.825 1.275 0-.012-.545-.19-1.022-.363-1.532M42.229 106.506v1.533c0 .824 1.275.824 1.275 0v-1.533c0-.823-1.275-.823-1.275 0M82.828 97.012a.644.644 0 0 0-.638.639v1.022c0 .348.29.638.638.638s.638-.29.638-.638V97.65a.644.644 0 0 0-.638-.639M81.85 104.974v1.192c0 .823 1.276.823 1.276 0v-1.192c0-.824-1.276-.824-1.276 0M80.43 103.4c-.277-.162-.73-.088-.873.23-.243.537-.257 1.103-.257 1.684 0 .824 1.274.824 1.275 0 0-.318-.04-.767.083-1.04.143-.317.094-.684-.229-.874M77.661 105.314c.25-.788-.981-1.122-1.23-.34a2.7 2.7 0 0 0 0 1.702c.249.782 1.48.448 1.23-.34a1.5 1.5 0 0 1 0-1.022M48.818 107.57h-.17a.644.644 0 0 0-.637.64c0 .347.29.638.637.638h.17c.348 0 .638-.29.638-.639a.644.644 0 0 0-.638-.638M71.394 106.865c-.337.527-.426 1.07-.427 1.685 0 .823 1.275.823 1.276 0 0-.421.017-.671.253-1.04.445-.696-.66-1.336-1.102-.645M66.954 107.247c-.241-.242-.661-.252-.902 0-.285.3-.508.713-.526 1.132-.016.348.301.64.637.64.342 0 .595-.264.633-.588l.009-.028.006-.017.018-.043a2 2 0 0 1 .083-.142l.042-.051a.647.647 0 0 0 0-.903"/><path fill="#79A7BC" d="M35.396 52.933a5.2 5.2 0 0 1-.92 1.275c-.577.588.324 1.492.901.903.443-.452.83-.97 1.12-1.534.375-.731-.725-1.377-1.101-.644M32.945 57.273c-.379.4-.624.916-.802 1.431-.113.33.127.698.446.786.351.097.671-.117.784-.446.096-.279.3-.684.474-.868.566-.596-.334-1.5-.902-.903M31.55 62.027c-.283-.166-.72-.084-.873.229-.081.168-.151.342-.222.515l-.09.224-.006.015-.064.14c-.152.313-.088.688.229.873.282.166.72.084.872-.229.082-.168.152-.342.222-.515l.09-.224.006-.015q.03-.07.065-.14c.151-.313.087-.688-.23-.873M29.315 67.559c0 .42-.008.825-.105 1.235-.19.8 1.04 1.14 1.23.34.123-.52.15-1.043.15-1.575 0-.824-1.275-.824-1.275 0M29.06 73.05v1.533c0 .824 1.275.824 1.275 0V73.05c0-.823-1.275-.823-1.275 0M30.568 79.139c-.16-.808-1.388-.465-1.23.34.13.663.224 1.323.232 2 .01.824 1.285.825 1.275 0-.009-.788-.126-1.568-.277-2.34M32.098 87.185c-.131-.733-.379-1.438-.51-2.171-.145-.81-1.374-.466-1.23.34.131.732.379 1.437.51 2.17.145.81 1.374.466 1.23-.34M34.995 92.522a5 5 0 0 1-.417-.474 2.8 2.8 0 0 1-.312-.521c-.118-.327-.43-.544-.784-.446-.316.087-.564.458-.446.786.216.597.616 1.109 1.057 1.559.577.588 1.478-.316.902-.904M38.564 97.531c-.459-.35-.867-.77-1.274-1.177-.582-.583-1.484.32-.902.903.488.488.983.958 1.532 1.377.277.211.713.044.873-.23.192-.327.047-.662-.229-.873M43.768 101.937c-.846-.266-1.495-.934-2.27-1.34-.729-.382-1.374.72-.645 1.102.885.464 1.606 1.164 2.576 1.47.787.247 1.12-.986.339-1.232M49.634 103.852c-.601-.14-1.213-.15-1.827-.15-.823 0-.823 1.277 0 1.277.499 0 1-.01 1.488.105.8.187 1.14-1.044.34-1.232M56.351 104.596c-.458 0-.912-.001-1.36-.105-.8-.185-1.14 1.046-.34 1.232.56.13 1.128.15 1.7.15.823 0 .823-1.277 0-1.277M64.726 103.214c-.891.262-1.756.62-2.678.766-.344.055-.53.479-.445.786.1.363.441.5.784.446.922-.146 1.787-.505 2.678-.767.788-.23.452-1.463-.339-1.231M70.185 102.384a1 1 0 0 1-.4.153c-.09.018-.389.015-.553.016-.823 0-.823 1.277 0 1.277.561 0 1.109-.036 1.597-.343.694-.437.055-1.542-.644-1.103M77.69 99.676c-.169-.287-.584-.422-.873-.23-.313.21-.67.46-.996.575-.327.116-.542.432-.445.786.087.317.457.562.784.446.473-.168.886-.427 1.3-.703.29-.193.413-.56.23-.874M80.582 97.444c0-.338-.29-.652-.638-.639-.262.01-.534.134-.656.381a.9.9 0 0 0-.104.39 1 1 0 0 0-.005.123c0 .348.29.639.638.639.295 0 .548-.21.618-.486a.64.64 0 0 0 .147-.408M41.625 48.872c-.287-.168-.716-.081-.873.23-.218.431-.458.805-.793 1.147-.576.588.325 1.491.902.903a5.6 5.6 0 0 0 .992-1.406c.158-.31.085-.69-.228-.874M39.203 53.57a.64.64 0 0 0-.902 0c-.334.344-.6.753-.865 1.15-.193.29-.057.706.23.874.312.184.68.06.872-.229.222-.333.406-.625.665-.892a.646.646 0 0 0 0-.903M36.371 58.514c-.353-.097-.669.118-.784.446-.13.37-.37.752-.51 1.15-.116.328.128.698.445.785.353.097.669-.118.784-.446.13-.37.37-.752.51-1.15.116-.328-.128-.698-.445-.785M34.799 64.11a.643.643 0 0 0-.638-.638c-.353 0-.63.29-.638.639 0-.008-.01.166-.004.144q-.02.115-.043.229c-.043.213-.075.43-.08.648a.643.643 0 0 0 .638.639c.353 0 .63-.29.637-.639 0 .007.011-.166.005-.144q.019-.115.043-.229c.042-.213.075-.43.08-.648M32.758 69.347c-.008.599-.119 1.189-.127 1.788-.012.824 1.264.823 1.275 0 .008-.6.12-1.19.128-1.788.011-.824-1.264-.823-1.276 0M32.248 74.455v1.66c0 .824 1.276.824 1.276 0v-1.66c0-.823-1.276-.823-1.276 0M34.202 81.924l-.025-.049-.01-.028a3 3 0 0 1-.118-.414c-.016-.077-.013-.1-.015-.209a.645.645 0 0 0-.638-.638.643.643 0 0 0-.638.638c.01.476.137.919.342 1.344.152.314.59.395.873.23.317-.187.38-.56.229-.874M35.632 86.775a3 3 0 0 1-.12-.133c-.002-.009-.072-.104-.083-.12-.078-.123-.142-.254-.207-.384-.156-.31-.588-.396-.873-.229-.314.184-.384.563-.228.874.163.327.353.631.61.895.242.25.658.244.901 0a.646.646 0 0 0 0-.903M38.055 91.373a4 4 0 0 1-.152-.167l-.05-.061c.026.03-.06-.083-.065-.09a4 4 0 0 1-.27-.447c-.159-.31-.586-.397-.873-.229-.312.183-.387.564-.229.874.19.372.446.724.738 1.023.242.25.658.244.901 0a.646.646 0 0 0 0-.903M42.645 96.892c-.39-.255-.81-.467-1.146-.794-.592-.572-1.494.33-.902.904.418.404.922.677 1.404.993.291.191.704.06.873-.229.182-.312.061-.683-.23-.874M48.19 100.254c-.467-.01-.911-.12-1.361-.233-.799-.2-1.137 1.032-.34 1.232.56.14 1.122.267 1.7.278.823.015.822-1.262 0-1.277M54.948 101.403c-.497 0-1 .007-1.488-.105-.8-.184-1.14 1.047-.339 1.232.6.138 1.215.15 1.827.15.823 0 .823-1.277 0-1.277M62.983 100.892c-.76.009-1.5.131-2.21.406-.324.126-.545.425-.445.786.085.31.46.571.784.446a5.2 5.2 0 0 1 1.87-.36c.823-.01.824-1.287 0-1.278M70.465 99.382c-.52.14-1.01.372-1.53.511-.794.213-.457 1.445.339 1.232.52-.14 1.01-.372 1.53-.51.794-.213.457-1.445-.339-1.233M77.69 96.994c-.182-.31-.566-.391-.873-.23-.273.145-.493.368-.765.512-.308.162-.399.583-.23.873.182.31.566.392.873.23.273-.144.493-.368.765-.511.308-.162.4-.584.23-.874M45.068 49.383c-.313-.184-.68-.06-.873.229-.222.333-.406.625-.665.892a.646.646 0 0 0 0 .904c.243.243.66.249.902 0 .334-.345.6-.753.865-1.151.193-.29.057-.706-.229-.874M41.39 53.699c-.284.56-.609 1.1-.893 1.66-.37.733.73 1.38 1.101.645.284-.561.61-1.1.893-1.66.371-.733-.73-1.38-1.101-.645M40.323 58.169a.645.645 0 0 0-.872-.23c-.468.264-.644.797-.804 1.276-.11.33.124.697.446.786.349.096.674-.116.784-.446l.078-.228c.005-.016.047-.118.058-.147q.035-.069.074-.134l.007-.003a.645.645 0 0 0 .23-.874M38.41 63.667c.147-.316.092-.686-.229-.874-.278-.164-.725-.087-.872.229a3 3 0 0 0-.178.48l-.042.165c-.007.026-.087.233-.035.121-.147.316-.092.686.229.874.278.164.725.086.872-.23.073-.156.134-.313.178-.48l.042-.164c.007-.026.087-.233.035-.121M36.352 68.41c-.196.624-.27 1.307-.278 1.959-.01.823 1.266.823 1.275 0a5.6 5.6 0 0 1 .233-1.619c.247-.788-.984-1.122-1.23-.34M36.074 75.094v1.532c0 .824 1.275.824 1.275 0v-1.532c0-.824-1.275-.824-1.275 0M37.732 80.586c-.012-.823-1.287-.824-1.275 0 .009.64.118 1.274.127 1.915.012.823 1.287.824 1.275 0-.009-.64-.118-1.274-.127-1.915M39.94 87.415a4.3 4.3 0 0 0-.737-1.023.64.64 0 0 0-.902 0 .646.646 0 0 0 0 .903q.079.081.152.167.026.03.051.062c-.027-.032.06.082.064.089q.152.214.271.447c.159.31.586.398.873.229.312-.183.387-.564.228-.874M43.665 91.912c-.131-.065-.266-.122-.398-.184a3 3 0 0 1-.237-.128q-.025-.016-.05-.033c.025.015-.065-.053-.079-.066a.645.645 0 0 0-.901 0c-.242.241-.252.663 0 .903.3.287.656.432 1.021.61.313.153.688.088.873-.229.166-.283.083-.72-.229-.873M49.337 95.656c-.365-.007-.74-.113-1.106-.233-.33-.108-.695.123-.784.446-.095.348.115.678.445.786.465.152.954.268 1.445.278.823.017.821-1.26 0-1.277M57.754 97.572c-.42 0-.824-.008-1.233-.105-.8-.19-1.14 1.041-.34 1.231.52.124 1.042.15 1.573.15.823.001.823-1.276 0-1.276M64.13 97.444h-.51a.644.644 0 0 0-.637.639c0 .348.29.638.638.638h.51c.347 0 .637-.29.637-.638a.644.644 0 0 0-.637-.64M71.613 95.934c-.368.088-.723.105-1.106.105-.822 0-.822 1.278 0 1.277a6.2 6.2 0 0 0 1.445-.15c.8-.191.46-1.423-.34-1.232M76.185 94.338c-.287-.168-.715-.08-.872.23l-.04.073a.64.64 0 0 0-.557.632c0 .343.29.645.637.638.212-.004.44-.05.616-.176.192-.138.337-.311.445-.523.158-.31.084-.69-.229-.874M47.297 51.34a.644.644 0 0 0-.638.638 4 4 0 0 1-.009.277c-.164.253-.16.584.068.813.235.235.67.26.902 0 .277-.312.314-.69.314-1.09a.644.644 0 0 0-.637-.639M45.553 55.96c-.351-.097-.67.117-.784.446-.15.433-.36.843-.51 1.277-.114.329.126.698.445.785.351.097.671-.117.785-.446.15-.433.36-.843.51-1.277.113-.329-.127-.698-.446-.785M42.765 61.105a2.88 2.88 0 0 0-.825 1.984c-.017.824 1.258.822 1.276 0 .009-.422.159-.778.45-1.081.572-.593-.33-1.497-.901-.903M40.92 66.793a.644.644 0 0 0-.638.638c0 .15 0 .301-.008.452l-.013.133c-.018.066-.063.212-.019.115-.143.317-.094.684.229.873.276.162.729.088.872-.229.195-.43.215-.877.215-1.344a.644.644 0 0 0-.638-.638M39.9 73.69v1.404c0 .824 1.275.824 1.275 0v-1.405c0-.824-1.275-.824-1.275 0M42.045 81.948c-.12-.47-.263-.934-.382-1.404-.203-.798-1.433-.46-1.23.34.12.47.263.933.382 1.404.203.798 1.433.46 1.23-.34M45.068 87.953a2.6 2.6 0 0 1-.664-.665c-.194-.288-.558-.414-.872-.23-.285.168-.424.586-.23.874.308.455.668.816 1.122 1.123.289.196.706.057.873-.229.184-.315.058-.679-.229-.873M50.91 90.698c-.192-.05-.371-.111-.546-.203a1.2 1.2 0 0 1-.349-.27c-.201-.283-.552-.417-.872-.229-.28.164-.431.59-.229.874.402.564.996.885 1.656 1.06.797.21 1.134-1.023.34-1.232M62.132 94.274c-.816-.136-1.635-.269-2.465-.278-.823-.01-.822 1.267 0 1.277.718.008 1.42.115 2.126.232.804.134 1.149-1.096.34-1.231M69.782 93.418c-.171-.293-.577-.414-.872-.23-.282.177-.483.169-.826.17a.644.644 0 0 0-.638.638c0 .348.29.639.638.638.52 0 1.02-.06 1.47-.342a.647.647 0 0 0 .228-.874M74.784 91.5a.644.644 0 0 0-.902 0q-.045.045-.093.086c.01-.013-.097.067-.118.08l-.024.012-.036.012-.027.006h-.016a.646.646 0 0 0-.638.64c0 .34.29.648.638.638.478-.013.88-.242 1.216-.57a.645.645 0 0 0 0-.903M49.659 56.28c-.285-.168-.717-.083-.872.229l-.383.766c-.156.311-.085.69.229.874.285.167.717.082.872-.23l.383-.766c.155-.311.085-.69-.229-.874M46.874 61.362c-.31.631-.569 1.287-.83 1.94-.13.324.139.701.446.786.363.1.655-.123.784-.446.22-.551.439-1.103.7-1.636.362-.736-.737-1.383-1.1-.644M46.13 67.58l.003-.007c.19-.257.196-.609-.043-.849-.235-.235-.671-.26-.902 0-.308.348-.433.89-.442 1.346a.643.643 0 0 0 .638.638c.353 0 .63-.29.637-.638l.003-.072v-.012a3 3 0 0 1 .104-.399l.009-.014z"/><path fill="#79A7BC" d="M46.142 67.584c.06-.072.028-.044 0 0M45.489 73.902c-.104-.449-.105-.903-.105-1.362 0-.824-1.276-.824-1.276 0 0 .573.021 1.141.15 1.702.186.802 1.416.462 1.23-.34M46.891 81.182c-.13-.607-.379-1.18-.51-1.788-.173-.805-1.402-.463-1.23.34.131.607.38 1.18.51 1.788.174.805 1.403.463 1.23-.34M50.17 85.526c-.241-.102-.397-.199-.554-.375-.097-.108-.147-.298-.151-.479-.02-.822-1.295-.824-1.276 0a2.15 2.15 0 0 0 1.336 1.957c.32.135.68.1.873-.23.158-.27.092-.737-.229-.873M57.413 89.548c-.75-.111-1.62-.25-2.141-.857-.537-.626-1.435.282-.902.903.665.776 1.736 1.042 2.705 1.186.343.051.683-.08.784-.446.084-.304-.101-.734-.446-.786M65.829 91.247c-.186-.318-.56-.38-.872-.23a2.9 2.9 0 0 1-1.209.297c-.821.014-.823 1.292 0 1.277.658-.012 1.262-.186 1.852-.47.313-.152.394-.592.229-.874M71.333 88.974c-.305.19-.684.269-1.039.191-.802-.175-1.143 1.057-.339 1.232.682.149 1.424.053 2.022-.32.696-.434.056-1.54-.644-1.103M48.34 65.984c-.144.729-.269 1.47-.278 2.213-.01.824 1.265.823 1.275 0 .008-.633.11-1.253.232-1.873.159-.805-1.07-1.147-1.23-.34M50.08 74.669c-.11-.54-.225-1.066-.233-1.619-.011-.822-1.287-.823-1.275 0 .01.665.147 1.31.278 1.958.163.807 1.392.465 1.23-.34M52.21 80.034a2.7 2.7 0 0 1-.664-.665c-.195-.287-.558-.413-.873-.229-.285.167-.424.585-.229.874.308.455.668.815 1.122 1.123.288.195.705.056.872-.23.185-.314.059-.678-.228-.873M55.883 84.312l-.068-.025-.026-.012a2 2 0 0 1-.212-.125l-.015-.013a1 1 0 0 1-.088-.088l-.014-.021c-.017-.026-.075-.174-.024-.036-.12-.327-.428-.544-.785-.446-.314.086-.565.458-.445.785.229.623.726 1 1.338 1.213.329.114.697-.128.785-.446.096-.353-.118-.672-.446-.786M60.432 86.588q-.134 0-.267-.007c-.008-.003-.092-.012-.11-.016-.017-.004-.182-.071-.066-.017-.315-.147-.685-.092-.873.229-.163.279-.086.727.23.873.351.165.7.215 1.086.215.348 0 .638-.29.638-.638a.644.644 0 0 0-.638-.639"/><path fill="#C88672" d="M78.963 40.528c-.621-.442-1.032-1.102-1.607-1.61a15 15 0 0 0-2.125-1.565c-.349-.213-.785-.415-.226-.74 1.032-.604 3.077.233 4.044.652 1.322.574 2.757 1.47 1.695 2.969-.593.838-1.199.709-1.781.294"/><path fill="#4D80A0" d="M91.873 47.056c-.02-.02-.076-.089-.099-.116l-.04-.074c-.054-.103-.093-.214-.144-.32-.153-.312-.59-.394-.873-.228-.316.185-.381.56-.228.873.05.105.092.215.143.32.081.167.21.316.339.448a.643.643 0 0 0 .902 0 .646.646 0 0 0 0-.903M94.228 45.98v-.005a.644.644 0 0 0-.638-.638.644.644 0 0 0-.638.638c0 .321.092.599.315.835.238.253.66.24.901 0a.64.64 0 0 0 .06-.83M88.001 49.209zl-.017-.025-.026-.043c-.075-.198-.143-.386-.294-.551-.234-.257-.664-.238-.902 0a.64.64 0 0 0-.081.793v.001l.017.025.026.043c.075.199.143.386.294.552.234.257.664.237.901 0a.64.64 0 0 0 .082-.794"/><path fill="#1C2833" d="M41.245 9.088c-1.039-.367-2.14-.45-3.247-.319-3.453.12-7.079 2.488-9.118 4.99-1.146 1.408-.314 3.73.865 4.8 2.438 2.214 3.45-2.281 5.794-1.782 2.166.462 1.327 2.862.664 4.113-1.077 2.03-1.566 4.385-1.095 6.617.421 1.997 1.69 3.789 4.03 2.923.948-.351 2.39-.574 3.106-1.341 1.034-1.11.1-2.493.305-3.864.574-3.834 3.149-7.017 2.766-11.074-.217-2.287-1.857-4.28-4.07-5.063M42.041 32.169c-1.845.203-4.048 2.307-3.584 4.277.444 1.89 3.628 2.839 5.232 1.956 2.072-1.14 2.745-4.048.75-5.532-.771-.573-1.579-.791-2.398-.701"/></g></g></svg>