<svg width="20" height="20" viewBox="0 0 20 20" fill="none" xmlns="http://www.w3.org/2000/svg">
<g clip-path="url(#clip0)">
<path d="M0 9.02605H2.5V10.9792H0V9.02605Z" fill="#B0B0B0"/>
<path d="M17.5 9.02605H20V10.9792H17.5V9.02605Z" fill="#969696"/>
<path d="M9.99993 7.08594L9.58325 10.0026L9.99993 16.2916H15.0425C16.4425 16.2916 17.5816 15.1526 17.5816 13.7526V7.08594H9.99993Z" fill="#DD3400"/>
<path d="M2.41846 7.08594V13.7526C2.41846 15.1527 3.55748 16.2917 4.95752 16.2917H10.0001V7.08594H2.41846Z" fill="#FF4B00"/>
<path d="M10.5859 6.84262V5.17188H11.8476V4H9.99993L9.58325 4.58594L9.99993 6.84262H10.5859Z" fill="#969696"/>
<path d="M8.23706 5.17188H9.41417V6.84262H10.0001V4H8.23706V5.17188Z" fill="#B0B0B0"/>
<path d="M18.5753 6.25668H9.99993L9.58325 6.66925L9.99993 7.42855H18.5753V6.25668Z" fill="#CFCFCF"/>
<path d="M1.42456 6.25668H9.99991V7.42855H1.42456V6.25668Z" fill="#E5E5E5"/>
<path d="M5.32544 10.6882H6.49731V11.8601H5.32544V10.6882Z" fill="white"/>
<path d="M7.66919 10.6882H8.84106V11.8601H7.66919V10.6882Z" fill="white"/>
<path d="M6.49731 9.51633H7.66919V10.6882H6.49731V9.51633Z" fill="white"/>
<path d="M6.49731 11.8601H7.66919V13.032H6.49731V11.8601Z" fill="white"/>
<path d="M13.5027 10.6882H14.6746V11.8601H13.5027V10.6882Z" fill="#FFE7C3"/>
<path d="M11.1589 10.6882H12.3308V11.8601H11.1589V10.6882Z" fill="#FFE7C3"/>
<path d="M12.3308 9.51633H13.5027V10.6882H12.3308V9.51633Z" fill="#FFE7C3"/>
<path d="M12.3308 11.8601H13.5027V13.032H12.3308V11.8601Z" fill="#FFE7C3"/>
</g>
<defs>
<clipPath id="clip0">
<rect width="20" height="20" fill="white"/>
</clipPath>
</defs>
</svg>
