<svg width="20" height="20" viewBox="0 0 20 20" fill="none" xmlns="http://www.w3.org/2000/svg">
<path d="M1 1H19V19H1V1Z" fill="#A3D4F7"/>
<path d="M1 1H19V4.57339H1V1Z" fill="#60A2D7"/>
<path d="M2.40869 8.00433H17.5913V17.0043H2.40869V8.00433Z" fill="#60A2D7"/>
<path d="M15.7394 3.06092H11.3281C11.2555 3.06092 11.1858 3.03206 11.1344 2.98069C11.0831 2.92932 11.0542 2.85965 11.0542 2.78701C11.0542 2.71436 11.0831 2.64469 11.1344 2.59332C11.1858 2.54195 11.2555 2.51309 11.3281 2.51309H15.7394C15.812 2.51309 15.8817 2.54195 15.933 2.59332C15.9844 2.64469 16.0133 2.71436 16.0133 2.78701C16.0133 2.85965 15.9844 2.92932 15.933 2.98069C15.8817 3.03206 15.812 3.06092 15.7394 3.06092Z" fill="#E6E9ED"/>
<path d="M4.12044 3.25657C4.37978 3.25657 4.59001 3.04634 4.59001 2.78701C4.59001 2.52768 4.37978 2.31744 4.12044 2.31744C3.86111 2.31744 3.65088 2.52768 3.65088 2.78701C3.65088 3.04634 3.86111 3.25657 4.12044 3.25657Z" fill="#E6E9ED"/>
<path d="M5.9183 3.25654C6.17763 3.25654 6.38786 3.04631 6.38786 2.78698C6.38786 2.52764 6.17763 2.31741 5.9183 2.31741C5.65896 2.31741 5.44873 2.52764 5.44873 2.78698C5.44873 3.04631 5.65896 3.25654 5.9183 3.25654Z" fill="#E6E9ED"/>
<path d="M7.71639 3.25654C7.97573 3.25654 8.18596 3.04631 8.18596 2.78698C8.18596 2.52764 7.97573 2.31741 7.71639 2.31741C7.45706 2.31741 7.24683 2.52764 7.24683 2.78698C7.24683 3.04631 7.45706 3.25654 7.71639 3.25654Z" fill="#E6E9ED"/>
<path d="M7.40342 15.5049C7.40599 16.0117 7.33804 16.5163 7.2015 17.0044H4.24324C4.10671 16.5163 4.03875 16.0117 4.04133 15.5049C4.04133 13.7644 4.7942 12.3541 5.72237 12.3541C6.12933 12.3541 6.50185 12.6233 6.79142 13.0741C7.1655 13.6517 7.40342 14.5266 7.40342 15.5049Z" fill="#C0C3C6"/>
<path d="M9.54149 15.5049C9.54377 16.0115 9.47636 16.5161 9.34114 17.0044H6.38131C6.2461 16.5161 6.17868 16.0115 6.18096 15.5049C6.18096 14.5266 6.41888 13.6517 6.7914 13.0741C7.08253 12.6233 7.45505 12.3541 7.86201 12.3541C8.26896 12.3541 8.63992 12.6233 8.93105 13.0741C9.30357 13.6517 9.54149 14.5266 9.54149 15.5049Z" fill="#E6E9ED"/>
<path d="M11.681 15.5049C11.6836 16.0117 11.6156 16.5163 11.4791 17.0044H8.52083C8.3843 16.5163 8.31634 16.0117 8.31892 15.5049C8.31892 14.5266 8.55683 13.6517 8.93092 13.0741C9.22205 12.6233 9.59457 12.3541 9.99996 12.3541C10.4054 12.3541 10.7779 12.6233 11.069 13.0741C11.4431 13.6517 11.681 14.5266 11.681 15.5049Z" fill="#C0C3C6"/>
<path d="M13.8191 15.5049C13.8214 16.0115 13.7539 16.5161 13.6187 17.0044H10.6589C10.5237 16.5161 10.4563 16.0115 10.4586 15.5049C10.4586 14.5266 10.6965 13.6517 11.069 13.0741C11.3601 12.6233 11.7326 12.3541 12.138 12.3541C12.5434 12.3541 12.9175 12.6233 13.2086 13.0741C13.5812 13.6517 13.8191 14.5266 13.8191 15.5049Z" fill="#E6E9ED"/>
<path d="M15.9588 15.5049C15.9614 16.0117 15.8935 16.5163 15.7569 17.0044H12.7987C12.6621 16.5163 12.5942 16.0117 12.5968 15.5049C12.5968 14.5266 12.8347 13.6517 13.2088 13.0741C13.4983 12.6233 13.8708 12.3541 14.2778 12.3541C15.206 12.3541 15.9588 13.7644 15.9588 15.5049Z" fill="#C0C3C6"/>
</svg>
