<svg width="20" height="20" viewBox="0 0 20 20" fill="none" xmlns="http://www.w3.org/2000/svg">
<path d="M17.1742 0.16394H2.57876C2.35148 0.16394 2.16724 0.34743 2.16724 0.573776V1.93992C2.16724 2.16627 2.35148 2.34976 2.57876 2.34976H17.1742C17.4014 2.34976 17.5857 2.16627 17.5857 1.93992V0.573776C17.5857 0.34743 17.4014 0.16394 17.1742 0.16394Z" fill="#A4C9FF"/>
<path d="M2.88062 2.34975H16.8725V17.6503H2.88062V2.34975Z" fill="#4671C6"/>
<path d="M10.5352 2.34975H11.3582V17.6503H10.5352V2.34975Z" fill="#E0EBFC"/>
<path d="M8.39502 2.34975H9.21807V17.6503H8.39502V2.34975Z" fill="#E0EBFC"/>
<path d="M4.11523 2.34975H4.93828V17.6503H4.11523V2.34975Z" fill="#E0EBFC"/>
<path d="M14.8149 2.34975H15.638V17.6503H14.8149V2.34975Z" fill="#E0EBFC"/>
<path d="M17.1743 2.51369H2.57882C2.42608 2.51349 2.27965 2.45298 2.17165 2.34542C2.06364 2.23786 2.00288 2.09203 2.00269 1.93992V0.57377C2.00288 0.421657 2.06364 0.27583 2.17165 0.168269C2.27965 0.0607086 2.42608 0.000195198 2.57882 0H17.1743C17.327 0.000195198 17.4735 0.0607086 17.5815 0.168269C17.6895 0.27583 17.7502 0.421657 17.7504 0.57377V1.93992C17.7502 2.09203 17.6895 2.23786 17.5815 2.34542C17.4735 2.45298 17.327 2.51349 17.1743 2.51369ZM2.57882 0.327869C2.51333 0.327869 2.45053 0.353776 2.40423 0.399892C2.35792 0.446007 2.33191 0.508553 2.33191 0.57377V1.93992C2.33191 2.00514 2.35792 2.06768 2.40423 2.1138C2.45053 2.15991 2.51333 2.18582 2.57882 2.18582H17.1743C17.2398 2.18582 17.3026 2.15991 17.3489 2.1138C17.3952 2.06768 17.4212 2.00514 17.4212 1.93992V0.57377C17.4212 0.508553 17.3952 0.446007 17.3489 0.399892C17.3026 0.353776 17.2398 0.327869 17.1743 0.327869H2.57882Z" fill="#3762CC"/>
<path d="M16.8725 17.8142H2.88067C2.83702 17.8142 2.79515 17.7969 2.76428 17.7662C2.73341 17.7354 2.71606 17.6937 2.71606 17.6502V2.34976C2.71606 2.30628 2.73341 2.26458 2.76428 2.23384C2.79515 2.20309 2.83702 2.18582 2.88067 2.18582H16.8725C16.9162 2.18582 16.958 2.20309 16.9889 2.23384C17.0198 2.26458 17.0371 2.30628 17.0371 2.34976V17.6502C17.0371 17.6937 17.0198 17.7354 16.9889 17.7662C16.958 17.7969 16.9162 17.8142 16.8725 17.8142ZM3.04528 17.4863H16.7079V2.51369H3.04528V17.4863Z" fill="#3762CC"/>
<path d="M11.358 17.8142H10.535C10.4913 17.8142 10.4494 17.7969 10.4186 17.7662C10.3877 17.7354 10.3704 17.6937 10.3704 17.6502V2.34976C10.3704 2.30628 10.3877 2.26458 10.4186 2.23384C10.4494 2.20309 10.4913 2.18582 10.535 2.18582H11.358C11.4017 2.18582 11.4435 2.20309 11.4744 2.23384C11.5053 2.26458 11.5226 2.30628 11.5226 2.34976V17.6502C11.5226 17.6937 11.5053 17.7354 11.4744 17.7662C11.4435 17.7969 11.4017 17.8142 11.358 17.8142ZM10.6996 17.4863H11.1934V2.51369H10.6996V17.4863Z" fill="#3762CC"/>
<path d="M9.21813 17.8142H8.39508C8.35142 17.8142 8.30955 17.7969 8.27868 17.7662C8.24781 17.7354 8.23047 17.6937 8.23047 17.6502V2.34976C8.23047 2.30628 8.24781 2.26458 8.27868 2.23384C8.30955 2.20309 8.35142 2.18582 8.39508 2.18582H9.21813C9.26179 2.18582 9.30366 2.20309 9.33453 2.23384C9.3654 2.26458 9.38274 2.30628 9.38274 2.34976V17.6502C9.38274 17.6937 9.3654 17.7354 9.33453 17.7662C9.30366 17.7969 9.26179 17.8142 9.21813 17.8142ZM8.55969 17.4863H9.05352V2.51369H8.55969V17.4863Z" fill="#3762CC"/>
<path d="M4.93834 17.8142H4.11529C4.07164 17.8142 4.02977 17.7969 3.9989 17.7662C3.96803 17.7354 3.95068 17.6937 3.95068 17.6502V2.34976C3.95068 2.30628 3.96803 2.26458 3.9989 2.23384C4.02977 2.20309 4.07164 2.18582 4.11529 2.18582H4.93834C4.982 2.18582 5.02387 2.20309 5.05474 2.23384C5.08561 2.26458 5.10295 2.30628 5.10295 2.34976V17.6502C5.10295 17.6937 5.08561 17.7354 5.05474 17.7662C5.02387 17.7969 4.982 17.8142 4.93834 17.8142ZM4.2799 17.4863H4.77373V2.51369H4.2799V17.4863Z" fill="#3762CC"/>
<path d="M15.6381 17.8142H14.815C14.7713 17.8142 14.7295 17.7969 14.6986 17.7662C14.6677 17.7354 14.6504 17.6937 14.6504 17.6502V2.34976C14.6504 2.30628 14.6677 2.26458 14.6986 2.23384C14.7295 2.20309 14.7713 2.18582 14.815 2.18582H15.6381C15.6817 2.18582 15.7236 2.20309 15.7544 2.23384C15.7853 2.26458 15.8027 2.30628 15.8027 2.34976V17.6502C15.8027 17.6937 15.7853 17.7354 15.7544 17.7662C15.7236 17.7969 15.6817 17.8142 15.6381 17.8142ZM14.9796 17.4863H15.4734V2.51369H14.9796V17.4863Z" fill="#3762CC"/>
<path d="M17.1742 17.6502H2.57876C2.35148 17.6502 2.16724 17.8337 2.16724 18.0601V19.4262C2.16724 19.6526 2.35148 19.8361 2.57876 19.8361H17.1742C17.4014 19.8361 17.5857 19.6526 17.5857 19.4262V18.0601C17.5857 17.8337 17.4014 17.6502 17.1742 17.6502Z" fill="#A4C9FF"/>
<path d="M7.90128 6.655C7.90107 6.69212 7.89248 6.72871 7.87614 6.76207C7.85979 6.79543 7.83612 6.8247 7.80687 6.84771C7.77762 6.87071 7.74354 6.88686 7.70717 6.89497C7.67079 6.90307 7.63306 6.90291 7.59675 6.89451C7.35537 6.83362 7.13372 6.71203 6.95304 6.54139C6.77066 6.39 6.62662 6.27049 6.32102 6.27049C6.01543 6.27049 5.87131 6.39 5.68892 6.54139C5.48209 6.71311 5.22489 6.92623 4.74077 6.92623C4.25665 6.92623 3.9992 6.71311 3.79253 6.54139C3.6099 6.39 3.46586 6.27049 3.16051 6.27049C2.85516 6.27049 2.71096 6.39 2.52866 6.54139C2.32166 6.71311 2.06454 6.92623 1.58026 6.92623C1.09597 6.92623 0.838772 6.71311 0.632186 6.54139C0.492926 6.42574 0.375971 6.32828 0.192348 6.28934C0.137662 6.27729 0.088761 6.24697 0.0537705 6.20342C0.01878 6.15986 -0.00019373 6.10569 1.49156e-06 6.04992C0.00020734 6.0128 0.00880093 5.9762 0.025145 5.94284C0.041489 5.90948 0.0651641 5.88021 0.0944147 5.85721C0.123665 5.8342 0.157741 5.81805 0.194114 5.80995C0.230487 5.80185 0.268226 5.802 0.30453 5.81041C0.545906 5.87132 0.767545 5.9929 0.948237 6.16352C1.13046 6.31492 1.27449 6.43442 1.58026 6.43442C1.88602 6.43442 2.02997 6.31492 2.21228 6.16352C2.41878 5.9918 2.67582 5.77869 3.16051 5.77869C3.64521 5.77869 3.90208 5.9918 4.10875 6.16352C4.29073 6.31492 4.43476 6.43442 4.74077 6.43442C5.04678 6.43442 5.19057 6.31492 5.37295 6.16352C5.57921 5.9918 5.83633 5.77869 6.32102 5.77869C6.80572 5.77869 7.06276 5.9918 7.26934 6.16352C7.40868 6.27918 7.52564 6.37664 7.70926 6.41557C7.76392 6.42765 7.81278 6.45799 7.84774 6.50154C7.8827 6.54509 7.90165 6.59924 7.90144 6.655H7.90128Z" fill="#FFEA92"/>
<path d="M7.90128 9.93368C7.90107 9.9708 7.89248 10.0074 7.87614 10.0408C7.85979 10.0741 7.83612 10.1034 7.80687 10.1264C7.77762 10.1494 7.74354 10.1655 7.70717 10.1737C7.67079 10.1818 7.63306 10.1816 7.59675 10.1732C7.35537 10.1123 7.13372 9.99072 6.95304 9.82008C6.77066 9.66868 6.62662 9.54918 6.32086 9.54918C6.0151 9.54918 5.87114 9.66868 5.68876 9.82008C5.48209 9.9918 5.22489 10.2049 4.74077 10.2049C4.25665 10.2049 3.9992 9.9918 3.79253 9.82008C3.6099 9.66868 3.46586 9.54918 3.16051 9.54918C2.85516 9.54918 2.71096 9.66868 2.52866 9.82008C2.32166 9.9918 2.06454 10.2049 1.58026 10.2049C1.09597 10.2049 0.838772 9.9918 0.632186 9.82008C0.492926 9.70442 0.375971 9.60696 0.192348 9.56803C0.137662 9.55598 0.088761 9.52566 0.0537705 9.4821C0.01878 9.43855 -0.00019373 9.38438 1.49156e-06 9.3286C0.00020734 9.29148 0.00880093 9.25489 0.025145 9.22153C0.041489 9.18817 0.0651641 9.1589 0.0944147 9.1359C0.123665 9.11289 0.157741 9.09674 0.194114 9.08864C0.230487 9.08053 0.268226 9.08069 0.30453 9.08909C0.545906 9.15 0.767545 9.27159 0.948237 9.44221C1.13046 9.5936 1.27449 9.71311 1.58009 9.71311C1.88569 9.71311 2.02981 9.5936 2.21211 9.44221C2.41878 9.27049 2.67582 9.05737 3.16051 9.05737C3.64521 9.05737 3.90208 9.27049 4.10875 9.44221C4.29105 9.5936 4.43509 9.71311 4.74077 9.71311C5.04645 9.71311 5.19057 9.5936 5.37295 9.44221C5.57954 9.27082 5.83666 9.05737 6.32119 9.05737C6.80572 9.05737 7.06292 9.27049 7.26951 9.44221C7.40885 9.55786 7.5258 9.65532 7.70943 9.69426C7.76408 9.70634 7.81295 9.73668 7.8479 9.78023C7.88286 9.82378 7.90181 9.87793 7.90161 9.93368H7.90128Z" fill="#FFEA92"/>
<path d="M7.90128 13.2124C7.90107 13.2495 7.89248 13.2861 7.87614 13.3194C7.85979 13.3528 7.83612 13.3821 7.80687 13.4051C7.77762 13.4281 7.74354 13.4442 7.70717 13.4523C7.67079 13.4604 7.63306 13.4603 7.59675 13.4519C7.35537 13.391 7.13372 13.2694 6.95304 13.0988C6.77066 12.9474 6.62662 12.8279 6.32086 12.8279C6.0151 12.8279 5.87114 12.9474 5.68876 13.0988C5.48209 13.2705 5.22489 13.4836 4.74077 13.4836C4.25665 13.4836 3.9992 13.2705 3.79253 13.0988C3.6099 12.9474 3.46586 12.8279 3.16051 12.8279C2.85516 12.8279 2.71096 12.9474 2.52866 13.0988C2.32166 13.2705 2.06454 13.4836 1.58026 13.4836C1.09597 13.4836 0.838772 13.2705 0.632186 13.0988C0.492926 12.9831 0.375971 12.8861 0.192348 12.8467C0.137662 12.8347 0.088761 12.8043 0.0537705 12.7608C0.01878 12.7172 -0.00019373 12.6631 1.49156e-06 12.6073C0.00020734 12.5702 0.00880093 12.5336 0.025145 12.5002C0.041489 12.4669 0.0651641 12.4376 0.0944147 12.4146C0.123665 12.3916 0.157741 12.3754 0.194114 12.3673C0.230487 12.3592 0.268226 12.3594 0.30453 12.3678C0.545906 12.4287 0.767545 12.5503 0.948237 12.7209C1.13046 12.8723 1.27449 12.9918 1.58009 12.9918C1.88569 12.9918 2.02981 12.8723 2.21211 12.7209C2.41878 12.5492 2.67582 12.3361 3.16051 12.3361C3.64521 12.3361 3.90208 12.5492 4.10875 12.7209C4.29105 12.8723 4.43509 12.9918 4.74077 12.9918C5.04645 12.9918 5.19057 12.8723 5.37295 12.7209C5.57954 12.5495 5.83666 12.3361 6.32119 12.3361C6.80572 12.3361 7.06292 12.5492 7.26951 12.7209C7.40885 12.8366 7.5258 12.9336 7.70943 12.9729C7.76408 12.985 7.81295 13.0154 7.8479 13.0589C7.88286 13.1025 7.90181 13.1566 7.90161 13.2124H7.90128Z" fill="#FFEA92"/>
<path d="M0.411525 5.19122C0.638804 5.19122 0.82305 5.00773 0.82305 4.78139C0.82305 4.55504 0.638804 4.37155 0.411525 4.37155C0.184246 4.37155 0 4.55504 0 4.78139C0 5.00773 0.184246 5.19122 0.411525 5.19122Z" fill="#FFEA92"/>
<path d="M1.56387 8.22902C1.79115 8.22902 1.97539 8.04553 1.97539 7.81918C1.97539 7.59284 1.79115 7.40935 1.56387 7.40935C1.33659 7.40935 1.15234 7.59284 1.15234 7.81918C1.15234 8.04553 1.33659 8.22902 1.56387 8.22902Z" fill="#F9A7A7"/>
<path d="M1.56387 11.2668C1.79115 11.2668 1.97539 11.0833 1.97539 10.857C1.97539 10.6306 1.79115 10.4471 1.56387 10.4471C1.33659 10.4471 1.15234 10.6306 1.15234 10.857C1.15234 11.0833 1.33659 11.2668 1.56387 11.2668Z" fill="#FFEA92"/>
<path d="M0.411525 14.3046C0.638804 14.3046 0.82305 14.1211 0.82305 13.8948C0.82305 13.6684 0.638804 13.4849 0.411525 13.4849C0.184246 13.4849 0 13.6684 0 13.8948C0 14.1211 0.184246 14.3046 0.411525 14.3046Z" fill="#F9A7A7"/>
<path d="M3.37463 5.10926C3.55645 5.10926 3.70385 4.96247 3.70385 4.78139C3.70385 4.60031 3.55645 4.45352 3.37463 4.45352C3.19281 4.45352 3.04541 4.60031 3.04541 4.78139C3.04541 4.96247 3.19281 5.10926 3.37463 5.10926Z" fill="#F9A7A7"/>
<path d="M3.37463 14.2226C3.55645 14.2226 3.70385 14.0758 3.70385 13.8947C3.70385 13.7137 3.55645 13.5669 3.37463 13.5669C3.19281 13.5669 3.04541 13.7137 3.04541 13.8947C3.04541 14.0758 3.19281 14.2226 3.37463 14.2226Z" fill="#F9A7A7"/>
<path d="M17.1743 20H2.57882C2.42608 19.9998 2.27965 19.9393 2.17165 19.8317C2.06364 19.7242 2.00288 19.5783 2.00269 19.4262V18.0601C2.00288 17.908 2.06364 17.7621 2.17165 17.6546C2.27965 17.547 2.42608 17.4865 2.57882 17.4863H17.1743C17.327 17.4865 17.4735 17.547 17.5815 17.6546C17.6895 17.7621 17.7502 17.908 17.7504 18.0601V19.4262C17.7502 19.5783 17.6895 19.7242 17.5815 19.8317C17.4735 19.9393 17.327 19.9998 17.1743 20ZM2.57882 17.8142C2.51333 17.8142 2.45053 17.8401 2.40423 17.8862C2.35792 17.9323 2.33191 17.9949 2.33191 18.0601V19.4262C2.33191 19.4914 2.35792 19.554 2.40423 19.6001C2.45053 19.6462 2.51333 19.6721 2.57882 19.6721H17.1743C17.2398 19.6721 17.3026 19.6462 17.3489 19.6001C17.3952 19.554 17.4212 19.4914 17.4212 19.4262V18.0601C17.4212 17.9949 17.3952 17.9323 17.3489 17.8862C17.3026 17.8401 17.2398 17.8142 17.1743 17.8142H2.57882Z" fill="#3762CC"/>
<path d="M6.25513 2.34975H7.07818V17.6503H6.25513V2.34975Z" fill="#E0EBFC"/>
<path d="M7.07824 17.8142H6.25519C6.21153 17.8142 6.16966 17.7969 6.13879 17.7662C6.10792 17.7354 6.09058 17.6937 6.09058 17.6502V2.34976C6.09058 2.30628 6.10792 2.26458 6.13879 2.23384C6.16966 2.20309 6.21153 2.18582 6.25519 2.18582H7.07824C7.12189 2.18582 7.16376 2.20309 7.19463 2.23384C7.2255 2.26458 7.24285 2.30628 7.24285 2.34976V17.6502C7.24285 17.6937 7.2255 17.7354 7.19463 17.7662C7.16376 17.7969 7.12189 17.8142 7.07824 17.8142ZM6.4198 17.4863H6.91363V2.51369H6.4198V17.4863Z" fill="#3762CC"/>
<path d="M19.8975 9.43156L18.7453 8.60492C18.7189 8.58604 18.6892 8.57251 18.6576 8.5651C18.626 8.55768 18.5933 8.55654 18.5613 8.56172C18.5293 8.5669 18.4986 8.57832 18.471 8.59531C18.4434 8.6123 18.4194 8.63453 18.4005 8.66074C18.3815 8.68695 18.3679 8.71663 18.3605 8.74807C18.3531 8.77951 18.3519 8.8121 18.3571 8.84398C18.3623 8.87587 18.3738 8.90642 18.3908 8.93389C18.4079 8.96137 18.4302 8.98522 18.4565 9.0041L18.9879 9.38525H11.8519C11.7864 9.38525 11.7236 9.41116 11.6773 9.45727C11.631 9.50339 11.605 9.56594 11.605 9.63115C11.605 9.69637 11.631 9.75892 11.6773 9.80503C11.7236 9.85115 11.7864 9.87705 11.8519 9.87705H18.9877L18.4565 10.2581C18.4033 10.2962 18.3675 10.3538 18.357 10.4182C18.3465 10.4826 18.3621 10.5485 18.4003 10.6014C18.4386 10.6543 18.4964 10.69 18.561 10.7004C18.6257 10.7109 18.6919 10.6954 18.745 10.6573L19.8973 9.83074C19.9291 9.80797 19.955 9.77799 19.9728 9.74328C19.9907 9.70858 20 9.67015 20 9.63115C20 9.59216 19.9907 9.55372 19.9728 9.51902C19.955 9.48432 19.9291 9.45434 19.8973 9.43156H19.8975Z" fill="#6BDDDD"/>
<path d="M19.8975 12.7102L18.7453 11.8836C18.7189 11.8647 18.6892 11.8512 18.6576 11.8438C18.626 11.8364 18.5933 11.8352 18.5613 11.8404C18.5293 11.8456 18.4986 11.857 18.471 11.874C18.4434 11.891 18.4194 11.9132 18.4005 11.9394C18.3815 11.9656 18.3679 11.9953 18.3605 12.0268C18.3531 12.0582 18.3519 12.0908 18.3571 12.1227C18.3623 12.1546 18.3738 12.1851 18.3908 12.2126C18.4079 12.2401 18.4302 12.2639 18.4565 12.2828L18.9879 12.6639H11.8519C11.7864 12.6639 11.7236 12.6898 11.6773 12.736C11.631 12.7821 11.605 12.8446 11.605 12.9098C11.605 12.9751 11.631 13.0376 11.6773 13.0837C11.7236 13.1298 11.7864 13.1557 11.8519 13.1557H18.9877L18.4565 13.5368C18.4033 13.5749 18.3675 13.6325 18.357 13.6969C18.3465 13.7612 18.3621 13.8272 18.4003 13.8801C18.4386 13.933 18.4964 13.9686 18.561 13.9791C18.6257 13.9896 18.6919 13.9741 18.745 13.936L19.8973 13.1094C19.9291 13.0867 19.955 13.0567 19.9728 13.022C19.9907 12.9873 20 12.9488 20 12.9098C20 12.8708 19.9907 12.8324 19.9728 12.7977C19.955 12.763 19.9291 12.733 19.8973 12.7102H19.8975Z" fill="#6BDDDD"/>
<path d="M11.8519 6.59837H18.9877L18.4565 6.97943C18.4033 7.01754 18.3675 7.07512 18.357 7.13949C18.3465 7.20387 18.3621 7.26978 18.4003 7.32271C18.4386 7.37565 18.4964 7.41127 18.561 7.42176C18.6257 7.43224 18.6919 7.41672 18.745 7.37861L19.8973 6.55206C19.9291 6.52928 19.955 6.4993 19.9728 6.4646C19.9907 6.42989 20 6.39146 20 6.35247C20 6.31347 19.9907 6.27504 19.9728 6.24033C19.955 6.20563 19.9291 6.17565 19.8973 6.15288L18.745 5.32624C18.7187 5.30736 18.6889 5.29382 18.6573 5.28641C18.6258 5.279 18.593 5.27785 18.561 5.28303C18.529 5.28822 18.4983 5.29963 18.4707 5.31662C18.4432 5.33361 18.4192 5.35585 18.4002 5.38206C18.3813 5.40827 18.3677 5.43794 18.3603 5.46938C18.3528 5.50082 18.3517 5.53341 18.3569 5.5653C18.3621 5.59718 18.3735 5.62773 18.3906 5.65521C18.4076 5.68268 18.43 5.70654 18.4563 5.72542L18.9877 6.10656H11.8519C11.7864 6.10656 11.7236 6.13247 11.6773 6.17859C11.631 6.2247 11.605 6.28725 11.605 6.35247C11.605 6.41768 11.631 6.48023 11.6773 6.52634C11.7236 6.57246 11.7864 6.59837 11.8519 6.59837Z" fill="#6BDDDD"/>
<path d="M12.675 2.34975H13.4981V17.6503H12.675V2.34975Z" fill="#E0EBFC"/>
<path d="M13.4979 17.8142H12.6749C12.6312 17.8142 12.5893 17.7969 12.5585 17.7662C12.5276 17.7354 12.5103 17.6937 12.5103 17.6502V2.34976C12.5103 2.30628 12.5276 2.26458 12.5585 2.23384C12.5893 2.20309 12.6312 2.18582 12.6749 2.18582H13.4979C13.5416 2.18582 13.5834 2.20309 13.6143 2.23384C13.6452 2.26458 13.6625 2.30628 13.6625 2.34976V17.6502C13.6625 17.6937 13.6452 17.7354 13.6143 17.7662C13.5834 17.7969 13.5416 17.8142 13.4979 17.8142ZM12.8395 17.4863H13.3333V2.51369H12.8395V17.4863Z" fill="#3762CC"/>
</svg>
