<svg width="20" height="20" viewBox="0 0 20 20" fill="none" xmlns="http://www.w3.org/2000/svg">
<path d="M18.3438 7.09375V10.1332C18.3438 10.6152 18.0668 11.0539 17.632 11.2613C16.7627 11.6763 16.8621 11.6348 16.8203 11.6348V16.625C16.8203 18.0059 15.7012 19.125 14.3203 19.125H5.02344C3.64258 19.125 2.52344 18.0059 2.52344 16.625C2.52344 11.2456 2.53969 11.6348 2.49414 11.6348L1.71172 11.2613C1.27695 11.0539 1 10.6152 1 10.1332V7.09375C1 6.40352 1.55977 5.84375 2.25 5.84375H2.52344V5.375C2.52344 3.99414 3.64258 2.875 5.02344 2.875H14.3203C15.7012 2.875 16.8203 3.99414 16.8203 5.375V5.84375H17.0938C17.784 5.84375 18.3438 6.40352 18.3438 7.09375Z" fill="#BDEFFC"/>
<path d="M16.7605 4.8293C16.7057 4.82746 7.4534 4.82812 7.39336 4.82812C6.01516 4.82812 4.89336 5.94434 4.89336 7.32812C4.89336 19.5814 4.86777 18.7398 4.95313 19.1238C3.60469 19.0867 2.52344 17.9824 2.52344 16.625V5.375C2.52344 3.99414 3.64258 2.875 5.02344 2.875H14.3203C15.5137 2.875 16.5117 3.71094 16.7605 4.8293Z" fill="#D6F4FC"/>
<path d="M16.8203 14.6066V16.625C16.8203 18.0057 15.701 19.125 14.3203 19.125H5.02344C3.64273 19.125 2.52344 18.0057 2.52344 16.625V14.6066H7.83594V15.375C7.83594 15.7202 8.11574 16 8.46094 16H10.8828C11.228 16 11.5078 15.7202 11.5078 15.375V14.6066H16.8203Z" fill="#42434D"/>
<path d="M16.8203 5.375V5.84375H2.52344V5.375C2.52344 3.99414 3.64258 2.875 5.02344 2.875H8.46094V1.70313C8.46094 1.31484 8.77578 1 9.16406 1H10.1797C10.568 1 10.8828 1.31484 10.8828 1.70313V2.875H14.3203C15.7012 2.875 16.8203 3.99414 16.8203 5.375Z" fill="#42434D"/>
<path d="M11.5078 15.375C11.5078 15.7202 11.228 16 10.8828 16H8.46094C8.11574 16 7.83594 15.7202 7.83594 15.375C7.83594 15.3016 7.83594 12.5065 7.83594 12.5559C7.83594 11.5387 8.66816 10.6802 9.68535 10.6875C10.6937 10.6948 11.5078 11.5139 11.5078 12.5234C11.5078 12.5713 11.5078 15.3962 11.5078 15.375Z" fill="white"/>
<path d="M18.3438 7.09375V10.1332C18.3438 10.6152 18.0668 11.0539 17.632 11.2613C16.7627 11.6762 16.8621 11.6348 16.8203 11.6348V5.84375H17.0938C17.784 5.84375 18.3438 6.40352 18.3438 7.09375Z" fill="#2C2C33"/>
<path d="M2.52344 5.84375C2.52344 12.0953 2.53957 11.6348 2.49414 11.6348L1.71172 11.2613C1.27695 11.0539 1 10.6152 1 10.1332V7.09375C1 6.40352 1.55977 5.84375 2.25 5.84375H2.52344Z" fill="#4D4E59"/>
<path d="M9.98438 13.3047H9.35938C9.1652 13.3047 9.00781 13.1473 9.00781 12.9531C9.00781 12.7589 9.1652 12.6016 9.35938 12.6016H9.98438C10.1786 12.6016 10.3359 12.7589 10.3359 12.9531C10.3359 13.1473 10.1786 13.3047 9.98438 13.3047Z" fill="#FE4F60"/>
<path d="M9.98438 14.8672H9.35938C9.1652 14.8672 9.00781 14.7098 9.00781 14.5156C9.00781 14.3214 9.1652 14.1641 9.35938 14.1641H9.98438C10.1786 14.1641 10.3359 14.3214 10.3359 14.5156C10.3359 14.7098 10.1786 14.8672 9.98438 14.8672Z" fill="#FE4F60"/>
<path d="M4.89197 16.6967C4.89018 18.2097 2.62936 18.303 2.52904 16.7933C2.52135 16.6774 2.52346 16.8052 2.52346 14.6067H4.89338C4.89342 15.4684 4.89264 16.1519 4.89197 16.6967Z" fill="#4D4E59"/>
<path d="M14.3977 4.8285C11.6355 4.8281 7.43359 4.8285 7.39336 4.8285C6.56836 4.8285 5.83672 5.2281 5.38125 5.84412H2.52344V5.37537C2.52344 3.99451 3.64258 2.87537 5.02344 2.87537H8.46094V1.7035C8.46094 1.31521 8.77578 1.00037 9.16406 1.00037C10.2447 1.00037 10.1873 0.999628 10.2199 1.00154C10.6727 1.02732 10.6434 1.71014 10.1898 1.71014H9.87383C9.48555 1.71014 9.1707 2.02498 9.1707 2.41326V2.87537C14.7454 2.87537 14.3571 2.87346 14.4684 2.87967C15.7207 2.95271 15.652 4.82889 14.3977 4.8285Z" fill="#4D4E59"/>
</svg>
