<svg width="16" height="16" viewBox="0 0 16 16" fill="none" xmlns="http://www.w3.org/2000/svg">
<path d="M2.896 10.063H13.6469V14.5426H2.896V10.063Z" fill="#EB5757"/>
<path d="M11.8436 5.58364C12.1278 5.20813 12.303 4.74591 12.303 4.23978C12.303 3.00483 11.2981 2 10.0632 2C9.32793 2 8.67994 2.36091 8.27137 2.90975C7.8628 2.36091 7.21481 2 6.47956 2C5.24461 2 4.23978 3.00483 4.23978 4.23978C4.23978 4.74591 4.41492 5.20813 4.69916 5.58364H2V9.16729H14.5427V5.58364H11.8436ZM10.0632 2.89592C10.8042 2.89592 11.4071 3.49874 11.4071 4.23978C11.4071 4.98082 10.8042 5.58364 10.0632 5.58364H8.71934V4.23978C8.71934 3.49874 9.32214 2.89592 10.0632 2.89592ZM5.1357 4.23978C5.1357 3.49874 5.73852 2.89592 6.47956 2.89592C7.22061 2.89592 7.82343 3.49874 7.82343 4.23978V5.58364H6.47956C5.73852 5.58364 5.1357 4.98082 5.1357 4.23978Z" fill="#EB5757"/>
</svg>
